<?xml version="1.0" encoding="UTF-8"?>
<svg id="mermaid-1770793352981" width="786.15625" xmlns="http://www.w3.org/2000/svg" xmlns:xlink="http://www.w3.org/1999/xlink" height="568.75" viewBox="-20 -20 786.15625 568.75" role="graphics-document document" aria-roledescription="flowchart-v2"><style>#mermaid-1770793352981{font-family:Microsoft YaHei,SimHei,SimSun,Arial,sans-serif;font-size:16px;fill:#333;}#mermaid-1770793352981 .error-icon{fill:#552222;}#mermaid-1770793352981 .error-text{fill:#552222;stroke:#552222;}#mermaid-1770793352981 .edge-thickness-normal{stroke-width:2px;}#mermaid-1770793352981 .edge-thickness-thick{stroke-width:3.5px;}#mermaid-1770793352981 .edge-pattern-solid{stroke-dasharray:0;}#mermaid-1770793352981 .edge-pattern-dashed{stroke-dasharray:3;}#mermaid-1770793352981 .edge-pattern-dotted{stroke-dasharray:2;}#mermaid-1770793352981 .marker{fill:#333333;stroke:#333333;}#mermaid-1770793352981 .marker.cross{stroke:#333333;}#mermaid-1770793352981 svg{font-family:Microsoft YaHei,SimHei,SimSun,Arial,sans-serif;font-size:16px;}#mermaid-1770793352981 .label{font-family:Microsoft YaHei,SimHei,SimSun,Arial,sans-serif;color:#333;}#mermaid-1770793352981 .cluster-label text{fill:#333;}#mermaid-1770793352981 .cluster-label span,#mermaid-1770793352981 p{color:#333;}#mermaid-1770793352981 .label text,#mermaid-1770793352981 span,#mermaid-1770793352981 p{fill:#333;color:#333;}#mermaid-1770793352981 .node rect,#mermaid-1770793352981 .node circle,#mermaid-1770793352981 .node ellipse,#mermaid-1770793352981 .node polygon,#mermaid-1770793352981 .node path{fill:#ECECFF;stroke:#9370DB;stroke-width:1px;}#mermaid-1770793352981 .flowchart-label text{text-anchor:middle;}#mermaid-1770793352981 .node .katex path{fill:#000;stroke:#000;stroke-width:1px;}#mermaid-1770793352981 .node .label{text-align:center;}#mermaid-1770793352981 .node.clickable{cursor:pointer;}#mermaid-1770793352981 .arrowheadPath{fill:#333333;}#mermaid-1770793352981 .edgePath .path{stroke:#333333;stroke-width:2.0px;}#mermaid-1770793352981 .flowchart-link{stroke:#333333;fill:none;}#mermaid-1770793352981 .edgeLabel{background-color:#e8e8e8;text-align:center;}#mermaid-1770793352981 .edgeLabel rect{opacity:0.5;background-color:#e8e8e8;fill:#e8e8e8;}#mermaid-1770793352981 .labelBkg{background-color:rgba(232, 232, 232, 0.5);}#mermaid-1770793352981 .cluster rect{fill:#ffffde;stroke:#aaaa33;stroke-width:1px;}#mermaid-1770793352981 .cluster text{fill:#333;}#mermaid-1770793352981 .cluster span,#mermaid-1770793352981 p{color:#333;}#mermaid-1770793352981 div.mermaidTooltip{position:absolute;text-align:center;max-width:200px;padding:2px;font-family:Microsoft YaHei,SimHei,SimSun,Arial,sans-serif;font-size:12px;background:#F9FFEC;border:1px solid #aaaa33;border-radius:2px;pointer-events:none;z-index:100;}#mermaid-1770793352981 .flowchartTitleText{text-anchor:middle;font-size:18px;fill:#333;}#mermaid-1770793352981 :root{--mermaid-font-family:Microsoft YaHei,SimHei,SimSun,Arial,sans-serif;}</style><g><marker id="mermaid-1770793352981_flowchart-pointEnd" class="marker flowchart" viewBox="0 0 10 10" refX="6" refY="5" markerUnits="userSpaceOnUse" markerWidth="12" markerHeight="12" orient="auto"><path d="M 0 0 L 10 5 L 0 10 z" class="arrowMarkerPath" style="stroke-width: 1; stroke-dasharray: 1, 0;"></path></marker><marker id="mermaid-1770793352981_flowchart-pointStart" class="marker flowchart" viewBox="0 0 10 10" refX="4.5" refY="5" markerUnits="userSpaceOnUse" markerWidth="12" markerHeight="12" orient="auto"><path d="M 0 5 L 10 10 L 10 0 z" class="arrowMarkerPath" style="stroke-width: 1; stroke-dasharray: 1, 0;"></path></marker><marker id="mermaid-1770793352981_flowchart-circleEnd" class="marker flowchart" viewBox="0 0 10 10" refX="11" refY="5" markerUnits="userSpaceOnUse" markerWidth="11" markerHeight="11" orient="auto"><circle cx="5" cy="5" r="5" class="arrowMarkerPath" style="stroke-width: 1; stroke-dasharray: 1, 0;"></circle></marker><marker id="mermaid-1770793352981_flowchart-circleStart" class="marker flowchart" viewBox="0 0 10 10" refX="-1" refY="5" markerUnits="userSpaceOnUse" markerWidth="11" markerHeight="11" orient="auto"><circle cx="5" cy="5" r="5" class="arrowMarkerPath" style="stroke-width: 1; stroke-dasharray: 1, 0;"></circle></marker><marker id="mermaid-1770793352981_flowchart-crossEnd" class="marker cross flowchart" viewBox="0 0 11 11" refX="12" refY="5.2" markerUnits="userSpaceOnUse" markerWidth="11" markerHeight="11" orient="auto"><path d="M 1,1 l 9,9 M 10,1 l -9,9" class="arrowMarkerPath" style="stroke-width: 2; stroke-dasharray: 1, 0;"></path></marker><marker id="mermaid-1770793352981_flowchart-crossStart" class="marker cross flowchart" viewBox="0 0 11 11" refX="-1" refY="5.2" markerUnits="userSpaceOnUse" markerWidth="11" markerHeight="11" orient="auto"><path d="M 1,1 l 9,9 M 10,1 l -9,9" class="arrowMarkerPath" style="stroke-width: 2; stroke-dasharray: 1, 0;"></path></marker><g class="root"><g class="clusters"></g><g class="edgePaths"><path d="M113.227,289.5L122.264,289.5C131.302,289.5,149.378,289.5,168.817,273.244C188.256,256.988,209.058,224.476,219.46,208.22L229.861,191.964" id="L-A-B-0" class=" edge-thickness-normal edge-pattern-solid flowchart-link LS-A LE-B" style="fill:none;" marker-end="url(#mermaid-1770793352981_flowchart-pointEnd)"></path><path d="M271.874,187.5L282.304,201.708C292.734,215.917,313.593,244.333,335.101,274.812C356.608,305.29,378.763,337.829,389.84,354.099L400.918,370.369" id="L-B-C-0" class=" edge-thickness-normal edge-pattern-solid flowchart-link LS-B LE-C" style="fill:none;" marker-end="url(#mermaid-1770793352981_flowchart-pointEnd)"></path><path d="M492.156,403.25L495.49,403.25C498.823,403.25,505.49,403.25,516.207,387.054C526.925,370.857,541.694,338.465,549.079,322.269L556.463,306.072" id="L-C-D-0" class=" edge-thickness-normal edge-pattern-solid flowchart-link LS-C LE-D" style="fill:none;" marker-end="url(#mermaid-1770793352981_flowchart-pointEnd)"></path><path d="M611.156,272.75L614.49,272.75C617.823,272.75,624.49,272.75,633.897,266.429C643.304,260.107,655.452,247.464,661.526,241.143L667.6,234.822" id="L-D-E-0" class=" edge-thickness-normal edge-pattern-solid flowchart-link LS-D LE-E" style="fill:none;" marker-end="url(#mermaid-1770793352981_flowchart-pointEnd)"></path><path d="M681.744,174L673.313,159.792C664.882,145.583,648.019,117.167,629.671,102.958C611.323,88.75,591.49,88.75,571.656,88.75C551.823,88.75,531.99,88.75,507.264,88.75C482.539,88.75,452.922,88.75,423.305,88.75C393.688,88.75,364.07,88.75,341.667,95.14C319.263,101.529,304.074,114.309,296.479,120.698L288.884,127.088" id="L-E-B-0" class=" edge-thickness-normal edge-pattern-solid flowchart-link LS-E LE-B" style="fill:none;" marker-end="url(#mermaid-1770793352981_flowchart-pointEnd)"></path><path d="M147.453,202.5L150.786,202.5C154.12,202.5,160.786,202.5,168.135,200.408C175.484,198.316,183.515,194.132,187.53,192.041L191.546,189.949" id="L-B1-B-0" class=" edge-thickness-normal edge-pattern-solid flowchart-link LS-B1 LE-B" style="fill:none;" marker-end="url(#mermaid-1770793352981_flowchart-pointEnd)"></path><path d="M147.453,115.5L150.786,115.5C154.12,115.5,160.786,115.5,168.135,117.592C175.484,119.684,183.515,123.868,187.53,125.959L191.546,128.051" id="L-B2-B-0" class=" edge-thickness-normal edge-pattern-solid flowchart-link LS-B2 LE-B" style="fill:none;" marker-end="url(#mermaid-1770793352981_flowchart-pointEnd)"></path><path d="M139.453,28.5L144.12,28.5C148.786,28.5,158.12,28.5,173.188,44.756C188.256,61.012,209.058,93.524,219.46,109.78L229.861,126.036" id="L-B3-B-0" class=" edge-thickness-normal edge-pattern-solid flowchart-link LS-B3 LE-B" style="fill:none;" marker-end="url(#mermaid-1770793352981_flowchart-pointEnd)"></path><path d="M290.453,326.25L297.786,326.25C305.12,326.25,319.786,326.25,335.78,333.755C351.773,341.26,369.093,356.269,377.753,363.774L386.413,371.279" id="L-C1-C-0" class=" edge-thickness-normal edge-pattern-solid flowchart-link LS-C1 LE-C" style="fill:none;" marker-end="url(#mermaid-1770793352981_flowchart-pointEnd)"></path><path d="M290.453,413.25L297.786,413.25C305.12,413.25,319.786,413.25,329.575,412.974C339.364,412.697,344.275,412.145,346.731,411.868L349.186,411.592" id="L-C2-C-0" class=" edge-thickness-normal edge-pattern-solid flowchart-link LS-C2 LE-C" style="fill:none;" marker-end="url(#mermaid-1770793352981_flowchart-pointEnd)"></path><path d="M298.453,500.25L304.453,500.25C310.453,500.25,322.453,500.25,338.314,489.485C354.175,478.719,373.897,457.189,383.758,446.424L393.619,435.658" id="L-C3-C-0" class=" edge-thickness-normal edge-pattern-solid flowchart-link LS-C3 LE-C" style="fill:none;" marker-end="url(#mermaid-1770793352981_flowchart-pointEnd)"></path><path d="M481.031,142.25L486.219,142.25C491.406,142.25,501.781,142.25,514.353,158.446C526.925,174.643,541.694,207.035,549.079,223.231L556.463,239.428" id="L-D1-D-0" class=" edge-thickness-normal edge-pattern-solid flowchart-link LS-D1 LE-D" style="fill:none;" marker-end="url(#mermaid-1770793352981_flowchart-pointEnd)"></path><path d="M470.805,229.25L477.697,229.25C484.589,229.25,498.372,229.25,507.971,231.229C517.569,233.207,522.982,237.165,525.689,239.143L528.395,241.122" id="L-D2-D-0" class=" edge-thickness-normal edge-pattern-solid flowchart-link LS-D2 LE-D" style="fill:none;" marker-end="url(#mermaid-1770793352981_flowchart-pointEnd)"></path><path d="M481.031,316.25L486.219,316.25C491.406,316.25,501.781,316.25,509.675,314.271C517.569,312.293,522.982,308.335,525.689,306.357L528.395,304.378" id="L-D3-D-0" class=" edge-thickness-normal edge-pattern-solid flowchart-link LS-D3 LE-D" style="fill:none;" marker-end="url(#mermaid-1770793352981_flowchart-pointEnd)"></path></g><g class="edgeLabels"><g class="edgeLabel"><g class="label" transform="translate(0, 0)"></g></g><g class="edgeLabel"><g class="label" transform="translate(0, 0)"></g></g><g class="edgeLabel"><g class="label" transform="translate(0, 0)"></g></g><g class="edgeLabel"><g class="label" transform="translate(0, 0)"></g></g><g class="edgeLabel"><g class="label" transform="translate(0, 0)"></g></g><g class="edgeLabel"><g class="label" transform="translate(0, 0)"></g></g><g class="edgeLabel"><g class="label" transform="translate(0, 0)"></g></g><g class="edgeLabel"><g class="label" transform="translate(0, 0)"></g></g><g class="edgeLabel"><g class="label" transform="translate(0, 0)"></g></g><g class="edgeLabel"><g class="label" transform="translate(0, 0)"></g></g><g class="edgeLabel"><g class="label" transform="translate(0, 0)"></g></g><g class="edgeLabel"><g class="label" transform="translate(0, 0)"></g></g><g class="edgeLabel"><g class="label" transform="translate(0, 0)"></g></g><g class="edgeLabel"><g class="label" transform="translate(0, 0)"></g></g></g><g class="nodes"><g class="node default default flowchart-label" id="flowchart-A-0" data-node="true" data-id="A" transform="translate(73.7265625, 289.5)"><rect class="basic label-container" style="fill:#E3F2FD;" rx="0" ry="0" x="-39.5" y="-28.5" width="79" height="57"></rect><g class="label" style="" transform="translate(-32, -21)"><rect></rect><text x="32.0" y="12.0" text-anchor="middle" dominant-baseline="central" font-family="Microsoft YaHei, SimHei, SimSun, Arial, sans-serif" font-size="16" fill="#333"><tspan x="32.0" y="12.0" text-anchor="middle">用户指令</tspan><tspan x="32.0" y="30.0" text-anchor="middle">自然语言</tspan></text></g></g><g class="node default default flowchart-label" id="flowchart-B-1" data-node="true" data-id="B" transform="translate(250.953125, 159)"><rect class="basic label-container" style="fill:#FFF3E0;" rx="0" ry="0" x="-63.5" y="-28.5" width="127" height="57"></rect><g class="label" style="" transform="translate(-56, -21)"><rect></rect><text x="56.0" y="12.0" text-anchor="middle" dominant-baseline="central" font-family="Microsoft YaHei, SimHei, SimSun, Arial, sans-serif" font-size="16" fill="#333"><tspan x="56.0" y="12.0" text-anchor="middle">感知层</tspan><tspan x="56.0" y="30.0" text-anchor="middle">传感器数据处理</tspan></text></g></g><g class="node default default flowchart-label" id="flowchart-C-3" data-node="true" data-id="C" transform="translate(423.3046875, 403.25)"><rect class="basic label-container" style="fill:#2196F3;" rx="0" ry="0" x="-68.8515625" y="-28.5" width="137.703125" height="57"></rect><g class="label" style="" transform="translate(-61.3515625, -21)"><rect></rect><text x="61.3515625" y="12.0" text-anchor="middle" dominant-baseline="central" font-family="Microsoft YaHei, SimHei, SimSun, Arial, sans-serif" font-size="16" fill="#333"><tspan x="61.3515625" y="12.0" text-anchor="middle">决策层</tspan><tspan x="61.3515625" y="30.0" text-anchor="middle">OpenClaw智能体</tspan></text></g></g><g class="node default default flowchart-label" id="flowchart-D-5" data-node="true" data-id="D" transform="translate(571.65625, 272.75)"><rect class="basic label-container" style="fill:#4CAF50;" rx="0" ry="0" x="-39.5" y="-28.5" width="79" height="57"></rect><g class="label" style="" transform="translate(-32, -21)"><rect></rect><text x="32.0" y="12.0" text-anchor="middle" dominant-baseline="central" font-family="Microsoft YaHei, SimHei, SimSun, Arial, sans-serif" font-size="16" fill="#333"><tspan x="32.0" y="12.0" text-anchor="middle">执行层</tspan><tspan x="32.0" y="30.0" text-anchor="middle">硬件控制</tspan></text></g></g><g class="node default default flowchart-label" id="flowchart-E-7" data-node="true" data-id="E" transform="translate(698.65625, 202.5)"><rect class="basic label-container" style="fill:#F5F5F5;" rx="0" ry="0" x="-47.5" y="-28.5" width="95" height="57"></rect><g class="label" style="" transform="translate(-40, -21)"><rect></rect><text x="40.0" y="12.0" text-anchor="middle" dominant-baseline="central" font-family="Microsoft YaHei, SimHei, SimSun, Arial, sans-serif" font-size="16" fill="#333"><tspan x="40.0" y="12.0" text-anchor="middle">物理世界</tspan><tspan x="40.0" y="30.0" text-anchor="middle">环境与物体</tspan></text></g></g><g class="node default default flowchart-label" id="flowchart-B1-10" data-node="true" data-id="B1" transform="translate(73.7265625, 202.5)"><rect class="basic label-container" style="fill:#FFE0B2;" rx="0" ry="0" x="-73.7265625" y="-28.5" width="147.453125" height="57"></rect><g class="label" style="" transform="translate(-66.2265625, -21)"><rect></rect><text x="66.2265625" y="12.0" text-anchor="middle" dominant-baseline="central" font-family="Microsoft YaHei, SimHei, SimSun, Arial, sans-serif" font-size="16" fill="#333"><tspan x="66.2265625" y="12.0" text-anchor="middle">视觉感知</tspan><tspan x="66.2265625" y="30.0" text-anchor="middle">物体识别/场景理解</tspan></text></g></g><g class="node default default flowchart-label" id="flowchart-B2-12" data-node="true" data-id="B2" transform="translate(73.7265625, 115.5)"><rect class="basic label-container" style="fill:#FFE0B2;" rx="0" ry="0" x="-73.7265625" y="-28.5" width="147.453125" height="57"></rect><g class="label" style="" transform="translate(-66.2265625, -21)"><rect></rect><text x="66.2265625" y="12.0" text-anchor="middle" dominant-baseline="central" font-family="Microsoft YaHei, SimHei, SimSun, Arial, sans-serif" font-size="16" fill="#333"><tspan x="66.2265625" y="12.0" text-anchor="middle">语音感知</tspan><tspan x="66.2265625" y="30.0" text-anchor="middle">语音识别/意图理解</tspan></text></g></g><g class="node default default flowchart-label" id="flowchart-B3-14" data-node="true" data-id="B3" transform="translate(73.7265625, 28.5)"><rect class="basic label-container" style="fill:#FFE0B2;" rx="0" ry="0" x="-65.7265625" y="-28.5" width="131.453125" height="57"></rect><g class="label" style="" transform="translate(-58.2265625, -21)"><rect></rect><text x="58.2265625" y="12.0" text-anchor="middle" dominant-baseline="central" font-family="Microsoft YaHei, SimHei, SimSun, Arial, sans-serif" font-size="16" fill="#333"><tspan x="58.2265625" y="12.0" text-anchor="middle">触觉感知</tspan><tspan x="58.2265625" y="30.0" text-anchor="middle">力反馈/碰撞检测</tspan></text></g></g><g class="node default default flowchart-label" id="flowchart-C1-16" data-node="true" data-id="C1" transform="translate(250.953125, 326.25)"><rect class="basic label-container" style="fill:#BBDEFB;" rx="0" ry="0" x="-39.5" y="-28.5" width="79" height="57"></rect><g class="label" style="" transform="translate(-32, -21)"><rect></rect><text x="32.0" y="12.0" text-anchor="middle" dominant-baseline="central" font-family="Microsoft YaHei, SimHei, SimSun, Arial, sans-serif" font-size="16" fill="#333"><tspan x="32.0" y="12.0" text-anchor="middle">任务理解</tspan><tspan x="32.0" y="30.0" text-anchor="middle">LLM推理</tspan></text></g></g><g class="node default default flowchart-label" id="flowchart-C2-18" data-node="true" data-id="C2" transform="translate(250.953125, 413.25)"><rect class="basic label-container" style="fill:#BBDEFB;" rx="0" ry="0" x="-39.5" y="-28.5" width="79" height="57"></rect><g class="label" style="" transform="translate(-32, -21)"><rect></rect><text x="32.0" y="12.0" text-anchor="middle" dominant-baseline="central" font-family="Microsoft YaHei, SimHei, SimSun, Arial, sans-serif" font-size="16" fill="#333"><tspan x="32.0" y="12.0" text-anchor="middle">任务规划</tspan><tspan x="32.0" y="30.0" text-anchor="middle">目标分解</tspan></text></g></g><g class="node default default flowchart-label" id="flowchart-C3-20" data-node="true" data-id="C3" transform="translate(250.953125, 500.25)"><rect class="basic label-container" style="fill:#BBDEFB;" rx="0" ry="0" x="-47.5" y="-28.5" width="95" height="57"></rect><g class="label" style="" transform="translate(-40, -21)"><rect></rect><text x="40.0" y="12.0" text-anchor="middle" dominant-baseline="central" font-family="Microsoft YaHei, SimHei, SimSun, Arial, sans-serif" font-size="16" fill="#333"><tspan x="40.0" y="12.0" text-anchor="middle">记忆检索</tspan><tspan x="40.0" y="30.0" text-anchor="middle">上下文管理</tspan></text></g></g><g class="node default default flowchart-label" id="flowchart-D1-22" data-node="true" data-id="D1" transform="translate(423.3046875, 142.25)"><rect class="basic label-container" style="fill:#C8E6C9;" rx="0" ry="0" x="-57.7265625" y="-28.5" width="115.453125" height="57"></rect><g class="label" style="" transform="translate(-50.2265625, -21)"><rect></rect><text x="50.2265625" y="12.0" text-anchor="middle" dominant-baseline="central" font-family="Microsoft YaHei, SimHei, SimSun, Arial, sans-serif" font-size="16" fill="#333"><tspan x="50.2265625" y="12.0" text-anchor="middle">移动控制</tspan><tspan x="50.2265625" y="30.0" text-anchor="middle">路径规划/避障</tspan></text></g></g><g class="node default default flowchart-label" id="flowchart-D2-24" data-node="true" data-id="D2" transform="translate(423.3046875, 229.25)"><rect class="basic label-container" style="fill:#C8E6C9;" rx="0" ry="0" x="-47.5" y="-28.5" width="95" height="57"></rect><g class="label" style="" transform="translate(-40, -21)"><rect></rect><text x="40.0" y="12.0" text-anchor="middle" dominant-baseline="central" font-family="Microsoft YaHei, SimHei, SimSun, Arial, sans-serif" font-size="16" fill="#333"><tspan x="40.0" y="12.0" text-anchor="middle">抓取操作</tspan><tspan x="40.0" y="30.0" text-anchor="middle">机械臂控制</tspan></text></g></g><g class="node default default flowchart-label" id="flowchart-D3-26" data-node="true" data-id="D3" transform="translate(423.3046875, 316.25)"><rect class="basic label-container" style="fill:#C8E6C9;" rx="0" ry="0" x="-57.7265625" y="-28.5" width="115.453125" height="57"></rect><g class="label" style="" transform="translate(-50.2265625, -21)"><rect></rect><text x="50.2265625" y="12.0" text-anchor="middle" dominant-baseline="central" font-family="Microsoft YaHei, SimHei, SimSun, Arial, sans-serif" font-size="16" fill="#333"><tspan x="50.2265625" y="12.0" text-anchor="middle">精细操作</tspan><tspan x="50.2265625" y="30.0" text-anchor="middle">夹爪/工具使用</tspan></text></g></g></g></g></g></svg>