<?xml version="1.0" encoding="UTF-8"?>
<svg id="mermaid-1770793127889" width="1426.3671875" xmlns="http://www.w3.org/2000/svg" xmlns:xlink="http://www.w3.org/1999/xlink" height="488" viewBox="-20 -20 1426.3671875 488" role="graphics-document document" aria-roledescription="flowchart-v2"><style>#mermaid-1770793127889{font-family:Microsoft YaHei,SimHei,SimSun,Arial,sans-serif;font-size:16px;fill:#333;}#mermaid-1770793127889 .error-icon{fill:#552222;}#mermaid-1770793127889 .error-text{fill:#552222;stroke:#552222;}#mermaid-1770793127889 .edge-thickness-normal{stroke-width:2px;}#mermaid-1770793127889 .edge-thickness-thick{stroke-width:3.5px;}#mermaid-1770793127889 .edge-pattern-solid{stroke-dasharray:0;}#mermaid-1770793127889 .edge-pattern-dashed{stroke-dasharray:3;}#mermaid-1770793127889 .edge-pattern-dotted{stroke-dasharray:2;}#mermaid-1770793127889 .marker{fill:#333333;stroke:#333333;}#mermaid-1770793127889 .marker.cross{stroke:#333333;}#mermaid-1770793127889 svg{font-family:Microsoft YaHei,SimHei,SimSun,Arial,sans-serif;font-size:16px;}#mermaid-1770793127889 .label{font-family:Microsoft YaHei,SimHei,SimSun,Arial,sans-serif;color:#333;}#mermaid-1770793127889 .cluster-label text{fill:#333;}#mermaid-1770793127889 .cluster-label span,#mermaid-1770793127889 p{color:#333;}#mermaid-1770793127889 .label text,#mermaid-1770793127889 span,#mermaid-1770793127889 p{fill:#333;color:#333;}#mermaid-1770793127889 .node rect,#mermaid-1770793127889 .node circle,#mermaid-1770793127889 .node ellipse,#mermaid-1770793127889 .node polygon,#mermaid-1770793127889 .node path{fill:#ECECFF;stroke:#9370DB;stroke-width:1px;}#mermaid-1770793127889 .flowchart-label text{text-anchor:middle;}#mermaid-1770793127889 .node .katex path{fill:#000;stroke:#000;stroke-width:1px;}#mermaid-1770793127889 .node .label{text-align:center;}#mermaid-1770793127889 .node.clickable{cursor:pointer;}#mermaid-1770793127889 .arrowheadPath{fill:#333333;}#mermaid-1770793127889 .edgePath .path{stroke:#333333;stroke-width:2.0px;}#mermaid-1770793127889 .flowchart-link{stroke:#333333;fill:none;}#mermaid-1770793127889 .edgeLabel{background-color:#e8e8e8;text-align:center;}#mermaid-1770793127889 .edgeLabel rect{opacity:0.5;background-color:#e8e8e8;fill:#e8e8e8;}#mermaid-1770793127889 .labelBkg{background-color:rgba(232, 232, 232, 0.5);}#mermaid-1770793127889 .cluster rect{fill:#ffffde;stroke:#aaaa33;stroke-width:1px;}#mermaid-1770793127889 .cluster text{fill:#333;}#mermaid-1770793127889 .cluster span,#mermaid-1770793127889 p{color:#333;}#mermaid-1770793127889 div.mermaidTooltip{position:absolute;text-align:center;max-width:200px;padding:2px;font-family:Microsoft YaHei,SimHei,SimSun,Arial,sans-serif;font-size:12px;background:#F9FFEC;border:1px solid #aaaa33;border-radius:2px;pointer-events:none;z-index:100;}#mermaid-1770793127889 .flowchartTitleText{text-anchor:middle;font-size:18px;fill:#333;}#mermaid-1770793127889 :root{--mermaid-font-family:Microsoft YaHei,SimHei,SimSun,Arial,sans-serif;}</style><g><marker id="mermaid-1770793127889_flowchart-pointEnd" class="marker flowchart" viewBox="0 0 10 10" refX="6" refY="5" markerUnits="userSpaceOnUse" markerWidth="12" markerHeight="12" orient="auto"><path d="M 0 0 L 10 5 L 0 10 z" class="arrowMarkerPath" style="stroke-width: 1; stroke-dasharray: 1, 0;"></path></marker><marker id="mermaid-1770793127889_flowchart-pointStart" class="marker flowchart" viewBox="0 0 10 10" refX="4.5" refY="5" markerUnits="userSpaceOnUse" markerWidth="12" markerHeight="12" orient="auto"><path d="M 0 5 L 10 10 L 10 0 z" class="arrowMarkerPath" style="stroke-width: 1; stroke-dasharray: 1, 0;"></path></marker><marker id="mermaid-1770793127889_flowchart-circleEnd" class="marker flowchart" viewBox="0 0 10 10" refX="11" refY="5" markerUnits="userSpaceOnUse" markerWidth="11" markerHeight="11" orient="auto"><circle cx="5" cy="5" r="5" class="arrowMarkerPath" style="stroke-width: 1; stroke-dasharray: 1, 0;"></circle></marker><marker id="mermaid-1770793127889_flowchart-circleStart" class="marker flowchart" viewBox="0 0 10 10" refX="-1" refY="5" markerUnits="userSpaceOnUse" markerWidth="11" markerHeight="11" orient="auto"><circle cx="5" cy="5" r="5" class="arrowMarkerPath" style="stroke-width: 1; stroke-dasharray: 1, 0;"></circle></marker><marker id="mermaid-1770793127889_flowchart-crossEnd" class="marker cross flowchart" viewBox="0 0 11 11" refX="12" refY="5.2" markerUnits="userSpaceOnUse" markerWidth="11" markerHeight="11" orient="auto"><path d="M 1,1 l 9,9 M 10,1 l -9,9" class="arrowMarkerPath" style="stroke-width: 2; stroke-dasharray: 1, 0;"></path></marker><marker id="mermaid-1770793127889_flowchart-crossStart" class="marker cross flowchart" viewBox="0 0 11 11" refX="-1" refY="5.2" markerUnits="userSpaceOnUse" markerWidth="11" markerHeight="11" orient="auto"><path d="M 1,1 l 9,9 M 10,1 l -9,9" class="arrowMarkerPath" style="stroke-width: 2; stroke-dasharray: 1, 0;"></path></marker><g class="root"><g class="clusters"><g class="cluster default flowchart-label" id="云端服务"><rect style="" rx="0" ry="0" x="0" y="351" width="474.703125" height="97"></rect><g class="cluster-label" transform="translate(205.3515625, 351.0)"><text x="32.0" y="10.5" text-anchor="middle" dominant-baseline="central" font-family="Microsoft YaHei, SimHei, SimSun, Arial, sans-serif" font-size="16" fill="#333"><tspan x="32.0" y="10.5" text-anchor="middle">云端服务</tspan></text></g></g><g class="cluster default flowchart-label" id="MimicClaw系统"><rect style="" rx="0" ry="0" x="494.703125" y="137" width="850.078125" height="311"></rect><g class="cluster-label" transform="translate(865.078125, 137.0)"><text x="54.6640625" y="10.5" text-anchor="middle" dominant-baseline="central" font-family="Microsoft YaHei, SimHei, SimSun, Arial, sans-serif" font-size="16" fill="#333"><tspan x="54.6640625" y="10.5" text-anchor="middle">MimicClaw系统</tspan></text></g></g><g class="cluster default flowchart-label" id="嵌入式设备"><rect style="" rx="0" ry="0" x="806.3984375" y="0" width="579.96875" height="97"></rect><g class="cluster-label" transform="translate(1056.3828125, 0.0)"><text x="40.0" y="10.5" text-anchor="middle" dominant-baseline="central" font-family="Microsoft YaHei, SimHei, SimSun, Arial, sans-serif" font-size="16" fill="#333"><tspan x="40.0" y="10.5" text-anchor="middle">嵌入式设备</tspan></text></g></g></g><g class="edgePaths"><path d="M1283.195,77L1283.195,80.333C1283.195,83.667,1283.195,90.333,1283.195,97C1283.195,103.667,1283.195,110.333,1283.195,117C1283.195,123.667,1283.195,130.333,1277.282,136.607C1271.369,142.88,1259.542,148.76,1253.629,151.7L1247.716,154.64" id="L-A-D-0" class=" edge-thickness-normal edge-pattern-solid flowchart-link LS-A LE-D" style="fill:none;" marker-end="url(#mermaid-1770793127889_flowchart-pointEnd)"></path><path d="M1107.078,77L1107.078,80.333C1107.078,83.667,1107.078,90.333,1107.078,97C1107.078,103.667,1107.078,110.333,1107.078,117C1107.078,123.667,1107.078,130.333,1111.726,136.536C1116.375,142.739,1125.672,148.477,1130.32,151.347L1134.968,154.216" id="L-B-D-0" class=" edge-thickness-normal edge-pattern-solid flowchart-link LS-B LE-D" style="fill:none;" marker-end="url(#mermaid-1770793127889_flowchart-pointEnd)"></path><path d="M920.266,75.5L920.266,79.083C920.266,82.667,920.266,89.833,920.266,96.75C920.266,103.667,920.266,110.333,920.266,117C920.266,123.667,920.266,130.333,947.436,138.632C974.606,146.931,1028.946,156.862,1056.116,161.827L1083.286,166.793" id="L-C-D-0" class=" edge-thickness-normal edge-pattern-solid flowchart-link LS-C LE-D" style="fill:none;" marker-end="url(#mermaid-1770793127889_flowchart-pointEnd)"></path><path d="M1130.154,214L1123.664,217.333C1117.173,220.667,1104.192,227.333,1061.533,236.806C1018.875,246.278,946.538,258.556,910.37,264.696L874.202,270.835" id="L-D-H-0" class=" edge-thickness-normal edge-pattern-solid flowchart-link LS-D LE-H" style="fill:none;" marker-end="url(#mermaid-1770793127889_flowchart-pointEnd)"></path><path d="M976.773,214L976.773,217.333C976.773,220.667,976.773,227.333,959.657,235.513C942.541,243.692,908.309,253.385,891.192,258.231L874.076,263.077" id="L-E-H-0" class=" edge-thickness-normal edge-pattern-solid flowchart-link LS-E LE-H" style="fill:none;" marker-end="url(#mermaid-1770793127889_flowchart-pointEnd)"></path><path d="M791.32,214L791.32,217.333C791.32,220.667,791.32,227.333,792.046,233.152C792.771,238.971,794.222,243.942,794.947,246.427L795.673,248.912" id="L-F-H-0" class=" edge-thickness-normal edge-pattern-solid flowchart-link LS-F LE-H" style="fill:none;" marker-end="url(#mermaid-1770793127889_flowchart-pointEnd)"></path><path d="M658.789,214L665.238,217.333C671.688,220.667,684.586,227.333,697.652,233.638C710.717,239.943,723.95,245.886,730.566,248.857L737.182,251.829" id="L-G-H-0" class=" edge-thickness-normal edge-pattern-solid flowchart-link LS-G LE-H" style="fill:none;" marker-end="url(#mermaid-1770793127889_flowchart-pointEnd)"></path><path d="M868.977,288.94L938.098,295.95C1007.22,302.96,1145.464,316.98,1214.585,327.323C1283.707,337.667,1283.707,344.333,1281.558,350.314C1279.41,356.295,1275.112,361.59,1272.963,364.237L1270.815,366.885" id="L-H-I-0" class=" edge-thickness-normal edge-pattern-solid flowchart-link LS-H LE-I" style="fill:none;" marker-end="url(#mermaid-1770793127889_flowchart-pointEnd)"></path><path d="M1238.467,371L1237.78,367.667C1237.093,364.333,1235.718,357.667,1235.031,351C1234.344,344.333,1234.344,337.667,1234.344,326.25C1234.344,314.833,1234.344,298.667,1234.344,282.5C1234.344,266.333,1234.344,250.167,1231.623,239.373C1228.902,228.58,1223.46,223.16,1220.739,220.45L1218.018,217.74" id="L-I-D-0" class=" edge-thickness-normal edge-pattern-solid flowchart-link LS-I LE-D" style="fill:none;" marker-end="url(#mermaid-1770793127889_flowchart-pointEnd)"></path><path d="M736.762,295.015L703.831,301.012C670.9,307.01,605.038,319.005,572.107,328.336C539.176,337.667,539.176,344.333,475.525,354.517C411.874,364.7,284.572,378.4,220.921,385.249L157.27,392.099" id="L-H-J-0" class=" edge-thickness-normal edge-pattern-solid flowchart-link LS-H LE-J" style="fill:none;" marker-start="url(#mermaid-1770793127889_flowchart-pointStart)" marker-end="url(#mermaid-1770793127889_flowchart-pointEnd)"></path><path d="M573.933,217.906L571.474,220.589C569.014,223.271,564.095,228.635,561.635,239.401C559.176,250.167,559.176,266.333,559.176,282.5C559.176,298.667,559.176,314.833,559.176,326.25C559.176,337.667,559.176,344.333,518.353,353.979C477.53,363.624,395.884,376.248,355.061,382.56L314.238,388.872" id="L-G-K-0" class=" edge-thickness-normal edge-pattern-solid flowchart-link LS-G LE-K" style="fill:none;" marker-start="url(#mermaid-1770793127889_flowchart-pointStart)" marker-end="url(#mermaid-1770793127889_flowchart-pointEnd)"></path><path d="M603.648,219.3L603.648,221.75C603.648,224.2,603.648,229.1,603.648,239.633C603.648,250.167,603.648,266.333,603.648,282.5C603.648,298.667,603.648,314.833,603.648,326.25C603.648,337.667,603.648,344.333,578.851,353.413C554.054,362.492,504.46,373.985,479.663,379.731L454.866,385.477" id="L-G-L-0" class=" edge-thickness-normal edge-pattern-solid flowchart-link LS-G LE-L" style="fill:none;" marker-start="url(#mermaid-1770793127889_flowchart-pointStart)" marker-end="url(#mermaid-1770793127889_flowchart-pointEnd)"></path></g><g class="edgeLabels"><g class="edgeLabel"><g class="label" transform="translate(0, 0)"></g></g><g class="edgeLabel"><g class="label" transform="translate(0, 0)"></g></g><g class="edgeLabel"><g class="label" transform="translate(0, 0)"></g></g><g class="edgeLabel"><g class="label" transform="translate(0, 0)"></g></g><g class="edgeLabel"><g class="label" transform="translate(0, 0)"></g></g><g class="edgeLabel"><g class="label" transform="translate(0, 0)"></g></g><g class="edgeLabel"><g class="label" transform="translate(0, 0)"></g></g><g class="edgeLabel"><g class="label" transform="translate(0, 0)"></g></g><g class="edgeLabel"><g class="label" transform="translate(0, 0)"></g></g><g class="edgeLabel"><g class="label" transform="translate(0, 0)"></g></g><g class="edgeLabel"><g class="label" transform="translate(0, 0)"></g></g><g class="edgeLabel"><g class="label" transform="translate(0, 0)"></g></g></g><g class="nodes"><g class="node default default flowchart-label" id="flowchart-J-9" data-node="true" data-id="J" transform="translate(88.5, 399.5)"><rect class="basic label-container" style="fill:#FFC107;" rx="0" ry="0" x="-63.5" y="-18" width="127" height="36"></rect><g class="label" style="" transform="translate(-56, -10.5)"><rect></rect><text x="56.0" y="10.5" text-anchor="middle" dominant-baseline="central" font-family="Microsoft YaHei, SimHei, SimSun, Arial, sans-serif" font-size="16" fill="#333"><tspan x="56.0" y="10.5" text-anchor="middle">模型训练与优化</tspan></text></g></g><g class="node default default flowchart-label" id="flowchart-K-10" data-node="true" data-id="K" transform="translate(245.5, 399.5)"><rect class="basic label-container" style="fill:#FFC107;" rx="0" ry="0" x="-63.5" y="-18" width="127" height="36"></rect><g class="label" style="" transform="translate(-56, -10.5)"><rect></rect><text x="56.0" y="10.5" text-anchor="middle" dominant-baseline="central" font-family="Microsoft YaHei, SimHei, SimSun, Arial, sans-serif" font-size="16" fill="#333"><tspan x="56.0" y="10.5" text-anchor="middle">远程监控与诊断</tspan></text></g></g><g class="node default default flowchart-label" id="flowchart-L-11" data-node="true" data-id="L" transform="translate(394.3515625, 399.5)"><rect class="basic label-container" style="fill:#FFC107;" rx="0" ry="0" x="-55.3515625" y="-18" width="110.703125" height="36"></rect><g class="label" style="" transform="translate(-47.8515625, -10.5)"><rect></rect><text x="47.8515625" y="10.5" text-anchor="middle" dominant-baseline="central" font-family="Microsoft YaHei, SimHei, SimSun, Arial, sans-serif" font-size="16" fill="#333"><tspan x="47.8515625" y="10.5" text-anchor="middle">OTA更新服务</tspan></text></g></g><g class="node default default flowchart-label" id="flowchart-D-3" data-node="true" data-id="D" transform="translate(1185.6484375, 185.5)"><rect class="basic label-container" style="fill:#FFF3E0;" rx="0" ry="0" x="-97.1484375" y="-28.5" width="194.296875" height="57"></rect><g class="label" style="" transform="translate(-89.6484375, -21)"><rect></rect><text x="89.6484375" y="12.0" text-anchor="middle" dominant-baseline="central" font-family="Microsoft YaHei, SimHei, SimSun, Arial, sans-serif" font-size="16" fill="#333"><tspan x="89.6484375" y="12.0" text-anchor="middle">硬件抽象层</tspan><tspan x="89.6484375" y="30.0" text-anchor="middle">GPIO/I2C/SPI/UART驱动</tspan></text></g></g><g class="node default default flowchart-label" id="flowchart-E-4" data-node="true" data-id="E" transform="translate(976.7734375, 185.5)"><rect class="basic label-container" style="fill:#F3E5F5;" rx="0" ry="0" x="-81.7265625" y="-28.5" width="163.453125" height="57"></rect><g class="label" style="" transform="translate(-74.2265625, -21)"><rect></rect><text x="74.2265625" y="12.0" text-anchor="middle" dominant-baseline="central" font-family="Microsoft YaHei, SimHei, SimSun, Arial, sans-serif" font-size="16" fill="#333"><tspan x="74.2265625" y="12.0" text-anchor="middle">实时任务调度器</tspan><tspan x="74.2265625" y="30.0" text-anchor="middle">优先级管理/延迟控制</tspan></text></g></g><g class="node default default flowchart-label" id="flowchart-F-5" data-node="true" data-id="F" transform="translate(791.3203125, 185.5)"><rect class="basic label-container" style="fill:#E8F5E9;" rx="0" ry="0" x="-73.7265625" y="-28.5" width="147.453125" height="57"></rect><g class="label" style="" transform="translate(-66.2265625, -21)"><rect></rect><text x="66.2265625" y="12.0" text-anchor="middle" dominant-baseline="central" font-family="Microsoft YaHei, SimHei, SimSun, Arial, sans-serif" font-size="16" fill="#333"><tspan x="66.2265625" y="12.0" text-anchor="middle">功耗管理模块</tspan><tspan x="66.2265625" y="30.0" text-anchor="middle">动态调频/休眠唤醒</tspan></text></g></g><g class="node default default flowchart-label" id="flowchart-G-6" data-node="true" data-id="G" transform="translate(603.6484375, 185.5)"><rect class="basic label-container" style="fill:#FFEBEE;" rx="0" ry="0" x="-83.9453125" y="-28.5" width="167.890625" height="57"></rect><g class="label" style="" transform="translate(-76.4453125, -21)"><rect></rect><text x="76.4453125" y="12.0" text-anchor="middle" dominant-baseline="central" font-family="Microsoft YaHei, SimHei, SimSun, Arial, sans-serif" font-size="16" fill="#333"><tspan x="76.4453125" y="12.0" text-anchor="middle">可靠性保障</tspan><tspan x="76.4453125" y="30.0" text-anchor="middle">看门狗/日志/版本管理</tspan></text></g></g><g class="node default default flowchart-label" id="flowchart-H-7" data-node="true" data-id="H" transform="translate(805.4765625, 282.5)"><rect class="basic label-container" style="fill:#2196F3;" rx="0" ry="0" x="-63.5" y="-28.5" width="127" height="57"></rect><g class="label" style="" transform="translate(-56, -21)"><rect></rect><text x="56.0" y="12.0" text-anchor="middle" dominant-baseline="central" font-family="Microsoft YaHei, SimHei, SimSun, Arial, sans-serif" font-size="16" fill="#333"><tspan x="56.0" y="12.0" text-anchor="middle">NanoClaw核心</tspan><tspan x="56.0" y="30.0" text-anchor="middle">轻量化推理引擎</tspan></text></g></g><g class="node default default flowchart-label" id="flowchart-I-8" data-node="true" data-id="I" transform="translate(1244.34375, 399.5)"><rect class="basic label-container" style="fill:#4CAF50;" rx="0" ry="0" x="-73.7265625" y="-28.5" width="147.453125" height="57"></rect><g class="label" style="" transform="translate(-66.2265625, -21)"><rect></rect><text x="66.2265625" y="12.0" text-anchor="middle" dominant-baseline="central" font-family="Microsoft YaHei, SimHei, SimSun, Arial, sans-serif" font-size="16" fill="#333"><tspan x="66.2265625" y="12.0" text-anchor="middle">Skills执行环境</tspan><tspan x="66.2265625" y="30.0" text-anchor="middle">任务隔离/资源限制</tspan></text></g></g><g class="node default default flowchart-label" id="flowchart-A-0" data-node="true" data-id="A" transform="translate(1283.1953125, 48.5)"><rect class="basic label-container" style="fill:#E3F2FD;" rx="0" ry="0" x="-78.171875" y="-28.5" width="156.34375" height="57"></rect><g class="label" style="" transform="translate(-70.671875, -21)"><rect></rect><text x="70.671875" y="12.0" text-anchor="middle" dominant-baseline="central" font-family="Microsoft YaHei, SimHei, SimSun, Arial, sans-serif" font-size="16" fill="#333"><tspan x="70.671875" y="12.0" text-anchor="middle">传感器层</tspan><tspan x="70.671875" y="30.0" text-anchor="middle">温度/湿度/运动/视觉</tspan></text></g></g><g class="node default default flowchart-label" id="flowchart-B-1" data-node="true" data-id="B" transform="translate(1107.078125, 48.5)"><rect class="basic label-container" style="fill:#E3F2FD;" rx="0" ry="0" x="-67.9453125" y="-28.5" width="135.890625" height="57"></rect><g class="label" style="" transform="translate(-60.4453125, -21)"><rect></rect><text x="60.4453125" y="12.0" text-anchor="middle" dominant-baseline="central" font-family="Microsoft YaHei, SimHei, SimSun, Arial, sans-serif" font-size="16" fill="#333"><tspan x="60.4453125" y="12.0" text-anchor="middle">执行器层</tspan><tspan x="60.4453125" y="30.0" text-anchor="middle">电机/舵机/继电器</tspan></text></g></g><g class="node default default flowchart-label" id="flowchart-C-2" data-node="true" data-id="C" transform="translate(920.265625, 48.5)"><rect class="basic label-container" style="fill:#E3F2FD;" rx="0" ry="0" x="-88.8671875" y="-27" width="177.734375" height="54"></rect><g class="label" style="" transform="translate(-81.3671875, -19.5)"><rect></rect><text x="81.3671875" y="10.5" text-anchor="middle" dominant-baseline="central" font-family="Microsoft YaHei, SimHei, SimSun, Arial, sans-serif" font-size="16" fill="#333"><tspan x="81.3671875" y="10.5" text-anchor="middle">通信层</tspan><tspan x="81.3671875" y="28.5" text-anchor="middle">WiFi/BLE/Zigbee/LoRa</tspan></text></g></g></g></g></g></svg>