<?xml version="1.0" encoding="UTF-8"?>
<svg id="mermaid-1770792993373" width="1215.6640625" xmlns="http://www.w3.org/2000/svg" xmlns:xlink="http://www.w3.org/1999/xlink" height="517" viewBox="-20 -20 1215.6640625 517" role="graphics-document document" aria-roledescription="flowchart-v2"><style>#mermaid-1770792993373{font-family:Microsoft YaHei,SimHei,SimSun,Arial,sans-serif;font-size:16px;fill:#333;}#mermaid-1770792993373 .error-icon{fill:#552222;}#mermaid-1770792993373 .error-text{fill:#552222;stroke:#552222;}#mermaid-1770792993373 .edge-thickness-normal{stroke-width:2px;}#mermaid-1770792993373 .edge-thickness-thick{stroke-width:3.5px;}#mermaid-1770792993373 .edge-pattern-solid{stroke-dasharray:0;}#mermaid-1770792993373 .edge-pattern-dashed{stroke-dasharray:3;}#mermaid-1770792993373 .edge-pattern-dotted{stroke-dasharray:2;}#mermaid-1770792993373 .marker{fill:#333333;stroke:#333333;}#mermaid-1770792993373 .marker.cross{stroke:#333333;}#mermaid-1770792993373 svg{font-family:Microsoft YaHei,SimHei,SimSun,Arial,sans-serif;font-size:16px;}#mermaid-1770792993373 .label{font-family:Microsoft YaHei,SimHei,SimSun,Arial,sans-serif;color:#333;}#mermaid-1770792993373 .cluster-label text{fill:#333;}#mermaid-1770792993373 .cluster-label span,#mermaid-1770792993373 p{color:#333;}#mermaid-1770792993373 .label text,#mermaid-1770792993373 span,#mermaid-1770792993373 p{fill:#333;color:#333;}#mermaid-1770792993373 .node rect,#mermaid-1770792993373 .node circle,#mermaid-1770792993373 .node ellipse,#mermaid-1770792993373 .node polygon,#mermaid-1770792993373 .node path{fill:#ECECFF;stroke:#9370DB;stroke-width:1px;}#mermaid-1770792993373 .flowchart-label text{text-anchor:middle;}#mermaid-1770792993373 .node .katex path{fill:#000;stroke:#000;stroke-width:1px;}#mermaid-1770792993373 .node .label{text-align:center;}#mermaid-1770792993373 .node.clickable{cursor:pointer;}#mermaid-1770792993373 .arrowheadPath{fill:#333333;}#mermaid-1770792993373 .edgePath .path{stroke:#333333;stroke-width:2.0px;}#mermaid-1770792993373 .flowchart-link{stroke:#333333;fill:none;}#mermaid-1770792993373 .edgeLabel{background-color:#e8e8e8;text-align:center;}#mermaid-1770792993373 .edgeLabel rect{opacity:0.5;background-color:#e8e8e8;fill:#e8e8e8;}#mermaid-1770792993373 .labelBkg{background-color:rgba(232, 232, 232, 0.5);}#mermaid-1770792993373 .cluster rect{fill:#ffffde;stroke:#aaaa33;stroke-width:1px;}#mermaid-1770792993373 .cluster text{fill:#333;}#mermaid-1770792993373 .cluster span,#mermaid-1770792993373 p{color:#333;}#mermaid-1770792993373 div.mermaidTooltip{position:absolute;text-align:center;max-width:200px;padding:2px;font-family:Microsoft YaHei,SimHei,SimSun,Arial,sans-serif;font-size:12px;background:#F9FFEC;border:1px solid #aaaa33;border-radius:2px;pointer-events:none;z-index:100;}#mermaid-1770792993373 .flowchartTitleText{text-anchor:middle;font-size:18px;fill:#333;}#mermaid-1770792993373 :root{--mermaid-font-family:Microsoft YaHei,SimHei,SimSun,Arial,sans-serif;}</style><g><marker id="mermaid-1770792993373_flowchart-pointEnd" class="marker flowchart" viewBox="0 0 10 10" refX="6" refY="5" markerUnits="userSpaceOnUse" markerWidth="12" markerHeight="12" orient="auto"><path d="M 0 0 L 10 5 L 0 10 z" class="arrowMarkerPath" style="stroke-width: 1; stroke-dasharray: 1, 0;"></path></marker><marker id="mermaid-1770792993373_flowchart-pointStart" class="marker flowchart" viewBox="0 0 10 10" refX="4.5" refY="5" markerUnits="userSpaceOnUse" markerWidth="12" markerHeight="12" orient="auto"><path d="M 0 5 L 10 10 L 10 0 z" class="arrowMarkerPath" style="stroke-width: 1; stroke-dasharray: 1, 0;"></path></marker><marker id="mermaid-1770792993373_flowchart-circleEnd" class="marker flowchart" viewBox="0 0 10 10" refX="11" refY="5" markerUnits="userSpaceOnUse" markerWidth="11" markerHeight="11" orient="auto"><circle cx="5" cy="5" r="5" class="arrowMarkerPath" style="stroke-width: 1; stroke-dasharray: 1, 0;"></circle></marker><marker id="mermaid-1770792993373_flowchart-circleStart" class="marker flowchart" viewBox="0 0 10 10" refX="-1" refY="5" markerUnits="userSpaceOnUse" markerWidth="11" markerHeight="11" orient="auto"><circle cx="5" cy="5" r="5" class="arrowMarkerPath" style="stroke-width: 1; stroke-dasharray: 1, 0;"></circle></marker><marker id="mermaid-1770792993373_flowchart-crossEnd" class="marker cross flowchart" viewBox="0 0 11 11" refX="12" refY="5.2" markerUnits="userSpaceOnUse" markerWidth="11" markerHeight="11" orient="auto"><path d="M 1,1 l 9,9 M 10,1 l -9,9" class="arrowMarkerPath" style="stroke-width: 2; stroke-dasharray: 1, 0;"></path></marker><marker id="mermaid-1770792993373_flowchart-crossStart" class="marker cross flowchart" viewBox="0 0 11 11" refX="-1" refY="5.2" markerUnits="userSpaceOnUse" markerWidth="11" markerHeight="11" orient="auto"><path d="M 1,1 l 9,9 M 10,1 l -9,9" class="arrowMarkerPath" style="stroke-width: 2; stroke-dasharray: 1, 0;"></path></marker><g class="root"><g class="clusters"><g class="cluster default flowchart-label" id="基础设施层"><rect style="" rx="0" ry="0" x="0" y="285" width="372.34375" height="192"></rect><g class="cluster-label" transform="translate(146.171875, 285.0)"><text x="40.0" y="10.5" text-anchor="middle" dominant-baseline="central" font-family="Microsoft YaHei, SimHei, SimSun, Arial, sans-serif" font-size="16" fill="#333"><tspan x="40.0" y="10.5" text-anchor="middle">基础设施层</tspan></text></g></g><g class="cluster default flowchart-label" id="核心服务层"><rect style="" rx="0" ry="0" x="392.34375" y="116" width="753.33203125" height="245"></rect><g class="cluster-label" transform="translate(729.009765625, 116.0)"><text x="40.0" y="10.5" text-anchor="middle" dominant-baseline="central" font-family="Microsoft YaHei, SimHei, SimSun, Arial, sans-serif" font-size="16" fill="#333"><tspan x="40.0" y="10.5" text-anchor="middle">核心服务层</tspan></text></g></g><g class="cluster default flowchart-label" id="能力扩展层"><rect style="" rx="0" ry="0" x="583.9453125" y="401" width="591.71875" height="76"></rect><g class="cluster-label" transform="translate(839.8046875, 401.0)"><text x="40.0" y="10.5" text-anchor="middle" dominant-baseline="central" font-family="Microsoft YaHei, SimHei, SimSun, Arial, sans-serif" font-size="16" fill="#333"><tspan x="40.0" y="10.5" text-anchor="middle">能力扩展层</tspan></text></g></g><g class="cluster default flowchart-label" id="交互接入层"><rect style="" rx="0" ry="0" x="535.015625" y="0" width="571.921875" height="76"></rect><g class="cluster-label" transform="translate(780.9765625, 0.0)"><text x="40.0" y="10.5" text-anchor="middle" dominant-baseline="central" font-family="Microsoft YaHei, SimHei, SimSun, Arial, sans-serif" font-size="16" fill="#333"><tspan x="40.0" y="10.5" text-anchor="middle">交互接入层</tspan></text></g></g></g><g class="edgePaths"><path d="M604.422,54.5L604.422,58.083C604.422,61.667,604.422,68.833,604.422,75.75C604.422,82.667,604.422,89.333,604.422,96C604.422,102.667,604.422,109.333,613.229,115.711C622.036,122.089,639.65,128.179,648.457,131.224L657.264,134.268" id="L-A1-C1-0" class=" edge-thickness-normal edge-pattern-solid flowchart-link LS-A1 LE-C1" style="fill:none;" marker-end="url(#mermaid-1770792993373_flowchart-pointEnd)"></path><path d="M719.234,54.5L719.234,58.083C719.234,61.667,719.234,68.833,719.234,75.75C719.234,82.667,719.234,89.333,719.234,96C719.234,102.667,719.234,109.333,718.918,115.124C718.601,120.914,717.968,125.829,717.652,128.286L717.335,130.743" id="L-A2-C1-0" class=" edge-thickness-normal edge-pattern-solid flowchart-link LS-A2 LE-C1" style="fill:none;" marker-end="url(#mermaid-1770792993373_flowchart-pointEnd)"></path><path d="M824.258,54.5L824.258,58.083C824.258,61.667,824.258,68.833,824.258,75.75C824.258,82.667,824.258,89.333,824.258,96C824.258,102.667,824.258,109.333,815.451,115.711C806.644,122.089,789.03,128.179,780.222,131.224L771.415,134.268" id="L-A3-C1-0" class=" edge-thickness-normal edge-pattern-solid flowchart-link LS-A3 LE-C1" style="fill:none;" marker-end="url(#mermaid-1770792993373_flowchart-pointEnd)"></path><path d="M930.602,56L930.602,59.333C930.602,62.667,930.602,69.333,930.602,76C930.602,82.667,930.602,89.333,930.602,96C930.602,102.667,930.602,109.333,904.606,117.234C878.611,125.135,826.621,134.271,800.625,138.839L774.63,143.406" id="L-A4-C1-0" class=" edge-thickness-normal edge-pattern-solid flowchart-link LS-A4 LE-C1" style="fill:none;" marker-end="url(#mermaid-1770792993373_flowchart-pointEnd)"></path><path d="M1042.133,56L1042.133,59.333C1042.133,62.667,1042.133,69.333,1042.133,76C1042.133,82.667,1042.133,89.333,1042.133,96C1042.133,102.667,1042.133,109.333,997.556,117.834C952.98,126.335,863.828,136.67,819.251,141.838L774.675,147.006" id="L-A5-C1-0" class=" edge-thickness-normal edge-pattern-solid flowchart-link LS-A5 LE-C1" style="fill:none;" marker-end="url(#mermaid-1770792993373_flowchart-pointEnd)"></path><path d="M714.34,172L714.34,175.333C714.34,178.667,714.34,185.333,714.34,191.117C714.34,196.9,714.34,201.8,714.34,204.25L714.34,206.7" id="L-C1-C2-0" class=" edge-thickness-normal edge-pattern-solid flowchart-link LS-C1 LE-C2" style="fill:none;" marker-end="url(#mermaid-1770792993373_flowchart-pointEnd)"></path><path d="M674.91,245L666.945,248.333C658.979,251.667,643.048,258.333,635.083,265C627.117,271.667,627.117,278.333,627.117,284.117C627.117,289.9,627.117,294.8,627.117,297.25L627.117,299.7" id="L-C2-C3-0" class=" edge-thickness-normal edge-pattern-solid flowchart-link LS-C2 LE-C3" style="fill:none;" marker-end="url(#mermaid-1770792993373_flowchart-pointEnd)"></path><path d="M771.207,242.769L785.973,246.474C800.74,250.179,830.272,257.59,845.038,264.628C859.805,271.667,859.805,278.333,859.805,284.367C859.805,290.4,859.805,295.8,859.805,298.5L859.805,301.2" id="L-C2-C4-0" class=" edge-thickness-normal edge-pattern-solid flowchart-link LS-C2 LE-C4" style="fill:none;" marker-end="url(#mermaid-1770792993373_flowchart-pointEnd)"></path><path d="M771.207,235.209L813.297,240.174C855.387,245.139,939.566,255.07,981.656,263.368C1023.746,271.667,1023.746,278.333,1023.746,284.117C1023.746,289.9,1023.746,294.8,1023.746,297.25L1023.746,299.7" id="L-C2-C5-0" class=" edge-thickness-normal edge-pattern-solid flowchart-link LS-C2 LE-C5" style="fill:none;" marker-end="url(#mermaid-1770792993373_flowchart-pointEnd)"></path><path d="M797.609,334.112L772.527,338.593C747.445,343.075,697.281,352.037,672.199,359.852C647.117,367.667,647.117,374.333,647.117,381C647.117,387.667,647.117,394.333,647.117,400.117C647.117,405.9,647.117,410.8,647.117,413.25L647.117,415.7" id="L-C4-B1-0" class=" edge-thickness-normal edge-pattern-solid flowchart-link LS-C4 LE-B1" style="fill:none;" marker-end="url(#mermaid-1770792993373_flowchart-pointEnd)"></path><path d="M813.629,339.5L803.601,343.083C793.573,346.667,773.517,353.833,763.489,360.75C753.461,367.667,753.461,374.333,753.461,381C753.461,387.667,753.461,394.333,753.461,400.117C753.461,405.9,753.461,410.8,753.461,413.25L753.461,415.7" id="L-C4-B2-0" class=" edge-thickness-normal edge-pattern-solid flowchart-link LS-C4 LE-B2" style="fill:none;" marker-end="url(#mermaid-1770792993373_flowchart-pointEnd)"></path><path d="M859.805,339.5L859.805,343.083C859.805,346.667,859.805,353.833,859.805,360.75C859.805,367.667,859.805,374.333,859.805,381C859.805,387.667,859.805,394.333,859.805,400.117C859.805,405.9,859.805,410.8,859.805,413.25L859.805,415.7" id="L-C4-B3-0" class=" edge-thickness-normal edge-pattern-solid flowchart-link LS-C4 LE-B3" style="fill:none;" marker-end="url(#mermaid-1770792993373_flowchart-pointEnd)"></path><path d="M909.454,339.5L920.236,343.083C931.019,346.667,952.584,353.833,963.366,360.75C974.148,367.667,974.148,374.333,974.148,381C974.148,387.667,974.148,394.333,974.148,400.117C974.148,405.9,974.148,410.8,974.148,413.25L974.148,415.7" id="L-C4-B4-0" class=" edge-thickness-normal edge-pattern-solid flowchart-link LS-C4 LE-B4" style="fill:none;" marker-end="url(#mermaid-1770792993373_flowchart-pointEnd)"></path><path d="M922,332.819L951.749,337.516C981.497,342.213,1040.995,351.606,1070.743,359.637C1100.492,367.667,1100.492,374.333,1100.492,381C1100.492,387.667,1100.492,394.333,1100.492,400.117C1100.492,405.9,1100.492,410.8,1100.492,413.25L1100.492,415.7" id="L-C4-B5-0" class=" edge-thickness-normal edge-pattern-solid flowchart-link LS-C4 LE-B5" style="fill:none;" marker-end="url(#mermaid-1770792993373_flowchart-pointEnd)"></path><path d="M657.473,235.675L618.734,240.562C579.995,245.45,502.517,255.225,463.778,263.446C425.039,271.667,425.039,278.333,394.795,286.546C364.551,294.759,304.064,304.517,273.82,309.396L243.576,314.276" id="L-C2-D1-0" class=" edge-thickness-normal edge-pattern-solid flowchart-link LS-C2 LE-D1" style="fill:none;" marker-end="url(#mermaid-1770792993373_flowchart-pointEnd)"></path><path d="M627.117,341L627.117,344.333C627.117,347.667,627.117,354.333,534.681,361C442.245,367.667,257.372,374.333,164.936,381C72.5,387.667,72.5,394.333,72.5,400.117C72.5,405.9,72.5,410.8,72.5,413.25L72.5,415.7" id="L-C3-D2-0" class=" edge-thickness-normal edge-pattern-solid flowchart-link LS-C3 LE-D2" style="fill:none;" marker-end="url(#mermaid-1770792993373_flowchart-pointEnd)"></path><path d="M657.473,236.208L622.067,241.006C586.661,245.805,515.85,255.403,480.445,263.535C445.039,271.667,445.039,278.333,429.608,285.941C414.177,293.548,383.314,302.096,367.883,306.371L352.451,310.645" id="L-C2-D3-0" class=" edge-thickness-normal edge-pattern-solid flowchart-link LS-C2 LE-D3" style="fill:none;" marker-end="url(#mermaid-1770792993373_flowchart-pointEnd)"></path><path d="M189.5,341L189.5,344.333C189.5,347.667,189.5,354.333,189.5,361C189.5,367.667,189.5,374.333,189.5,381C189.5,387.667,189.5,394.333,189.5,400.117C189.5,405.9,189.5,410.8,189.5,413.25L189.5,415.7" id="L-D1-D4-0" class=" edge-thickness-normal edge-pattern-solid flowchart-link LS-D1 LE-D4" style="fill:none;" marker-end="url(#mermaid-1770792993373_flowchart-pointEnd)"></path></g><g class="edgeLabels"><g class="edgeLabel"><g class="label" transform="translate(0, 0)"></g></g><g class="edgeLabel"><g class="label" transform="translate(0, 0)"></g></g><g class="edgeLabel"><g class="label" transform="translate(0, 0)"></g></g><g class="edgeLabel"><g class="label" transform="translate(0, 0)"></g></g><g class="edgeLabel"><g class="label" transform="translate(0, 0)"></g></g><g class="edgeLabel"><g class="label" transform="translate(0, 0)"></g></g><g class="edgeLabel"><g class="label" transform="translate(0, 0)"></g></g><g class="edgeLabel"><g class="label" transform="translate(0, 0)"></g></g><g class="edgeLabel"><g class="label" transform="translate(0, 0)"></g></g><g class="edgeLabel"><g class="label" transform="translate(0, 0)"></g></g><g class="edgeLabel"><g class="label" transform="translate(0, 0)"></g></g><g class="edgeLabel"><g class="label" transform="translate(0, 0)"></g></g><g class="edgeLabel"><g class="label" transform="translate(0, 0)"></g></g><g class="edgeLabel"><g class="label" transform="translate(0, 0)"></g></g><g class="edgeLabel"><g class="label" transform="translate(0, 0)"></g></g><g class="edgeLabel"><g class="label" transform="translate(0, 0)"></g></g><g class="edgeLabel"><g class="label" transform="translate(0, 0)"></g></g><g class="edgeLabel"><g class="label" transform="translate(0, 0)"></g></g></g><g class="nodes"><g class="node default default flowchart-label" id="flowchart-D1-15" data-node="true" data-id="D1" transform="translate(189.5, 323)"><rect class="basic label-container" style="fill:#E8F5E9;" rx="0" ry="0" x="-48.84375" y="-18" width="97.6875" height="36"></rect><g class="label" style="" transform="translate(-41.34375, -10.5)"><rect></rect><text x="41.34375" y="10.5" text-anchor="middle" dominant-baseline="central" font-family="Microsoft YaHei, SimHei, SimSun, Arial, sans-serif" font-size="16" fill="#333"><tspan x="41.34375" y="10.5" text-anchor="middle">Docker容器</tspan></text></g></g><g class="node default default flowchart-label" id="flowchart-D2-16" data-node="true" data-id="D2" transform="translate(72.5, 439)"><rect class="basic label-container" style="fill:#E8F5E9;" rx="0" ry="0" x="-47.5" y="-18" width="95" height="36"></rect><g class="label" style="" transform="translate(-40, -10.5)"><rect></rect><text x="40.0" y="10.5" text-anchor="middle" dominant-baseline="central" font-family="Microsoft YaHei, SimHei, SimSun, Arial, sans-serif" font-size="16" fill="#333"><tspan x="40.0" y="10.5" text-anchor="middle">向量数据库</tspan></text></g></g><g class="node default default flowchart-label" id="flowchart-D3-17" data-node="true" data-id="D3" transform="translate(307.84375, 323)"><rect class="basic label-container" style="fill:#E8F5E9;" rx="0" ry="0" x="-39.5" y="-18" width="79" height="36"></rect><g class="label" style="" transform="translate(-32, -10.5)"><rect></rect><text x="32.0" y="10.5" text-anchor="middle" dominant-baseline="central" font-family="Microsoft YaHei, SimHei, SimSun, Arial, sans-serif" font-size="16" fill="#333"><tspan x="32.0" y="10.5" text-anchor="middle">文件系统</tspan></text></g></g><g class="node default default flowchart-label" id="flowchart-D4-18" data-node="true" data-id="D4" transform="translate(189.5, 439)"><rect class="basic label-container" style="fill:#E8F5E9;" rx="0" ry="0" x="-39.5" y="-18" width="79" height="36"></rect><g class="label" style="" transform="translate(-32, -10.5)"><rect></rect><text x="32.0" y="10.5" text-anchor="middle" dominant-baseline="central" font-family="Microsoft YaHei, SimHei, SimSun, Arial, sans-serif" font-size="16" fill="#333"><tspan x="32.0" y="10.5" text-anchor="middle">操作系统</tspan></text></g></g><g class="node default default flowchart-label" id="flowchart-C1-10" data-node="true" data-id="C1" transform="translate(714.33984375, 154)"><rect class="basic label-container" style="fill:#F3E5F5;" rx="0" ry="0" x="-55.0703125" y="-18" width="110.140625" height="36"></rect><g class="label" style="" transform="translate(-47.5703125, -10.5)"><rect></rect><text x="47.5703125" y="10.5" text-anchor="middle" dominant-baseline="central" font-family="Microsoft YaHei, SimHei, SimSun, Arial, sans-serif" font-size="16" fill="#333"><tspan x="47.5703125" y="10.5" text-anchor="middle">Gateway网关</tspan></text></g></g><g class="node default default flowchart-label" id="flowchart-C2-11" data-node="true" data-id="C2" transform="translate(714.33984375, 228.5)"><rect class="basic label-container" style="fill:#F3E5F5;" rx="0" ry="0" x="-56.8671875" y="-16.5" width="113.734375" height="33"></rect><g class="label" style="" transform="translate(-49.3671875, -9)"><rect></rect><text x="49.3671875" y="9.0" text-anchor="middle" dominant-baseline="central" font-family="Microsoft YaHei, SimHei, SimSun, Arial, sans-serif" font-size="16" fill="#333"><tspan x="49.3671875" y="9.0" text-anchor="middle">Agent Runner</tspan></text></g></g><g class="node default default flowchart-label" id="flowchart-C3-12" data-node="true" data-id="C3" transform="translate(627.1171875, 323)"><rect class="basic label-container" style="fill:#F3E5F5;" rx="0" ry="0" x="-60.390625" y="-18" width="120.78125" height="36"></rect><g class="label" style="" transform="translate(-52.890625, -10.5)"><rect></rect><text x="52.890625" y="10.5" text-anchor="middle" dominant-baseline="central" font-family="Microsoft YaHei, SimHei, SimSun, Arial, sans-serif" font-size="16" fill="#333"><tspan x="52.890625" y="10.5" text-anchor="middle">Memory子系统</tspan></text></g></g><g class="node default default flowchart-label" id="flowchart-C4-13" data-node="true" data-id="C4" transform="translate(859.8046875, 323)"><rect class="basic label-container" style="fill:#F3E5F5;" rx="0" ry="0" x="-62.1953125" y="-16.5" width="124.390625" height="33"></rect><g class="label" style="" transform="translate(-54.6953125, -9)"><rect></rect><text x="54.6953125" y="9.0" text-anchor="middle" dominant-baseline="central" font-family="Microsoft YaHei, SimHei, SimSun, Arial, sans-serif" font-size="16" fill="#333"><tspan x="54.6953125" y="9.0" text-anchor="middle">Task Scheduler</tspan></text></g></g><g class="node default default flowchart-label" id="flowchart-C5-14" data-node="true" data-id="C5" transform="translate(1023.74609375, 323)"><rect class="basic label-container" style="fill:#F3E5F5;" rx="0" ry="0" x="-39.0625" y="-18" width="78.125" height="36"></rect><g class="label" style="" transform="translate(-31.5625, -10.5)"><rect></rect><text x="31.5625" y="10.5" text-anchor="middle" dominant-baseline="central" font-family="Microsoft YaHei, SimHei, SimSun, Arial, sans-serif" font-size="16" fill="#333"><tspan x="31.5625" y="10.5" text-anchor="middle">LLM接口</tspan></text></g></g><g class="node default default flowchart-label" id="flowchart-B1-5" data-node="true" data-id="B1" transform="translate(647.1171875, 439)"><rect class="basic label-container" style="fill:#FFF3E0;" rx="0" ry="0" x="-38.171875" y="-18" width="76.34375" height="36"></rect><g class="label" style="" transform="translate(-30.671875, -10.5)"><rect></rect><text x="30.671875" y="10.5" text-anchor="middle" dominant-baseline="central" font-family="Microsoft YaHei, SimHei, SimSun, Arial, sans-serif" font-size="16" fill="#333"><tspan x="30.671875" y="10.5" text-anchor="middle">邮件Skill</tspan></text></g></g><g class="node default default flowchart-label" id="flowchart-B2-6" data-node="true" data-id="B2" transform="translate(753.4609375, 439)"><rect class="basic label-container" style="fill:#FFF3E0;" rx="0" ry="0" x="-38.171875" y="-18" width="76.34375" height="36"></rect><g class="label" style="" transform="translate(-30.671875, -10.5)"><rect></rect><text x="30.671875" y="10.5" text-anchor="middle" dominant-baseline="central" font-family="Microsoft YaHei, SimHei, SimSun, Arial, sans-serif" font-size="16" fill="#333"><tspan x="30.671875" y="10.5" text-anchor="middle">日历Skill</tspan></text></g></g><g class="node default default flowchart-label" id="flowchart-B3-7" data-node="true" data-id="B3" transform="translate(859.8046875, 439)"><rect class="basic label-container" style="fill:#FFF3E0;" rx="0" ry="0" x="-38.171875" y="-18" width="76.34375" height="36"></rect><g class="label" style="" transform="translate(-30.671875, -10.5)"><rect></rect><text x="30.671875" y="10.5" text-anchor="middle" dominant-baseline="central" font-family="Microsoft YaHei, SimHei, SimSun, Arial, sans-serif" font-size="16" fill="#333"><tspan x="30.671875" y="10.5" text-anchor="middle">文件Skill</tspan></text></g></g><g class="node default default flowchart-label" id="flowchart-B4-8" data-node="true" data-id="B4" transform="translate(974.1484375, 439)"><rect class="basic label-container" style="fill:#FFF3E0;" rx="0" ry="0" x="-46.171875" y="-18" width="92.34375" height="36"></rect><g class="label" style="" transform="translate(-38.671875, -10.5)"><rect></rect><text x="38.671875" y="10.5" text-anchor="middle" dominant-baseline="central" font-family="Microsoft YaHei, SimHei, SimSun, Arial, sans-serif" font-size="16" fill="#333"><tspan x="38.671875" y="10.5" text-anchor="middle">浏览器Skill</tspan></text></g></g><g class="node default default flowchart-label" id="flowchart-B5-9" data-node="true" data-id="B5" transform="translate(1100.4921875, 439)"><rect class="basic label-container" style="fill:#FFF3E0;" rx="0" ry="0" x="-50.171875" y="-18" width="100.34375" height="36"></rect><g class="label" style="" transform="translate(-42.671875, -10.5)"><rect></rect><text x="42.671875" y="10.5" text-anchor="middle" dominant-baseline="central" font-family="Microsoft YaHei, SimHei, SimSun, Arial, sans-serif" font-size="16" fill="#333"><tspan x="42.671875" y="10.5" text-anchor="middle">自定义Skills</tspan></text></g></g><g class="node default default flowchart-label" id="flowchart-A1-0" data-node="true" data-id="A1" transform="translate(604.421875, 38)"><rect class="basic label-container" style="fill:#E3F2FD;" rx="0" ry="0" x="-44.40625" y="-16.5" width="88.8125" height="33"></rect><g class="label" style="" transform="translate(-36.90625, -9)"><rect></rect><text x="36.90625" y="9.0" text-anchor="middle" dominant-baseline="central" font-family="Microsoft YaHei, SimHei, SimSun, Arial, sans-serif" font-size="16" fill="#333"><tspan x="36.90625" y="9.0" text-anchor="middle">WhatsApp</tspan></text></g></g><g class="node default default flowchart-label" id="flowchart-A2-1" data-node="true" data-id="A2" transform="translate(719.234375, 38)"><rect class="basic label-container" style="fill:#E3F2FD;" rx="0" ry="0" x="-40.40625" y="-16.5" width="80.8125" height="33"></rect><g class="label" style="" transform="translate(-32.90625, -9)"><rect></rect><text x="32.90625" y="9.0" text-anchor="middle" dominant-baseline="central" font-family="Microsoft YaHei, SimHei, SimSun, Arial, sans-serif" font-size="16" fill="#333"><tspan x="32.90625" y="9.0" text-anchor="middle">Telegram</tspan></text></g></g><g class="node default default flowchart-label" id="flowchart-A3-2" data-node="true" data-id="A3" transform="translate(824.2578125, 38)"><rect class="basic label-container" style="fill:#E3F2FD;" rx="0" ry="0" x="-34.6171875" y="-16.5" width="69.234375" height="33"></rect><g class="label" style="" transform="translate(-27.1171875, -9)"><rect></rect><text x="27.1171875" y="9.0" text-anchor="middle" dominant-baseline="central" font-family="Microsoft YaHei, SimHei, SimSun, Arial, sans-serif" font-size="16" fill="#333"><tspan x="27.1171875" y="9.0" text-anchor="middle">Discord</tspan></text></g></g><g class="node default default flowchart-label" id="flowchart-A4-3" data-node="true" data-id="A4" transform="translate(930.6015625, 38)"><rect class="basic label-container" style="fill:#E3F2FD;" rx="0" ry="0" x="-41.7265625" y="-18" width="83.453125" height="36"></rect><g class="label" style="" transform="translate(-34.2265625, -10.5)"><rect></rect><text x="34.2265625" y="10.5" text-anchor="middle" dominant-baseline="central" font-family="Microsoft YaHei, SimHei, SimSun, Arial, sans-serif" font-size="16" fill="#333"><tspan x="34.2265625" y="10.5" text-anchor="middle">飞书/钉钉</tspan></text></g></g><g class="node default default flowchart-label" id="flowchart-A5-4" data-node="true" data-id="A5" transform="translate(1042.1328125, 38)"><rect class="basic label-container" style="fill:#E3F2FD;" rx="0" ry="0" x="-39.8046875" y="-18" width="79.609375" height="36"></rect><g class="label" style="" transform="translate(-32.3046875, -10.5)"><rect></rect><text x="32.3046875" y="10.5" text-anchor="middle" dominant-baseline="central" font-family="Microsoft YaHei, SimHei, SimSun, Arial, sans-serif" font-size="16" fill="#333"><tspan x="32.3046875" y="10.5" text-anchor="middle">Web界面</tspan></text></g></g></g></g></g></svg>