<svg width="900" height="600" xmlns="http://www.w3.org/2000/svg">
  <!-- Background -->
  <rect width="900" height="600" fill="#f8f9fa"/>
  
  <!-- Title -->
  <text x="450" y="40" font-family="Noto Sans CJK SC, Arial" font-size="26" font-weight="bold" text-anchor="middle" fill="#1a1a1a">OpenClaw驱动的机器狗系统架构</text>
  
  <!-- Robot Dog -->
  <rect x="380" y="250" width="140" height="100" rx="10" fill="#4CAF50" stroke="#388E3C" stroke-width="3"/>
  <text x="450" y="295" font-family="Noto Sans CJK SC, Arial" font-size="16" font-weight="bold" text-anchor="middle" fill="white">机器狗平台</text>
  <text x="450" y="315" font-family="Noto Sans CJK SC, Arial" font-size="12" text-anchor="middle" fill="white">四足移动底盘</text>
  <text x="450" y="335" font-family="Noto Sans CJK SC, Arial" font-size="12" text-anchor="middle" fill="white">运动控制系统</text>
  
  <!-- Sensors -->
  <rect x="200" y="120" width="150" height="80" rx="10" fill="#2196F3" stroke="#1976D2" stroke-width="2"/>
  <text x="275" y="150" font-family="Noto Sans CJK SC, Arial" font-size="14" font-weight="bold" text-anchor="middle" fill="white">视觉传感器</text>
  <text x="275" y="170" font-family="Noto Sans CJK SC, Arial" font-size="11" text-anchor="middle" fill="white">RGB摄像头</text>
  <text x="275" y="185" font-family="Noto Sans CJK SC, Arial" font-size="11" text-anchor="middle" fill="white">深度相机</text>
  
  <rect x="550" y="120" width="150" height="80" rx="10" fill="#9C27B0" stroke="#7B1FA2" stroke-width="2"/>
  <text x="625" y="150" font-family="Noto Sans CJK SC, Arial" font-size="14" font-weight="bold" text-anchor="middle" fill="white">其他传感器</text>
  <text x="625" y="170" font-family="Noto Sans CJK SC, Arial" font-size="11" text-anchor="middle" fill="white">激光雷达</text>
  <text x="625" y="185" font-family="Noto Sans CJK SC, Arial" font-size="11" text-anchor="middle" fill="white">IMU/触觉</text>
  
  <!-- OpenClaw Core -->
  <rect x="350" y="400" width="200" height="120" rx="10" fill="#FF9800" stroke="#F57C00" stroke-width="3"/>
  <text x="450" y="440" font-family="Noto Sans CJK SC, Arial" font-size="16" font-weight="bold" text-anchor="middle" fill="white">OpenClaw智能体</text>
  <text x="450" y="465" font-family="Noto Sans CJK SC, Arial" font-size="12" text-anchor="middle" fill="white">任务理解与规划</text>
  <text x="450" y="485" font-family="Noto Sans CJK SC, Arial" font-size="12" text-anchor="middle" fill="white">多模态感知融合</text>
  <text x="450" y="505" font-family="Noto Sans CJK SC, Arial" font-size="12" text-anchor="middle" fill="white">Skills调度执行</text>
  
  <!-- Skills -->
  <rect x="80" y="420" width="150" height="80" rx="10" fill="#F44336" stroke="#D32F2F" stroke-width="2"/>
  <text x="155" y="450" font-family="Noto Sans CJK SC, Arial" font-size="13" font-weight="bold" text-anchor="middle" fill="white">视觉Skills</text>
  <text x="155" y="470" font-family="Noto Sans CJK SC, Arial" font-size="11" text-anchor="middle" fill="white">物体识别</text>
  <text x="155" y="485" font-family="Noto Sans CJK SC, Arial" font-size="11" text-anchor="middle" fill="white">场景理解</text>
  
  <rect x="670" y="420" width="150" height="80" rx="10" fill="#00BCD4" stroke="#0097A7" stroke-width="2"/>
  <text x="745" y="450" font-family="Noto Sans CJK SC, Arial" font-size="13" font-weight="bold" text-anchor="middle" fill="white">运动Skills</text>
  <text x="745" y="470" font-family="Noto Sans CJK SC, Arial" font-size="11" text-anchor="middle" fill="white">路径规划</text>
  <text x="745" y="485" font-family="Noto Sans CJK SC, Arial" font-size="11" text-anchor="middle" fill="white">步态控制</text>
  
  <!-- User Interface -->
  <rect x="350" y="80" width="200" height="60" rx="10" fill="#607D8B" stroke="#455A64" stroke-width="2"/>
  <text x="450" y="110" font-family="Noto Sans CJK SC, Arial" font-size="14" font-weight="bold" text-anchor="middle" fill="white">用户交互界面</text>
  <text x="450" y="130" font-family="Noto Sans CJK SC, Arial" font-size="11" text-anchor="middle" fill="white">自然语言指令输入</text>
  
  <!-- Connection lines -->
  <line x1="275" y1="200" x2="400" y2="250" stroke="#2196F3" stroke-width="3" fill="none"/>
  <line x1="625" y1="200" x2="500" y2="250" stroke="#9C27B0" stroke-width="3" fill="none"/>
  <line x1="450" y1="350" x2="450" y2="400" stroke="#FF9800" stroke-width="4" fill="none"/>
  <line x1="450" y1="140" x2="450" y2="250" stroke="#607D8B" stroke-width="3" fill="none"/>
  <line x1="230" y1="460" x2="350" y2="460" stroke="#F44336" stroke-width="2" fill="none"/>
  <line x1="550" y1="460" x2="670" y2="460" stroke="#00BCD4" stroke-width="2" fill="none"/>
  
  <!-- Data flow arrows -->
  <polygon points="395,245 405,250 395,255" fill="#2196F3"/>
  <polygon points="505,245 495,250 505,255" fill="#9C27B0"/>
  <polygon points="445,395 455,400 445,405" fill="#FF9800"/>
  <polygon points="445,145 455,140 445,135" fill="#607D8B"/>
  <polygon points="225,455 235,460 225,465" fill="#F44336"/>
  <polygon points="675,455 665,460 675,465" fill="#00BCD4"/>
  
  <!-- Application scenarios -->
  <rect x="80" y="250" width="180" height="120" rx="10" fill="white" stroke="#e0e0e0" stroke-width="2"/>
  <text x="170" y="280" font-family="Noto Sans CJK SC, Arial" font-size="14" font-weight="bold" text-anchor="middle" fill="#333">应用场景</text>
  <text x="90" y="305" font-family="Noto Sans CJK SC, Arial" font-size="11" fill="#666">• 工业巡检</text>
  <text x="90" y="325" font-family="Noto Sans CJK SC, Arial" font-size="11" fill="#666">• 安防巡逻</text>
  <text x="90" y="345" font-family="Noto Sans CJK SC, Arial" font-size="11" fill="#666">• 物流配送</text>
  <text x="90" y="365" font-family="Noto Sans CJK SC, Arial" font-size="11" fill="#666">• 救援探测</text>
  
  <!-- Legend -->
  <rect x="670" y="250" width="150" height="100" rx="5" fill="white" stroke="#e0e0e0" stroke-width="1"/>
  <text x="745" y="275" font-family="Noto Sans CJK SC, Arial" font-size="12" font-weight="bold" text-anchor="middle" fill="#333">数据流向</text>
  <line x1="690" y1="295" x2="730" y2="295" stroke="#2196F3" stroke-width="2"/>
  <text x="740" y="300" font-family="Noto Sans CJK SC, Arial" font-size="10" fill="#666">感知数据</text>
  <line x1="690" y1="315" x2="730" y2="315" stroke="#FF9800" stroke-width="2"/>
  <text x="740" y="320" font-family="Noto Sans CJK SC, Arial" font-size="10" fill="#666">决策控制</text>
  <line x1="690" y1="335" x2="730" y2="335" stroke="#00BCD4" stroke-width="2"/>
  <text x="740" y="340" font-family="Noto Sans CJK SC, Arial" font-size="10" fill="#666">执行命令</text>
  
  <!-- Data source -->
  <text x="850" y="590" font-family="Noto Sans CJK SC, Arial" font-size="10" text-anchor="end" fill="#999">数据来源: 综合行业技术报告及最佳实践</text>
</svg>