<?xml version="1.0" encoding="UTF-8"?>
<svg id="mermaid-1770792675784" width="1526" xmlns="http://www.w3.org/2000/svg" xmlns:xlink="http://www.w3.org/1999/xlink" height="228" viewBox="-20 -20 1526 228" role="graphics-document document" aria-roledescription="flowchart-v2"><style>#mermaid-1770792675784{font-family:Microsoft YaHei,SimHei,SimSun,Arial,sans-serif;font-size:16px;fill:#333;}#mermaid-1770792675784 .error-icon{fill:#552222;}#mermaid-1770792675784 .error-text{fill:#552222;stroke:#552222;}#mermaid-1770792675784 .edge-thickness-normal{stroke-width:2px;}#mermaid-1770792675784 .edge-thickness-thick{stroke-width:3.5px;}#mermaid-1770792675784 .edge-pattern-solid{stroke-dasharray:0;}#mermaid-1770792675784 .edge-pattern-dashed{stroke-dasharray:3;}#mermaid-1770792675784 .edge-pattern-dotted{stroke-dasharray:2;}#mermaid-1770792675784 .marker{fill:#333333;stroke:#333333;}#mermaid-1770792675784 .marker.cross{stroke:#333333;}#mermaid-1770792675784 svg{font-family:Microsoft YaHei,SimHei,SimSun,Arial,sans-serif;font-size:16px;}#mermaid-1770792675784 .label{font-family:Microsoft YaHei,SimHei,SimSun,Arial,sans-serif;color:#333;}#mermaid-1770792675784 .cluster-label text{fill:#333;}#mermaid-1770792675784 .cluster-label span,#mermaid-1770792675784 p{color:#333;}#mermaid-1770792675784 .label text,#mermaid-1770792675784 span,#mermaid-1770792675784 p{fill:#333;color:#333;}#mermaid-1770792675784 .node rect,#mermaid-1770792675784 .node circle,#mermaid-1770792675784 .node ellipse,#mermaid-1770792675784 .node polygon,#mermaid-1770792675784 .node path{fill:#ECECFF;stroke:#9370DB;stroke-width:1px;}#mermaid-1770792675784 .flowchart-label text{text-anchor:middle;}#mermaid-1770792675784 .node .katex path{fill:#000;stroke:#000;stroke-width:1px;}#mermaid-1770792675784 .node .label{text-align:center;}#mermaid-1770792675784 .node.clickable{cursor:pointer;}#mermaid-1770792675784 .arrowheadPath{fill:#333333;}#mermaid-1770792675784 .edgePath .path{stroke:#333333;stroke-width:2.0px;}#mermaid-1770792675784 .flowchart-link{stroke:#333333;fill:none;}#mermaid-1770792675784 .edgeLabel{background-color:#e8e8e8;text-align:center;}#mermaid-1770792675784 .edgeLabel rect{opacity:0.5;background-color:#e8e8e8;fill:#e8e8e8;}#mermaid-1770792675784 .labelBkg{background-color:rgba(232, 232, 232, 0.5);}#mermaid-1770792675784 .cluster rect{fill:#ffffde;stroke:#aaaa33;stroke-width:1px;}#mermaid-1770792675784 .cluster text{fill:#333;}#mermaid-1770792675784 .cluster span,#mermaid-1770792675784 p{color:#333;}#mermaid-1770792675784 div.mermaidTooltip{position:absolute;text-align:center;max-width:200px;padding:2px;font-family:Microsoft YaHei,SimHei,SimSun,Arial,sans-serif;font-size:12px;background:#F9FFEC;border:1px solid #aaaa33;border-radius:2px;pointer-events:none;z-index:100;}#mermaid-1770792675784 .flowchartTitleText{text-anchor:middle;font-size:18px;fill:#333;}#mermaid-1770792675784 :root{--mermaid-font-family:Microsoft YaHei,SimHei,SimSun,Arial,sans-serif;}</style><g><marker id="mermaid-1770792675784_flowchart-pointEnd" class="marker flowchart" viewBox="0 0 10 10" refX="6" refY="5" markerUnits="userSpaceOnUse" markerWidth="12" markerHeight="12" orient="auto"><path d="M 0 0 L 10 5 L 0 10 z" class="arrowMarkerPath" style="stroke-width: 1; stroke-dasharray: 1, 0;"></path></marker><marker id="mermaid-1770792675784_flowchart-pointStart" class="marker flowchart" viewBox="0 0 10 10" refX="4.5" refY="5" markerUnits="userSpaceOnUse" markerWidth="12" markerHeight="12" orient="auto"><path d="M 0 5 L 10 10 L 10 0 z" class="arrowMarkerPath" style="stroke-width: 1; stroke-dasharray: 1, 0;"></path></marker><marker id="mermaid-1770792675784_flowchart-circleEnd" class="marker flowchart" viewBox="0 0 10 10" refX="11" refY="5" markerUnits="userSpaceOnUse" markerWidth="11" markerHeight="11" orient="auto"><circle cx="5" cy="5" r="5" class="arrowMarkerPath" style="stroke-width: 1; stroke-dasharray: 1, 0;"></circle></marker><marker id="mermaid-1770792675784_flowchart-circleStart" class="marker flowchart" viewBox="0 0 10 10" refX="-1" refY="5" markerUnits="userSpaceOnUse" markerWidth="11" markerHeight="11" orient="auto"><circle cx="5" cy="5" r="5" class="arrowMarkerPath" style="stroke-width: 1; stroke-dasharray: 1, 0;"></circle></marker><marker id="mermaid-1770792675784_flowchart-crossEnd" class="marker cross flowchart" viewBox="0 0 11 11" refX="12" refY="5.2" markerUnits="userSpaceOnUse" markerWidth="11" markerHeight="11" orient="auto"><path d="M 1,1 l 9,9 M 10,1 l -9,9" class="arrowMarkerPath" style="stroke-width: 2; stroke-dasharray: 1, 0;"></path></marker><marker id="mermaid-1770792675784_flowchart-crossStart" class="marker cross flowchart" viewBox="0 0 11 11" refX="-1" refY="5.2" markerUnits="userSpaceOnUse" markerWidth="11" markerHeight="11" orient="auto"><path d="M 1,1 l 9,9 M 10,1 l -9,9" class="arrowMarkerPath" style="stroke-width: 2; stroke-dasharray: 1, 0;"></path></marker><g class="root"><g class="clusters"></g><g class="edgePaths"><path d="M666.148,23.192L585.207,28.66C504.266,34.128,342.383,45.064,261.441,52.982C180.5,60.9,180.5,65.8,180.5,68.25L180.5,70.7" id="L-A-B-0" class=" edge-thickness-normal edge-pattern-solid flowchart-link LS-A LE-B" style="fill:none;" marker-end="url(#mermaid-1770792675784_flowchart-pointEnd)"></path><path d="M666.148,32.351L645.04,36.292C623.932,40.234,581.716,48.117,560.608,54.508C539.5,60.9,539.5,65.8,539.5,68.25L539.5,70.7" id="L-A-C-0" class=" edge-thickness-normal edge-pattern-solid flowchart-link LS-A LE-C" style="fill:none;" marker-end="url(#mermaid-1770792675784_flowchart-pointEnd)"></path><path d="M819.852,32.351L840.96,36.292C862.068,40.234,904.284,48.117,925.392,54.508C946.5,60.9,946.5,65.8,946.5,68.25L946.5,70.7" id="L-A-D-0" class=" edge-thickness-normal edge-pattern-solid flowchart-link LS-A LE-D" style="fill:none;" marker-end="url(#mermaid-1770792675784_flowchart-pointEnd)"></path><path d="M819.852,22.912L906.126,28.427C992.401,33.942,1164.951,44.971,1251.225,52.935C1337.5,60.9,1337.5,65.8,1337.5,68.25L1337.5,70.7" id="L-A-E-0" class=" edge-thickness-normal edge-pattern-solid flowchart-link LS-A LE-E" style="fill:none;" marker-end="url(#mermaid-1770792675784_flowchart-pointEnd)"></path><path d="M125,110.872L113.417,114.393C101.833,117.915,78.667,124.957,67.083,130.929C55.5,136.9,55.5,141.8,55.5,144.25L55.5,146.7" id="L-B-B1-0" class=" edge-thickness-normal edge-pattern-solid flowchart-link LS-B LE-B1" style="fill:none;" marker-end="url(#mermaid-1770792675784_flowchart-pointEnd)"></path><path d="M180.5,112L180.5,115.333C180.5,118.667,180.5,125.333,180.5,131.117C180.5,136.9,180.5,141.8,180.5,144.25L180.5,146.7" id="L-B-B2-0" class=" edge-thickness-normal edge-pattern-solid flowchart-link LS-B LE-B2" style="fill:none;" marker-end="url(#mermaid-1770792675784_flowchart-pointEnd)"></path><path d="M232.132,112L241.693,115.333C251.254,118.667,270.377,125.333,279.939,131.117C289.5,136.9,289.5,141.8,289.5,144.25L289.5,146.7" id="L-B-B3-0" class=" edge-thickness-normal edge-pattern-solid flowchart-link LS-B LE-B3" style="fill:none;" marker-end="url(#mermaid-1770792675784_flowchart-pointEnd)"></path><path d="M500,105.286L484.417,109.738C468.833,114.19,437.667,123.095,422.083,129.998C406.5,136.9,406.5,141.8,406.5,144.25L406.5,146.7" id="L-C-C1-0" class=" edge-thickness-normal edge-pattern-solid flowchart-link LS-C LE-C1" style="fill:none;" marker-end="url(#mermaid-1770792675784_flowchart-pointEnd)"></path><path d="M539.5,112L539.5,115.333C539.5,118.667,539.5,125.333,539.5,131.117C539.5,136.9,539.5,141.8,539.5,144.25L539.5,146.7" id="L-C-C2-0" class=" edge-thickness-normal edge-pattern-solid flowchart-link LS-C LE-C2" style="fill:none;" marker-end="url(#mermaid-1770792675784_flowchart-pointEnd)"></path><path d="M579,106.008L593.25,110.34C607.5,114.672,636,123.336,650.25,130.118C664.5,136.9,664.5,141.8,664.5,144.25L664.5,146.7" id="L-C-C3-0" class=" edge-thickness-normal edge-pattern-solid flowchart-link LS-C LE-C3" style="fill:none;" marker-end="url(#mermaid-1770792675784_flowchart-pointEnd)"></path><path d="M907,104.074L888.75,108.728C870.5,113.383,834,122.691,815.75,129.796C797.5,136.9,797.5,141.8,797.5,144.25L797.5,146.7" id="L-D-D1-0" class=" edge-thickness-normal edge-pattern-solid flowchart-link LS-D LE-D1" style="fill:none;" marker-end="url(#mermaid-1770792675784_flowchart-pointEnd)"></path><path d="M946.5,112L946.5,115.333C946.5,118.667,946.5,125.333,946.5,131.117C946.5,136.9,946.5,141.8,946.5,144.25L946.5,146.7" id="L-D-D2-0" class=" edge-thickness-normal edge-pattern-solid flowchart-link LS-D LE-D2" style="fill:none;" marker-end="url(#mermaid-1770792675784_flowchart-pointEnd)"></path><path d="M986,105.286L1001.583,109.738C1017.167,114.19,1048.333,123.095,1063.917,129.998C1079.5,136.9,1079.5,141.8,1079.5,144.25L1079.5,146.7" id="L-D-D3-0" class=" edge-thickness-normal edge-pattern-solid flowchart-link LS-D LE-D3" style="fill:none;" marker-end="url(#mermaid-1770792675784_flowchart-pointEnd)"></path><path d="M1298,106.008L1283.75,110.34C1269.5,114.672,1241,123.336,1226.75,130.118C1212.5,136.9,1212.5,141.8,1212.5,144.25L1212.5,146.7" id="L-E-E1-0" class=" edge-thickness-normal edge-pattern-solid flowchart-link LS-E LE-E1" style="fill:none;" marker-end="url(#mermaid-1770792675784_flowchart-pointEnd)"></path><path d="M1337.5,112L1337.5,115.333C1337.5,118.667,1337.5,125.333,1337.5,131.117C1337.5,136.9,1337.5,141.8,1337.5,144.25L1337.5,146.7" id="L-E-E2-0" class=" edge-thickness-normal edge-pattern-solid flowchart-link LS-E LE-E2" style="fill:none;" marker-end="url(#mermaid-1770792675784_flowchart-pointEnd)"></path><path d="M1377,107.771L1388.583,111.809C1400.167,115.847,1423.333,123.924,1434.917,130.412C1446.5,136.9,1446.5,141.8,1446.5,144.25L1446.5,146.7" id="L-E-E3-0" class=" edge-thickness-normal edge-pattern-solid flowchart-link LS-E LE-E3" style="fill:none;" marker-end="url(#mermaid-1770792675784_flowchart-pointEnd)"></path></g><g class="edgeLabels"><g class="edgeLabel"><g class="label" transform="translate(0, 0)"></g></g><g class="edgeLabel"><g class="label" transform="translate(0, 0)"></g></g><g class="edgeLabel"><g class="label" transform="translate(0, 0)"></g></g><g class="edgeLabel"><g class="label" transform="translate(0, 0)"></g></g><g class="edgeLabel"><g class="label" transform="translate(0, 0)"></g></g><g class="edgeLabel"><g class="label" transform="translate(0, 0)"></g></g><g class="edgeLabel"><g class="label" transform="translate(0, 0)"></g></g><g class="edgeLabel"><g class="label" transform="translate(0, 0)"></g></g><g class="edgeLabel"><g class="label" transform="translate(0, 0)"></g></g><g class="edgeLabel"><g class="label" transform="translate(0, 0)"></g></g><g class="edgeLabel"><g class="label" transform="translate(0, 0)"></g></g><g class="edgeLabel"><g class="label" transform="translate(0, 0)"></g></g><g class="edgeLabel"><g class="label" transform="translate(0, 0)"></g></g><g class="edgeLabel"><g class="label" transform="translate(0, 0)"></g></g><g class="edgeLabel"><g class="label" transform="translate(0, 0)"></g></g><g class="edgeLabel"><g class="label" transform="translate(0, 0)"></g></g></g><g class="nodes"><g class="node default default flowchart-label" id="flowchart-A-74" data-node="true" data-id="A" transform="translate(743, 18)"><rect class="basic label-container" style="fill:#e1f5ff;" rx="0" ry="0" x="-76.8515625" y="-18" width="153.703125" height="36"></rect><g class="label" style="" transform="translate(-69.3515625, -10.5)"><rect></rect><text x="69.3515625" y="10.5" text-anchor="middle" dominant-baseline="central" font-family="Microsoft YaHei, SimHei, SimSun, Arial, sans-serif" font-size="16" fill="#333"><tspan x="69.3515625" y="10.5" text-anchor="middle">OpenClaw医疗应用</tspan></text></g></g><g class="node default default flowchart-label" id="flowchart-B-75" data-node="true" data-id="B" transform="translate(180.5, 94)"><rect class="basic label-container" style="fill:#ffe1e1;" rx="0" ry="0" x="-55.5" y="-18" width="111" height="36"></rect><g class="label" style="" transform="translate(-48, -10.5)"><rect></rect><text x="48.0" y="10.5" text-anchor="middle" dominant-baseline="central" font-family="Microsoft YaHei, SimHei, SimSun, Arial, sans-serif" font-size="16" fill="#333"><tspan x="48.0" y="10.5" text-anchor="middle">疾病诊断辅助</tspan></text></g></g><g class="node default default flowchart-label" id="flowchart-C-77" data-node="true" data-id="C" transform="translate(539.5, 94)"><rect class="basic label-container" style="fill:#ffe1e1;" rx="0" ry="0" x="-39.5" y="-18" width="79" height="36"></rect><g class="label" style="" transform="translate(-32, -10.5)"><rect></rect><text x="32.0" y="10.5" text-anchor="middle" dominant-baseline="central" font-family="Microsoft YaHei, SimHei, SimSun, Arial, sans-serif" font-size="16" fill="#333"><tspan x="32.0" y="10.5" text-anchor="middle">药物研发</tspan></text></g></g><g class="node default default flowchart-label" id="flowchart-D-79" data-node="true" data-id="D" transform="translate(946.5, 94)"><rect class="basic label-container" style="fill:#ffe1e1;" rx="0" ry="0" x="-39.5" y="-18" width="79" height="36"></rect><g class="label" style="" transform="translate(-32, -10.5)"><rect></rect><text x="32.0" y="10.5" text-anchor="middle" dominant-baseline="central" font-family="Microsoft YaHei, SimHei, SimSun, Arial, sans-serif" font-size="16" fill="#333"><tspan x="32.0" y="10.5" text-anchor="middle">健康管理</tspan></text></g></g><g class="node default default flowchart-label" id="flowchart-E-81" data-node="true" data-id="E" transform="translate(1337.5, 94)"><rect class="basic label-container" style="fill:#ffe1e1;" rx="0" ry="0" x="-39.5" y="-18" width="79" height="36"></rect><g class="label" style="" transform="translate(-32, -10.5)"><rect></rect><text x="32.0" y="10.5" text-anchor="middle" dominant-baseline="central" font-family="Microsoft YaHei, SimHei, SimSun, Arial, sans-serif" font-size="16" fill="#333"><tspan x="32.0" y="10.5" text-anchor="middle">患者管理</tspan></text></g></g><g class="node default default flowchart-label" id="flowchart-B1-83" data-node="true" data-id="B1" transform="translate(55.5, 170)"><rect class="basic label-container" style="" rx="0" ry="0" x="-55.5" y="-18" width="111" height="36"></rect><g class="label" style="" transform="translate(-48, -10.5)"><rect></rect><text x="48.0" y="10.5" text-anchor="middle" dominant-baseline="central" font-family="Microsoft YaHei, SimHei, SimSun, Arial, sans-serif" font-size="16" fill="#333"><tspan x="48.0" y="10.5" text-anchor="middle">医学影像分析</tspan></text></g></g><g class="node default default flowchart-label" id="flowchart-B2-85" data-node="true" data-id="B2" transform="translate(180.5, 170)"><rect class="basic label-container" style="" rx="0" ry="0" x="-39.5" y="-18" width="79" height="36"></rect><g class="label" style="" transform="translate(-32, -10.5)"><rect></rect><text x="32.0" y="10.5" text-anchor="middle" dominant-baseline="central" font-family="Microsoft YaHei, SimHei, SimSun, Arial, sans-serif" font-size="16" fill="#333"><tspan x="32.0" y="10.5" text-anchor="middle">症状识别</tspan></text></g></g><g class="node default default flowchart-label" id="flowchart-B3-87" data-node="true" data-id="B3" transform="translate(289.5, 170)"><rect class="basic label-container" style="" rx="0" ry="0" x="-39.5" y="-18" width="79" height="36"></rect><g class="label" style="" transform="translate(-32, -10.5)"><rect></rect><text x="32.0" y="10.5" text-anchor="middle" dominant-baseline="central" font-family="Microsoft YaHei, SimHei, SimSun, Arial, sans-serif" font-size="16" fill="#333"><tspan x="32.0" y="10.5" text-anchor="middle">诊断建议</tspan></text></g></g><g class="node default default flowchart-label" id="flowchart-C1-89" data-node="true" data-id="C1" transform="translate(406.5, 170)"><rect class="basic label-container" style="" rx="0" ry="0" x="-47.5" y="-18" width="95" height="36"></rect><g class="label" style="" transform="translate(-40, -10.5)"><rect></rect><text x="40.0" y="10.5" text-anchor="middle" dominant-baseline="central" font-family="Microsoft YaHei, SimHei, SimSun, Arial, sans-serif" font-size="16" fill="#333"><tspan x="40.0" y="10.5" text-anchor="middle">化合物筛选</tspan></text></g></g><g class="node default default flowchart-label" id="flowchart-C2-91" data-node="true" data-id="C2" transform="translate(539.5, 170)"><rect class="basic label-container" style="" rx="0" ry="0" x="-55.5" y="-18" width="111" height="36"></rect><g class="label" style="" transform="translate(-48, -10.5)"><rect></rect><text x="48.0" y="10.5" text-anchor="middle" dominant-baseline="central" font-family="Microsoft YaHei, SimHei, SimSun, Arial, sans-serif" font-size="16" fill="#333"><tspan x="48.0" y="10.5" text-anchor="middle">临床试验设计</tspan></text></g></g><g class="node default default flowchart-label" id="flowchart-C3-93" data-node="true" data-id="C3" transform="translate(664.5, 170)"><rect class="basic label-container" style="" rx="0" ry="0" x="-39.5" y="-18" width="79" height="36"></rect><g class="label" style="" transform="translate(-32, -10.5)"><rect></rect><text x="32.0" y="10.5" text-anchor="middle" dominant-baseline="central" font-family="Microsoft YaHei, SimHei, SimSun, Arial, sans-serif" font-size="16" fill="#333"><tspan x="32.0" y="10.5" text-anchor="middle">药效预测</tspan></text></g></g><g class="node default default flowchart-label" id="flowchart-D1-95" data-node="true" data-id="D1" transform="translate(797.5, 170)"><rect class="basic label-container" style="" rx="0" ry="0" x="-63.5" y="-18" width="127" height="36"></rect><g class="label" style="" transform="translate(-56, -10.5)"><rect></rect><text x="56.0" y="10.5" text-anchor="middle" dominant-baseline="central" font-family="Microsoft YaHei, SimHei, SimSun, Arial, sans-serif" font-size="16" fill="#333"><tspan x="56.0" y="10.5" text-anchor="middle">可穿戴设备监测</tspan></text></g></g><g class="node default default flowchart-label" id="flowchart-D2-97" data-node="true" data-id="D2" transform="translate(946.5, 170)"><rect class="basic label-container" style="" rx="0" ry="0" x="-55.5" y="-18" width="111" height="36"></rect><g class="label" style="" transform="translate(-48, -10.5)"><rect></rect><text x="48.0" y="10.5" text-anchor="middle" dominant-baseline="central" font-family="Microsoft YaHei, SimHei, SimSun, Arial, sans-serif" font-size="16" fill="#333"><tspan x="48.0" y="10.5" text-anchor="middle">健康数据分析</tspan></text></g></g><g class="node default default flowchart-label" id="flowchart-D3-99" data-node="true" data-id="D3" transform="translate(1079.5, 170)"><rect class="basic label-container" style="" rx="0" ry="0" x="-47.5" y="-18" width="95" height="36"></rect><g class="label" style="" transform="translate(-40, -10.5)"><rect></rect><text x="40.0" y="10.5" text-anchor="middle" dominant-baseline="central" font-family="Microsoft YaHei, SimHei, SimSun, Arial, sans-serif" font-size="16" fill="#333"><tspan x="40.0" y="10.5" text-anchor="middle">个性化建议</tspan></text></g></g><g class="node default default flowchart-label" id="flowchart-E1-101" data-node="true" data-id="E1" transform="translate(1212.5, 170)"><rect class="basic label-container" style="" rx="0" ry="0" x="-55.5" y="-18" width="111" height="36"></rect><g class="label" style="" transform="translate(-48, -10.5)"><rect></rect><text x="48.0" y="10.5" text-anchor="middle" dominant-baseline="central" font-family="Microsoft YaHei, SimHei, SimSun, Arial, sans-serif" font-size="16" fill="#333"><tspan x="48.0" y="10.5" text-anchor="middle">电子病历管理</tspan></text></g></g><g class="node default default flowchart-label" id="flowchart-E2-103" data-node="true" data-id="E2" transform="translate(1337.5, 170)"><rect class="basic label-container" style="" rx="0" ry="0" x="-39.5" y="-18" width="79" height="36"></rect><g class="label" style="" transform="translate(-32, -10.5)"><rect></rect><text x="32.0" y="10.5" text-anchor="middle" dominant-baseline="central" font-family="Microsoft YaHei, SimHei, SimSun, Arial, sans-serif" font-size="16" fill="#333"><tspan x="32.0" y="10.5" text-anchor="middle">随访计划</tspan></text></g></g><g class="node default default flowchart-label" id="flowchart-E3-105" data-node="true" data-id="E3" transform="translate(1446.5, 170)"><rect class="basic label-container" style="" rx="0" ry="0" x="-39.5" y="-18" width="79" height="36"></rect><g class="label" style="" transform="translate(-32, -10.5)"><rect></rect><text x="32.0" y="10.5" text-anchor="middle" dominant-baseline="central" font-family="Microsoft YaHei, SimHei, SimSun, Arial, sans-serif" font-size="16" fill="#333"><tspan x="32.0" y="10.5" text-anchor="middle">用药提醒</tspan></text></g></g></g></g></g></svg>