<?xml version="1.0" encoding="UTF-8"?>
<svg id="mermaid-1770792285181" width="934.578125" xmlns="http://www.w3.org/2000/svg" xmlns:xlink="http://www.w3.org/1999/xlink" height="142" viewBox="-20 -20 934.578125 142" role="graphics-document document" aria-roledescription="flowchart-v2"><style>#mermaid-1770792285181{font-family:Microsoft YaHei,SimHei,SimSun,Arial,sans-serif;font-size:16px;fill:#333;}#mermaid-1770792285181 .error-icon{fill:#552222;}#mermaid-1770792285181 .error-text{fill:#552222;stroke:#552222;}#mermaid-1770792285181 .edge-thickness-normal{stroke-width:2px;}#mermaid-1770792285181 .edge-thickness-thick{stroke-width:3.5px;}#mermaid-1770792285181 .edge-pattern-solid{stroke-dasharray:0;}#mermaid-1770792285181 .edge-pattern-dashed{stroke-dasharray:3;}#mermaid-1770792285181 .edge-pattern-dotted{stroke-dasharray:2;}#mermaid-1770792285181 .marker{fill:#333333;stroke:#333333;}#mermaid-1770792285181 .marker.cross{stroke:#333333;}#mermaid-1770792285181 svg{font-family:Microsoft YaHei,SimHei,SimSun,Arial,sans-serif;font-size:16px;}#mermaid-1770792285181 .label{font-family:Microsoft YaHei,SimHei,SimSun,Arial,sans-serif;color:#333;}#mermaid-1770792285181 .cluster-label text{fill:#333;}#mermaid-1770792285181 .cluster-label span,#mermaid-1770792285181 p{color:#333;}#mermaid-1770792285181 .label text,#mermaid-1770792285181 span,#mermaid-1770792285181 p{fill:#333;color:#333;}#mermaid-1770792285181 .node rect,#mermaid-1770792285181 .node circle,#mermaid-1770792285181 .node ellipse,#mermaid-1770792285181 .node polygon,#mermaid-1770792285181 .node path{fill:#ECECFF;stroke:#9370DB;stroke-width:1px;}#mermaid-1770792285181 .flowchart-label text{text-anchor:middle;}#mermaid-1770792285181 .node .katex path{fill:#000;stroke:#000;stroke-width:1px;}#mermaid-1770792285181 .node .label{text-align:center;}#mermaid-1770792285181 .node.clickable{cursor:pointer;}#mermaid-1770792285181 .arrowheadPath{fill:#333333;}#mermaid-1770792285181 .edgePath .path{stroke:#333333;stroke-width:2.0px;}#mermaid-1770792285181 .flowchart-link{stroke:#333333;fill:none;}#mermaid-1770792285181 .edgeLabel{background-color:#e8e8e8;text-align:center;}#mermaid-1770792285181 .edgeLabel rect{opacity:0.5;background-color:#e8e8e8;fill:#e8e8e8;}#mermaid-1770792285181 .labelBkg{background-color:rgba(232, 232, 232, 0.5);}#mermaid-1770792285181 .cluster rect{fill:#ffffde;stroke:#aaaa33;stroke-width:1px;}#mermaid-1770792285181 .cluster text{fill:#333;}#mermaid-1770792285181 .cluster span,#mermaid-1770792285181 p{color:#333;}#mermaid-1770792285181 div.mermaidTooltip{position:absolute;text-align:center;max-width:200px;padding:2px;font-family:Microsoft YaHei,SimHei,SimSun,Arial,sans-serif;font-size:12px;background:#F9FFEC;border:1px solid #aaaa33;border-radius:2px;pointer-events:none;z-index:100;}#mermaid-1770792285181 .flowchartTitleText{text-anchor:middle;font-size:18px;fill:#333;}#mermaid-1770792285181 :root{--mermaid-font-family:Microsoft YaHei,SimHei,SimSun,Arial,sans-serif;}</style><g><marker id="mermaid-1770792285181_flowchart-pointEnd" class="marker flowchart" viewBox="0 0 10 10" refX="6" refY="5" markerUnits="userSpaceOnUse" markerWidth="12" markerHeight="12" orient="auto"><path d="M 0 0 L 10 5 L 0 10 z" class="arrowMarkerPath" style="stroke-width: 1; stroke-dasharray: 1, 0;"></path></marker><marker id="mermaid-1770792285181_flowchart-pointStart" class="marker flowchart" viewBox="0 0 10 10" refX="4.5" refY="5" markerUnits="userSpaceOnUse" markerWidth="12" markerHeight="12" orient="auto"><path d="M 0 5 L 10 10 L 10 0 z" class="arrowMarkerPath" style="stroke-width: 1; stroke-dasharray: 1, 0;"></path></marker><marker id="mermaid-1770792285181_flowchart-circleEnd" class="marker flowchart" viewBox="0 0 10 10" refX="11" refY="5" markerUnits="userSpaceOnUse" markerWidth="11" markerHeight="11" orient="auto"><circle cx="5" cy="5" r="5" class="arrowMarkerPath" style="stroke-width: 1; stroke-dasharray: 1, 0;"></circle></marker><marker id="mermaid-1770792285181_flowchart-circleStart" class="marker flowchart" viewBox="0 0 10 10" refX="-1" refY="5" markerUnits="userSpaceOnUse" markerWidth="11" markerHeight="11" orient="auto"><circle cx="5" cy="5" r="5" class="arrowMarkerPath" style="stroke-width: 1; stroke-dasharray: 1, 0;"></circle></marker><marker id="mermaid-1770792285181_flowchart-crossEnd" class="marker cross flowchart" viewBox="0 0 11 11" refX="12" refY="5.2" markerUnits="userSpaceOnUse" markerWidth="11" markerHeight="11" orient="auto"><path d="M 1,1 l 9,9 M 10,1 l -9,9" class="arrowMarkerPath" style="stroke-width: 2; stroke-dasharray: 1, 0;"></path></marker><marker id="mermaid-1770792285181_flowchart-crossStart" class="marker cross flowchart" viewBox="0 0 11 11" refX="-1" refY="5.2" markerUnits="userSpaceOnUse" markerWidth="11" markerHeight="11" orient="auto"><path d="M 1,1 l 9,9 M 10,1 l -9,9" class="arrowMarkerPath" style="stroke-width: 2; stroke-dasharray: 1, 0;"></path></marker><g class="root"><g class="clusters"></g><g class="edgePaths"><path d="M143,58.372L146.333,57.643C149.667,56.914,156.333,55.457,162.142,55.338C167.951,55.218,172.902,56.436,175.378,57.045L177.853,57.654" id="L-A-B-0" class=" edge-thickness-normal edge-pattern-solid flowchart-link LS-A LE-B" style="fill:none;" marker-end="url(#mermaid-1770792285181_flowchart-pointEnd)"></path><path d="M305.609,58.92L308.943,58.1C312.276,57.28,318.943,55.64,324.756,55.481C330.569,55.321,335.528,56.643,338.008,57.303L340.488,57.964" id="L-B-C-0" class=" edge-thickness-normal edge-pattern-solid flowchart-link LS-B LE-C" style="fill:none;" marker-end="url(#mermaid-1770792285181_flowchart-pointEnd)"></path><path d="M455.75,59.328L459.083,58.44C462.417,57.552,469.083,55.776,474.899,55.574C480.714,55.371,485.678,56.742,488.159,57.428L490.641,58.113" id="L-C-D-0" class=" edge-thickness-normal edge-pattern-solid flowchart-link LS-C LE-D" style="fill:none;" marker-end="url(#mermaid-1770792285181_flowchart-pointEnd)"></path><path d="M571.43,56L579.618,49.667C587.807,43.333,604.185,30.667,614.824,24.333C625.463,18,630.363,18,632.813,18L635.263,18" id="L-D-E-0" class=" edge-thickness-normal edge-pattern-solid flowchart-link LS-D LE-E" style="fill:none;" marker-end="url(#mermaid-1770792285181_flowchart-pointEnd)"></path><path d="M600.563,74L603.896,74C607.229,74,613.896,74,621.391,74.575C628.885,75.15,637.208,76.299,641.37,76.874L645.531,77.449" id="L-D-F-0" class=" edge-thickness-normal edge-pattern-solid flowchart-link LS-D LE-F" style="fill:none;" marker-end="url(#mermaid-1770792285181_flowchart-pointEnd)"></path><path d="M735.125,78.174L740.161,77.479C745.198,76.783,755.271,75.391,762.765,75.025C770.259,74.659,775.175,75.318,777.633,75.647L780.091,75.976" id="L-F-G-0" class=" edge-thickness-normal edge-pattern-solid flowchart-link LS-F LE-G" style="fill:none;" marker-end="url(#mermaid-1770792285181_flowchart-pointEnd)"></path><path d="M785.344,91.32L782.01,91.766C778.677,92.213,772.01,93.107,764.516,92.978C757.021,92.85,748.698,91.701,744.537,91.126L740.375,90.551" id="L-G-F-0" class=" edge-thickness-normal edge-pattern-solid flowchart-link LS-G LE-F" style="fill:none;" marker-end="url(#mermaid-1770792285181_flowchart-pointEnd)"></path><path d="M650.781,89.826L645.745,90.521C640.708,91.217,630.635,92.609,623.117,92.619C615.599,92.629,610.635,91.258,608.153,90.572L605.671,89.887" id="L-F-D-0" class=" edge-thickness-normal edge-pattern-solid flowchart-link LS-F LE-D" style="fill:none;" marker-end="url(#mermaid-1770792285181_flowchart-pointEnd)"></path><path d="M495.75,74L492.417,74C489.083,74,482.417,74,476.633,74C470.85,74,465.95,74,463.5,74L461.05,74" id="L-D-C-0" class=" edge-thickness-normal edge-pattern-solid flowchart-link LS-D LE-C" style="fill:none;" marker-end="url(#mermaid-1770792285181_flowchart-pointEnd)"></path><path d="M345.609,74L342.276,74C338.943,74,332.276,74,326.493,74C320.709,74,315.809,74,313.359,74L310.909,74" id="L-C-B-0" class=" edge-thickness-normal edge-pattern-solid flowchart-link LS-C LE-B" style="fill:none;" marker-end="url(#mermaid-1770792285181_flowchart-pointEnd)"></path><path d="M183,74L179.667,74C176.333,74,169.667,74,163.883,74C158.1,74,153.2,74,150.75,74L148.3,74" id="L-B-A-0" class=" edge-thickness-normal edge-pattern-solid flowchart-link LS-B LE-A" style="fill:none;" marker-end="url(#mermaid-1770792285181_flowchart-pointEnd)"></path></g><g class="edgeLabels"><g class="edgeLabel"><g class="label" transform="translate(0, 0)"></g></g><g class="edgeLabel"><g class="label" transform="translate(0, 0)"></g></g><g class="edgeLabel"><g class="label" transform="translate(0, 0)"></g></g><g class="edgeLabel"><g class="label" transform="translate(0, 0)"></g></g><g class="edgeLabel"><g class="label" transform="translate(0, 0)"></g></g><g class="edgeLabel"><g class="label" transform="translate(0, 0)"></g></g><g class="edgeLabel"><g class="label" transform="translate(0, 0)"></g></g><g class="edgeLabel"><g class="label" transform="translate(0, 0)"></g></g><g class="edgeLabel"><g class="label" transform="translate(0, 0)"></g></g><g class="edgeLabel"><g class="label" transform="translate(0, 0)"></g></g><g class="edgeLabel"><g class="label" transform="translate(0, 0)"></g></g></g><g class="nodes"><g class="node default default flowchart-label" id="flowchart-A-0" data-node="true" data-id="A" transform="translate(71.5, 74)"><rect class="basic label-container" style="" rx="0" ry="0" x="-71.5" y="-18" width="143" height="36"></rect><g class="label" style="" transform="translate(-64, -10.5)"><rect></rect><text x="64.0" y="10.5" text-anchor="middle" dominant-baseline="central" font-family="Microsoft YaHei, SimHei, SimSun, Arial, sans-serif" font-size="16" fill="#333"><tspan x="64.0" y="10.5" text-anchor="middle">用户即时通讯平台</tspan></text></g></g><g class="node default default flowchart-label" id="flowchart-B-1" data-node="true" data-id="B" transform="translate(244.3046875, 74)"><rect class="basic label-container" style="" rx="0" ry="0" x="-61.3046875" y="-18" width="122.609375" height="36"></rect><g class="label" style="" transform="translate(-53.8046875, -10.5)"><rect></rect><text x="53.8046875" y="10.5" text-anchor="middle" dominant-baseline="central" font-family="Microsoft YaHei, SimHei, SimSun, Arial, sans-serif" font-size="16" fill="#333"><tspan x="53.8046875" y="10.5" text-anchor="middle">Channel适配器</tspan></text></g></g><g class="node default default flowchart-label" id="flowchart-C-3" data-node="true" data-id="C" transform="translate(400.6796875, 74)"><rect class="basic label-container" style="" rx="0" ry="0" x="-55.0703125" y="-18" width="110.140625" height="36"></rect><g class="label" style="" transform="translate(-47.5703125, -10.5)"><rect></rect><text x="47.5703125" y="10.5" text-anchor="middle" dominant-baseline="central" font-family="Microsoft YaHei, SimHei, SimSun, Arial, sans-serif" font-size="16" fill="#333"><tspan x="47.5703125" y="10.5" text-anchor="middle">Gateway网关</tspan></text></g></g><g class="node default default flowchart-label" id="flowchart-D-5" data-node="true" data-id="D" transform="translate(548.15625, 74)"><rect class="basic label-container" style="" rx="0" ry="0" x="-52.40625" y="-18" width="104.8125" height="36"></rect><g class="label" style="" transform="translate(-44.90625, -10.5)"><rect></rect><text x="44.90625" y="10.5" text-anchor="middle" dominant-baseline="central" font-family="Microsoft YaHei, SimHei, SimSun, Arial, sans-serif" font-size="16" fill="#333"><tspan x="44.90625" y="10.5" text-anchor="middle">Agent智能体</tspan></text></g></g><g class="node default default flowchart-label" id="flowchart-E-7" data-node="true" data-id="E" transform="translate(692.953125, 18)"><rect class="basic label-container" style="" rx="0" ry="0" x="-52.390625" y="-18" width="104.78125" height="36"></rect><g class="label" style="" transform="translate(-44.890625, -10.5)"><rect></rect><text x="44.890625" y="10.5" text-anchor="middle" dominant-baseline="central" font-family="Microsoft YaHei, SimHei, SimSun, Arial, sans-serif" font-size="16" fill="#333"><tspan x="44.890625" y="10.5" text-anchor="middle">Memory记忆</tspan></text></g></g><g class="node default default flowchart-label" id="flowchart-F-9" data-node="true" data-id="F" transform="translate(692.953125, 84)"><rect class="basic label-container" style="" rx="0" ry="0" x="-42.171875" y="-18" width="84.34375" height="36"></rect><g class="label" style="" transform="translate(-34.671875, -10.5)"><rect></rect><text x="34.671875" y="10.5" text-anchor="middle" dominant-baseline="central" font-family="Microsoft YaHei, SimHei, SimSun, Arial, sans-serif" font-size="16" fill="#333"><tspan x="34.671875" y="10.5" text-anchor="middle">Skills技能</tspan></text></g></g><g class="node default default flowchart-label" id="flowchart-G-11" data-node="true" data-id="G" transform="translate(839.9609375, 84)"><rect class="basic label-container" style="" rx="0" ry="0" x="-54.6171875" y="-18" width="109.234375" height="36"></rect><g class="label" style="" transform="translate(-47.1171875, -10.5)"><rect></rect><text x="47.1171875" y="10.5" text-anchor="middle" dominant-baseline="central" font-family="Microsoft YaHei, SimHei, SimSun, Arial, sans-serif" font-size="16" fill="#333"><tspan x="47.1171875" y="10.5" text-anchor="middle">外部服务/API</tspan></text></g></g></g></g></g></svg>