<?xml version="1.0" encoding="UTF-8"?>
<svg id="mermaid-1770792537973" width="1067.703125" xmlns="http://www.w3.org/2000/svg" xmlns:xlink="http://www.w3.org/1999/xlink" height="142" viewBox="-20 -20 1067.703125 142" role="graphics-document document" aria-roledescription="flowchart-v2"><style>#mermaid-1770792537973{font-family:Microsoft YaHei,SimHei,SimSun,Arial,sans-serif;font-size:16px;fill:#333;}#mermaid-1770792537973 .error-icon{fill:#552222;}#mermaid-1770792537973 .error-text{fill:#552222;stroke:#552222;}#mermaid-1770792537973 .edge-thickness-normal{stroke-width:2px;}#mermaid-1770792537973 .edge-thickness-thick{stroke-width:3.5px;}#mermaid-1770792537973 .edge-pattern-solid{stroke-dasharray:0;}#mermaid-1770792537973 .edge-pattern-dashed{stroke-dasharray:3;}#mermaid-1770792537973 .edge-pattern-dotted{stroke-dasharray:2;}#mermaid-1770792537973 .marker{fill:#333333;stroke:#333333;}#mermaid-1770792537973 .marker.cross{stroke:#333333;}#mermaid-1770792537973 svg{font-family:Microsoft YaHei,SimHei,SimSun,Arial,sans-serif;font-size:16px;}#mermaid-1770792537973 .label{font-family:Microsoft YaHei,SimHei,SimSun,Arial,sans-serif;color:#333;}#mermaid-1770792537973 .cluster-label text{fill:#333;}#mermaid-1770792537973 .cluster-label span,#mermaid-1770792537973 p{color:#333;}#mermaid-1770792537973 .label text,#mermaid-1770792537973 span,#mermaid-1770792537973 p{fill:#333;color:#333;}#mermaid-1770792537973 .node rect,#mermaid-1770792537973 .node circle,#mermaid-1770792537973 .node ellipse,#mermaid-1770792537973 .node polygon,#mermaid-1770792537973 .node path{fill:#ECECFF;stroke:#9370DB;stroke-width:1px;}#mermaid-1770792537973 .flowchart-label text{text-anchor:middle;}#mermaid-1770792537973 .node .katex path{fill:#000;stroke:#000;stroke-width:1px;}#mermaid-1770792537973 .node .label{text-align:center;}#mermaid-1770792537973 .node.clickable{cursor:pointer;}#mermaid-1770792537973 .arrowheadPath{fill:#333333;}#mermaid-1770792537973 .edgePath .path{stroke:#333333;stroke-width:2.0px;}#mermaid-1770792537973 .flowchart-link{stroke:#333333;fill:none;}#mermaid-1770792537973 .edgeLabel{background-color:#e8e8e8;text-align:center;}#mermaid-1770792537973 .edgeLabel rect{opacity:0.5;background-color:#e8e8e8;fill:#e8e8e8;}#mermaid-1770792537973 .labelBkg{background-color:rgba(232, 232, 232, 0.5);}#mermaid-1770792537973 .cluster rect{fill:#ffffde;stroke:#aaaa33;stroke-width:1px;}#mermaid-1770792537973 .cluster text{fill:#333;}#mermaid-1770792537973 .cluster span,#mermaid-1770792537973 p{color:#333;}#mermaid-1770792537973 div.mermaidTooltip{position:absolute;text-align:center;max-width:200px;padding:2px;font-family:Microsoft YaHei,SimHei,SimSun,Arial,sans-serif;font-size:12px;background:#F9FFEC;border:1px solid #aaaa33;border-radius:2px;pointer-events:none;z-index:100;}#mermaid-1770792537973 .flowchartTitleText{text-anchor:middle;font-size:18px;fill:#333;}#mermaid-1770792537973 :root{--mermaid-font-family:Microsoft YaHei,SimHei,SimSun,Arial,sans-serif;}</style><g><marker id="mermaid-1770792537973_flowchart-pointEnd" class="marker flowchart" viewBox="0 0 10 10" refX="6" refY="5" markerUnits="userSpaceOnUse" markerWidth="12" markerHeight="12" orient="auto"><path d="M 0 0 L 10 5 L 0 10 z" class="arrowMarkerPath" style="stroke-width: 1; stroke-dasharray: 1, 0;"></path></marker><marker id="mermaid-1770792537973_flowchart-pointStart" class="marker flowchart" viewBox="0 0 10 10" refX="4.5" refY="5" markerUnits="userSpaceOnUse" markerWidth="12" markerHeight="12" orient="auto"><path d="M 0 5 L 10 10 L 10 0 z" class="arrowMarkerPath" style="stroke-width: 1; stroke-dasharray: 1, 0;"></path></marker><marker id="mermaid-1770792537973_flowchart-circleEnd" class="marker flowchart" viewBox="0 0 10 10" refX="11" refY="5" markerUnits="userSpaceOnUse" markerWidth="11" markerHeight="11" orient="auto"><circle cx="5" cy="5" r="5" class="arrowMarkerPath" style="stroke-width: 1; stroke-dasharray: 1, 0;"></circle></marker><marker id="mermaid-1770792537973_flowchart-circleStart" class="marker flowchart" viewBox="0 0 10 10" refX="-1" refY="5" markerUnits="userSpaceOnUse" markerWidth="11" markerHeight="11" orient="auto"><circle cx="5" cy="5" r="5" class="arrowMarkerPath" style="stroke-width: 1; stroke-dasharray: 1, 0;"></circle></marker><marker id="mermaid-1770792537973_flowchart-crossEnd" class="marker cross flowchart" viewBox="0 0 11 11" refX="12" refY="5.2" markerUnits="userSpaceOnUse" markerWidth="11" markerHeight="11" orient="auto"><path d="M 1,1 l 9,9 M 10,1 l -9,9" class="arrowMarkerPath" style="stroke-width: 2; stroke-dasharray: 1, 0;"></path></marker><marker id="mermaid-1770792537973_flowchart-crossStart" class="marker cross flowchart" viewBox="0 0 11 11" refX="-1" refY="5.2" markerUnits="userSpaceOnUse" markerWidth="11" markerHeight="11" orient="auto"><path d="M 1,1 l 9,9 M 10,1 l -9,9" class="arrowMarkerPath" style="stroke-width: 2; stroke-dasharray: 1, 0;"></path></marker><g class="root"><g class="clusters"></g><g class="edgePaths"><path d="M129.68,69L137.017,71.5C144.354,74,159.029,79,168.816,81.5C178.603,84,183.503,84,185.953,84L188.403,84" id="L-A-B-0" class=" edge-thickness-normal edge-pattern-solid flowchart-link LS-A LE-B" style="fill:none;" marker-end="url(#mermaid-1770792537973_flowchart-pointEnd)"></path><path d="M129.68,33L137.017,30.5C144.354,28,159.029,23,178.949,20.5C198.87,18,224.036,18,249.203,18C274.37,18,299.536,18,314.57,18C329.603,18,334.503,18,336.953,18L339.403,18" id="L-A-C-0" class=" edge-thickness-normal edge-pattern-solid flowchart-link LS-A LE-C" style="fill:none;" marker-end="url(#mermaid-1770792537973_flowchart-pointEnd)"></path><path d="M304.703,84L308.036,84C311.37,84,318.036,84,325.153,84C332.27,84,339.836,84,343.62,84L347.403,84" id="L-B-D-0" class=" edge-thickness-normal edge-pattern-solid flowchart-link LS-B LE-D" style="fill:none;" marker-end="url(#mermaid-1770792537973_flowchart-pointEnd)"></path><path d="M455.703,18L459.036,18C462.37,18,469.036,18,474.82,18C480.603,18,485.503,18,487.953,18L490.403,18" id="L-C-E-0" class=" edge-thickness-normal edge-pattern-solid flowchart-link LS-C LE-E" style="fill:none;" marker-end="url(#mermaid-1770792537973_flowchart-pointEnd)"></path><path d="M447.703,84L452.37,84C457.036,84,466.37,84,474.82,84C483.27,84,490.836,84,494.62,84L498.403,84" id="L-D-F-0" class=" edge-thickness-normal edge-pattern-solid flowchart-link LS-D LE-F" style="fill:none;" marker-end="url(#mermaid-1770792537973_flowchart-pointEnd)"></path><path d="M606.703,18L610.036,18C613.37,18,620.036,18,627.153,18C634.27,18,641.836,18,645.62,18L649.403,18" id="L-E-G-0" class=" edge-thickness-normal edge-pattern-solid flowchart-link LS-E LE-G" style="fill:none;" marker-end="url(#mermaid-1770792537973_flowchart-pointEnd)"></path><path d="M598.703,84L603.37,84C608.036,84,617.37,84,624.486,84C631.603,84,636.503,84,638.953,84L641.403,84" id="L-F-H-0" class=" edge-thickness-normal edge-pattern-solid flowchart-link LS-F LE-H" style="fill:none;" marker-end="url(#mermaid-1770792537973_flowchart-pointEnd)"></path><path d="M749.703,18L754.37,18C759.036,18,768.37,18,776.772,20.072C785.173,22.143,792.644,26.286,796.379,28.358L800.114,30.429" id="L-G-I-0" class=" edge-thickness-normal edge-pattern-solid flowchart-link LS-G LE-I" style="fill:none;" marker-end="url(#mermaid-1770792537973_flowchart-pointEnd)"></path><path d="M757.703,84L761.036,84C764.37,84,771.036,84,778.105,81.928C785.173,79.857,792.644,75.714,796.379,73.642L800.114,71.571" id="L-H-I-0" class=" edge-thickness-normal edge-pattern-solid flowchart-link LS-H LE-I" style="fill:none;" marker-end="url(#mermaid-1770792537973_flowchart-pointEnd)"></path><path d="M876.703,51L880.036,51C883.37,51,890.036,51,895.82,51C901.603,51,906.503,51,908.953,51L911.403,51" id="L-I-J-0" class=" edge-thickness-normal edge-pattern-solid flowchart-link LS-I LE-J" style="fill:none;" marker-end="url(#mermaid-1770792537973_flowchart-pointEnd)"></path></g><g class="edgeLabels"><g class="edgeLabel"><g class="label" transform="translate(0, 0)"></g></g><g class="edgeLabel"><g class="label" transform="translate(0, 0)"></g></g><g class="edgeLabel"><g class="label" transform="translate(0, 0)"></g></g><g class="edgeLabel"><g class="label" transform="translate(0, 0)"></g></g><g class="edgeLabel"><g class="label" transform="translate(0, 0)"></g></g><g class="edgeLabel"><g class="label" transform="translate(0, 0)"></g></g><g class="edgeLabel"><g class="label" transform="translate(0, 0)"></g></g><g class="edgeLabel"><g class="label" transform="translate(0, 0)"></g></g><g class="edgeLabel"><g class="label" transform="translate(0, 0)"></g></g><g class="edgeLabel"><g class="label" transform="translate(0, 0)"></g></g></g><g class="nodes"><g class="node default default flowchart-label" id="flowchart-A-0" data-node="true" data-id="A" transform="translate(76.8515625, 51)"><rect class="basic label-container" style="fill:#e1f5ff;" rx="0" ry="0" x="-76.8515625" y="-18" width="153.703125" height="36"></rect><g class="label" style="" transform="translate(-69.3515625, -10.5)"><rect></rect><text x="69.3515625" y="10.5" text-anchor="middle" dominant-baseline="central" font-family="Microsoft YaHei, SimHei, SimSun, Arial, sans-serif" font-size="16" fill="#333"><tspan x="69.3515625" y="10.5" text-anchor="middle">OpenClaw开源项目</tspan></text></g></g><g class="node default default flowchart-label" id="flowchart-B-1" data-node="true" data-id="B" transform="translate(249.203125, 84)"><rect class="basic label-container" style="" rx="0" ry="0" x="-55.5" y="-18" width="111" height="36"></rect><g class="label" style="" transform="translate(-48, -10.5)"><rect></rect><text x="48.0" y="10.5" text-anchor="middle" dominant-baseline="central" font-family="Microsoft YaHei, SimHei, SimSun, Arial, sans-serif" font-size="16" fill="#333"><tspan x="48.0" y="10.5" text-anchor="middle">技术社区传播</tspan></text></g></g><g class="node default default flowchart-label" id="flowchart-C-3" data-node="true" data-id="C" transform="translate(400.203125, 18)"><rect class="basic label-container" style="" rx="0" ry="0" x="-55.5" y="-18" width="111" height="36"></rect><g class="label" style="" transform="translate(-48, -10.5)"><rect></rect><text x="48.0" y="10.5" text-anchor="middle" dominant-baseline="central" font-family="Microsoft YaHei, SimHei, SimSun, Arial, sans-serif" font-size="16" fill="#333"><tspan x="48.0" y="10.5" text-anchor="middle">媒体关注报道</tspan></text></g></g><g class="node default default flowchart-label" id="flowchart-D-5" data-node="true" data-id="D" transform="translate(400.203125, 84)"><rect class="basic label-container" style="" rx="0" ry="0" x="-47.5" y="-18" width="95" height="36"></rect><g class="label" style="" transform="translate(-40, -10.5)"><rect></rect><text x="40.0" y="10.5" text-anchor="middle" dominant-baseline="central" font-family="Microsoft YaHei, SimHei, SimSun, Arial, sans-serif" font-size="16" fill="#333"><tspan x="40.0" y="10.5" text-anchor="middle">开发者参与</tspan></text></g></g><g class="node default default flowchart-label" id="flowchart-E-7" data-node="true" data-id="E" transform="translate(551.203125, 18)"><rect class="basic label-container" style="" rx="0" ry="0" x="-55.5" y="-18" width="111" height="36"></rect><g class="label" style="" transform="translate(-48, -10.5)"><rect></rect><text x="48.0" y="10.5" text-anchor="middle" dominant-baseline="central" font-family="Microsoft YaHei, SimHei, SimSun, Arial, sans-serif" font-size="16" fill="#333"><tspan x="48.0" y="10.5" text-anchor="middle">用户认知提升</tspan></text></g></g><g class="node default default flowchart-label" id="flowchart-F-9" data-node="true" data-id="F" transform="translate(551.203125, 84)"><rect class="basic label-container" style="fill:#ffe1e1;" rx="0" ry="0" x="-47.5" y="-18" width="95" height="36"></rect><g class="label" style="" transform="translate(-40, -10.5)"><rect></rect><text x="40.0" y="10.5" text-anchor="middle" dominant-baseline="central" font-family="Microsoft YaHei, SimHei, SimSun, Arial, sans-serif" font-size="16" fill="#333"><tspan x="40.0" y="10.5" text-anchor="middle">本土化创新</tspan></text></g></g><g class="node default default flowchart-label" id="flowchart-G-11" data-node="true" data-id="G" transform="translate(702.203125, 18)"><rect class="basic label-container" style="fill:#ffe1e1;" rx="0" ry="0" x="-47.5" y="-18" width="95" height="36"></rect><g class="label" style="" transform="translate(-40, -10.5)"><rect></rect><text x="40.0" y="10.5" text-anchor="middle" dominant-baseline="central" font-family="Microsoft YaHei, SimHei, SimSun, Arial, sans-serif" font-size="16" fill="#333"><tspan x="40.0" y="10.5" text-anchor="middle">商业化服务</tspan></text></g></g><g class="node default default flowchart-label" id="flowchart-H-13" data-node="true" data-id="H" transform="translate(702.203125, 84)"><rect class="basic label-container" style="" rx="0" ry="0" x="-55.5" y="-18" width="111" height="36"></rect><g class="label" style="" transform="translate(-48, -10.5)"><rect></rect><text x="48.0" y="10.5" text-anchor="middle" dominant-baseline="central" font-family="Microsoft YaHei, SimHei, SimSun, Arial, sans-serif" font-size="16" fill="#333"><tspan x="48.0" y="10.5" text-anchor="middle">技能生态扩展</tspan></text></g></g><g class="node default default flowchart-label" id="flowchart-I-15" data-node="true" data-id="I" transform="translate(837.203125, 51)"><rect class="basic label-container" style="fill:#e1ffe1;" rx="0" ry="0" x="-39.5" y="-18" width="79" height="36"></rect><g class="label" style="" transform="translate(-32, -10.5)"><rect></rect><text x="32.0" y="10.5" text-anchor="middle" dominant-baseline="central" font-family="Microsoft YaHei, SimHei, SimSun, Arial, sans-serif" font-size="16" fill="#333"><tspan x="32.0" y="10.5" text-anchor="middle">市场普及</tspan></text></g></g><g class="node default default flowchart-label" id="flowchart-J-19" data-node="true" data-id="J" transform="translate(972.203125, 51)"><rect class="basic label-container" style="" rx="0" ry="0" x="-55.5" y="-18" width="111" height="36"></rect><g class="label" style="" transform="translate(-48, -10.5)"><rect></rect><text x="48.0" y="10.5" text-anchor="middle" dominant-baseline="central" font-family="Microsoft YaHei, SimHei, SimSun, Arial, sans-serif" font-size="16" fill="#333"><tspan x="48.0" y="10.5" text-anchor="middle">产业影响扩大</tspan></text></g></g></g></g></g></svg>