<?xml version="1.0" encoding="UTF-8"?>
<svg id="mermaid-1770792675664" width="482.40625" xmlns="http://www.w3.org/2000/svg" xmlns:xlink="http://www.w3.org/1999/xlink" height="802" viewBox="-20 -20 482.40625 802" role="graphics-document document" aria-roledescription="flowchart-v2"><style>#mermaid-1770792675664{font-family:Microsoft YaHei,SimHei,SimSun,Arial,sans-serif;font-size:16px;fill:#333;}#mermaid-1770792675664 .error-icon{fill:#552222;}#mermaid-1770792675664 .error-text{fill:#552222;stroke:#552222;}#mermaid-1770792675664 .edge-thickness-normal{stroke-width:2px;}#mermaid-1770792675664 .edge-thickness-thick{stroke-width:3.5px;}#mermaid-1770792675664 .edge-pattern-solid{stroke-dasharray:0;}#mermaid-1770792675664 .edge-pattern-dashed{stroke-dasharray:3;}#mermaid-1770792675664 .edge-pattern-dotted{stroke-dasharray:2;}#mermaid-1770792675664 .marker{fill:#333333;stroke:#333333;}#mermaid-1770792675664 .marker.cross{stroke:#333333;}#mermaid-1770792675664 svg{font-family:Microsoft YaHei,SimHei,SimSun,Arial,sans-serif;font-size:16px;}#mermaid-1770792675664 .label{font-family:Microsoft YaHei,SimHei,SimSun,Arial,sans-serif;color:#333;}#mermaid-1770792675664 .cluster-label text{fill:#333;}#mermaid-1770792675664 .cluster-label span,#mermaid-1770792675664 p{color:#333;}#mermaid-1770792675664 .label text,#mermaid-1770792675664 span,#mermaid-1770792675664 p{fill:#333;color:#333;}#mermaid-1770792675664 .node rect,#mermaid-1770792675664 .node circle,#mermaid-1770792675664 .node ellipse,#mermaid-1770792675664 .node polygon,#mermaid-1770792675664 .node path{fill:#ECECFF;stroke:#9370DB;stroke-width:1px;}#mermaid-1770792675664 .flowchart-label text{text-anchor:middle;}#mermaid-1770792675664 .node .katex path{fill:#000;stroke:#000;stroke-width:1px;}#mermaid-1770792675664 .node .label{text-align:center;}#mermaid-1770792675664 .node.clickable{cursor:pointer;}#mermaid-1770792675664 .arrowheadPath{fill:#333333;}#mermaid-1770792675664 .edgePath .path{stroke:#333333;stroke-width:2.0px;}#mermaid-1770792675664 .flowchart-link{stroke:#333333;fill:none;}#mermaid-1770792675664 .edgeLabel{background-color:#e8e8e8;text-align:center;}#mermaid-1770792675664 .edgeLabel rect{opacity:0.5;background-color:#e8e8e8;fill:#e8e8e8;}#mermaid-1770792675664 .labelBkg{background-color:rgba(232, 232, 232, 0.5);}#mermaid-1770792675664 .cluster rect{fill:#ffffde;stroke:#aaaa33;stroke-width:1px;}#mermaid-1770792675664 .cluster text{fill:#333;}#mermaid-1770792675664 .cluster span,#mermaid-1770792675664 p{color:#333;}#mermaid-1770792675664 div.mermaidTooltip{position:absolute;text-align:center;max-width:200px;padding:2px;font-family:Microsoft YaHei,SimHei,SimSun,Arial,sans-serif;font-size:12px;background:#F9FFEC;border:1px solid #aaaa33;border-radius:2px;pointer-events:none;z-index:100;}#mermaid-1770792675664 .flowchartTitleText{text-anchor:middle;font-size:18px;fill:#333;}#mermaid-1770792675664 :root{--mermaid-font-family:Microsoft YaHei,SimHei,SimSun,Arial,sans-serif;}</style><g><marker id="mermaid-1770792675664_flowchart-pointEnd" class="marker flowchart" viewBox="0 0 10 10" refX="6" refY="5" markerUnits="userSpaceOnUse" markerWidth="12" markerHeight="12" orient="auto"><path d="M 0 0 L 10 5 L 0 10 z" class="arrowMarkerPath" style="stroke-width: 1; stroke-dasharray: 1, 0;"></path></marker><marker id="mermaid-1770792675664_flowchart-pointStart" class="marker flowchart" viewBox="0 0 10 10" refX="4.5" refY="5" markerUnits="userSpaceOnUse" markerWidth="12" markerHeight="12" orient="auto"><path d="M 0 5 L 10 10 L 10 0 z" class="arrowMarkerPath" style="stroke-width: 1; stroke-dasharray: 1, 0;"></path></marker><marker id="mermaid-1770792675664_flowchart-circleEnd" class="marker flowchart" viewBox="0 0 10 10" refX="11" refY="5" markerUnits="userSpaceOnUse" markerWidth="11" markerHeight="11" orient="auto"><circle cx="5" cy="5" r="5" class="arrowMarkerPath" style="stroke-width: 1; stroke-dasharray: 1, 0;"></circle></marker><marker id="mermaid-1770792675664_flowchart-circleStart" class="marker flowchart" viewBox="0 0 10 10" refX="-1" refY="5" markerUnits="userSpaceOnUse" markerWidth="11" markerHeight="11" orient="auto"><circle cx="5" cy="5" r="5" class="arrowMarkerPath" style="stroke-width: 1; stroke-dasharray: 1, 0;"></circle></marker><marker id="mermaid-1770792675664_flowchart-crossEnd" class="marker cross flowchart" viewBox="0 0 11 11" refX="12" refY="5.2" markerUnits="userSpaceOnUse" markerWidth="11" markerHeight="11" orient="auto"><path d="M 1,1 l 9,9 M 10,1 l -9,9" class="arrowMarkerPath" style="stroke-width: 2; stroke-dasharray: 1, 0;"></path></marker><marker id="mermaid-1770792675664_flowchart-crossStart" class="marker cross flowchart" viewBox="0 0 11 11" refX="-1" refY="5.2" markerUnits="userSpaceOnUse" markerWidth="11" markerHeight="11" orient="auto"><path d="M 1,1 l 9,9 M 10,1 l -9,9" class="arrowMarkerPath" style="stroke-width: 2; stroke-dasharray: 1, 0;"></path></marker><g class="root"><g class="clusters"></g><g class="edgePaths"><path d="M82.721,363L97.885,316.5C113.049,270,143.376,177,162.323,130.5C181.27,84,188.836,84,192.62,84L196.403,84" id="L-A-B-0" class=" edge-thickness-normal edge-pattern-solid flowchart-link LS-A LE-B" style="fill:none;" marker-end="url(#mermaid-1770792675664_flowchart-pointEnd)"></path><path d="M94.461,363L107.668,349.5C120.875,336,147.289,309,164.279,295.5C181.27,282,188.836,282,192.62,282L196.403,282" id="L-A-C-0" class=" edge-thickness-normal edge-pattern-solid flowchart-link LS-A LE-C" style="fill:none;" marker-end="url(#mermaid-1770792675664_flowchart-pointEnd)"></path><path d="M94.461,399L107.668,412.5C120.875,426,147.289,453,164.279,466.5C181.27,480,188.836,480,192.62,480L196.403,480" id="L-A-D-0" class=" edge-thickness-normal edge-pattern-solid flowchart-link LS-A LE-D" style="fill:none;" marker-end="url(#mermaid-1770792675664_flowchart-pointEnd)"></path><path d="M82.721,399L97.885,445.5C113.049,492,143.376,585,160.989,631.5C178.603,678,183.503,678,185.953,678L188.403,678" id="L-A-E-0" class=" edge-thickness-normal edge-pattern-solid flowchart-link LS-A LE-E" style="fill:none;" marker-end="url(#mermaid-1770792675664_flowchart-pointEnd)"></path><path d="M259.612,66L267.794,58C275.976,50,292.339,34,302.971,26C313.603,18,318.503,18,320.953,18L323.403,18" id="L-B-B1-0" class=" edge-thickness-normal edge-pattern-solid flowchart-link LS-B LE-B1" style="fill:none;" marker-end="url(#mermaid-1770792675664_flowchart-pointEnd)"></path><path d="M280.703,84L285.37,84C290.036,84,299.37,84,309.378,84C319.387,84,330.071,84,335.413,84L340.755,84" id="L-B-B2-0" class=" edge-thickness-normal edge-pattern-solid flowchart-link LS-B LE-B2" style="fill:none;" marker-end="url(#mermaid-1770792675664_flowchart-pointEnd)"></path><path d="M259.612,102L267.794,110C275.976,118,292.339,134,305.863,142C319.387,150,330.071,150,335.413,150L340.755,150" id="L-B-B3-0" class=" edge-thickness-normal edge-pattern-solid flowchart-link LS-B LE-B3" style="fill:none;" marker-end="url(#mermaid-1770792675664_flowchart-pointEnd)"></path><path d="M259.612,264L267.794,256C275.976,248,292.339,232,303.197,224C314.054,216,319.404,216,322.079,216L324.755,216" id="L-C-C1-0" class=" edge-thickness-normal edge-pattern-solid flowchart-link LS-C LE-C1" style="fill:none;" marker-end="url(#mermaid-1770792675664_flowchart-pointEnd)"></path><path d="M280.703,282L285.37,282C290.036,282,299.37,282,308.045,282C316.72,282,324.738,282,328.746,282L332.755,282" id="L-C-C2-0" class=" edge-thickness-normal edge-pattern-solid flowchart-link LS-C LE-C2" style="fill:none;" marker-end="url(#mermaid-1770792675664_flowchart-pointEnd)"></path><path d="M259.612,300L267.794,308C275.976,316,292.339,332,305.863,340C319.387,348,330.071,348,335.413,348L340.755,348" id="L-C-C3-0" class=" edge-thickness-normal edge-pattern-solid flowchart-link LS-C LE-C3" style="fill:none;" marker-end="url(#mermaid-1770792675664_flowchart-pointEnd)"></path><path d="M259.612,462L267.794,454C275.976,446,292.339,430,305.863,422C319.387,414,330.071,414,335.413,414L340.755,414" id="L-D-D1-0" class=" edge-thickness-normal edge-pattern-solid flowchart-link LS-D LE-D1" style="fill:none;" marker-end="url(#mermaid-1770792675664_flowchart-pointEnd)"></path><path d="M280.703,480L285.37,480C290.036,480,299.37,480,306.712,480C314.054,480,319.404,480,322.079,480L324.755,480" id="L-D-D2-0" class=" edge-thickness-normal edge-pattern-solid flowchart-link LS-D LE-D2" style="fill:none;" marker-end="url(#mermaid-1770792675664_flowchart-pointEnd)"></path><path d="M259.612,498L267.794,506C275.976,514,292.339,530,305.863,538C319.387,546,330.071,546,335.413,546L340.755,546" id="L-D-D3-0" class=" edge-thickness-normal edge-pattern-solid flowchart-link LS-D LE-D3" style="fill:none;" marker-end="url(#mermaid-1770792675664_flowchart-pointEnd)"></path><path d="M259.612,660L267.794,652C275.976,644,292.339,628,305.863,620C319.387,612,330.071,612,335.413,612L340.755,612" id="L-E-E1-0" class=" edge-thickness-normal edge-pattern-solid flowchart-link LS-E LE-E1" style="fill:none;" marker-end="url(#mermaid-1770792675664_flowchart-pointEnd)"></path><path d="M288.703,678L292.036,678C295.37,678,302.036,678,310.712,678C319.387,678,330.071,678,335.413,678L340.755,678" id="L-E-E2-0" class=" edge-thickness-normal edge-pattern-solid flowchart-link LS-E LE-E2" style="fill:none;" marker-end="url(#mermaid-1770792675664_flowchart-pointEnd)"></path><path d="M259.612,696L267.794,704C275.976,712,292.339,728,305.863,736C319.387,744,330.071,744,335.413,744L340.755,744" id="L-E-E3-0" class=" edge-thickness-normal edge-pattern-solid flowchart-link LS-E LE-E3" style="fill:none;" marker-end="url(#mermaid-1770792675664_flowchart-pointEnd)"></path></g><g class="edgeLabels"><g class="edgeLabel"><g class="label" transform="translate(0, 0)"></g></g><g class="edgeLabel"><g class="label" transform="translate(0, 0)"></g></g><g class="edgeLabel"><g class="label" transform="translate(0, 0)"></g></g><g class="edgeLabel"><g class="label" transform="translate(0, 0)"></g></g><g class="edgeLabel"><g class="label" transform="translate(0, 0)"></g></g><g class="edgeLabel"><g class="label" transform="translate(0, 0)"></g></g><g class="edgeLabel"><g class="label" transform="translate(0, 0)"></g></g><g class="edgeLabel"><g class="label" transform="translate(0, 0)"></g></g><g class="edgeLabel"><g class="label" transform="translate(0, 0)"></g></g><g class="edgeLabel"><g class="label" transform="translate(0, 0)"></g></g><g class="edgeLabel"><g class="label" transform="translate(0, 0)"></g></g><g class="edgeLabel"><g class="label" transform="translate(0, 0)"></g></g><g class="edgeLabel"><g class="label" transform="translate(0, 0)"></g></g><g class="edgeLabel"><g class="label" transform="translate(0, 0)"></g></g><g class="edgeLabel"><g class="label" transform="translate(0, 0)"></g></g><g class="edgeLabel"><g class="label" transform="translate(0, 0)"></g></g></g><g class="nodes"><g class="node default default flowchart-label" id="flowchart-A-37" data-node="true" data-id="A" transform="translate(76.8515625, 381)"><rect class="basic label-container" style="fill:#e1f5ff;" rx="0" ry="0" x="-76.8515625" y="-18" width="153.703125" height="36"></rect><g class="label" style="" transform="translate(-69.3515625, -10.5)"><rect></rect><text x="69.3515625" y="10.5" text-anchor="middle" dominant-baseline="central" font-family="Microsoft YaHei, SimHei, SimSun, Arial, sans-serif" font-size="16" fill="#333"><tspan x="69.3515625" y="10.5" text-anchor="middle">OpenClaw电商应用</tspan></text></g></g><g class="node default default flowchart-label" id="flowchart-B-38" data-node="true" data-id="B" transform="translate(241.203125, 84)"><rect class="basic label-container" style="fill:#ffe1e1;" rx="0" ry="0" x="-39.5" y="-18" width="79" height="36"></rect><g class="label" style="" transform="translate(-32, -10.5)"><rect></rect><text x="32.0" y="10.5" text-anchor="middle" dominant-baseline="central" font-family="Microsoft YaHei, SimHei, SimSun, Arial, sans-serif" font-size="16" fill="#333"><tspan x="32.0" y="10.5" text-anchor="middle">智能客服</tspan></text></g></g><g class="node default default flowchart-label" id="flowchart-C-40" data-node="true" data-id="C" transform="translate(241.203125, 282)"><rect class="basic label-container" style="fill:#ffe1e1;" rx="0" ry="0" x="-39.5" y="-18" width="79" height="36"></rect><g class="label" style="" transform="translate(-32, -10.5)"><rect></rect><text x="32.0" y="10.5" text-anchor="middle" dominant-baseline="central" font-family="Microsoft YaHei, SimHei, SimSun, Arial, sans-serif" font-size="16" fill="#333"><tspan x="32.0" y="10.5" text-anchor="middle">精准营销</tspan></text></g></g><g class="node default default flowchart-label" id="flowchart-D-42" data-node="true" data-id="D" transform="translate(241.203125, 480)"><rect class="basic label-container" style="fill:#ffe1e1;" rx="0" ry="0" x="-39.5" y="-18" width="79" height="36"></rect><g class="label" style="" transform="translate(-32, -10.5)"><rect></rect><text x="32.0" y="10.5" text-anchor="middle" dominant-baseline="central" font-family="Microsoft YaHei, SimHei, SimSun, Arial, sans-serif" font-size="16" fill="#333"><tspan x="32.0" y="10.5" text-anchor="middle">推荐系统</tspan></text></g></g><g class="node default default flowchart-label" id="flowchart-E-44" data-node="true" data-id="E" transform="translate(241.203125, 678)"><rect class="basic label-container" style="fill:#ffe1e1;" rx="0" ry="0" x="-47.5" y="-18" width="95" height="36"></rect><g class="label" style="" transform="translate(-40, -10.5)"><rect></rect><text x="40.0" y="10.5" text-anchor="middle" dominant-baseline="central" font-family="Microsoft YaHei, SimHei, SimSun, Arial, sans-serif" font-size="16" fill="#333"><tspan x="40.0" y="10.5" text-anchor="middle">供应链优化</tspan></text></g></g><g class="node default default flowchart-label" id="flowchart-B1-46" data-node="true" data-id="B1" transform="translate(385.5546875, 18)"><rect class="basic label-container" style="" rx="0" ry="0" x="-56.8515625" y="-18" width="113.703125" height="36"></rect><g class="label" style="" transform="translate(-49.3515625, -10.5)"><rect></rect><text x="49.3515625" y="10.5" text-anchor="middle" dominant-baseline="central" font-family="Microsoft YaHei, SimHei, SimSun, Arial, sans-serif" font-size="16" fill="#333"><tspan x="49.3515625" y="10.5" text-anchor="middle">7x24在线服务</tspan></text></g></g><g class="node default default flowchart-label" id="flowchart-B2-48" data-node="true" data-id="B2" transform="translate(385.5546875, 84)"><rect class="basic label-container" style="" rx="0" ry="0" x="-39.5" y="-18" width="79" height="36"></rect><g class="label" style="" transform="translate(-32, -10.5)"><rect></rect><text x="32.0" y="10.5" text-anchor="middle" dominant-baseline="central" font-family="Microsoft YaHei, SimHei, SimSun, Arial, sans-serif" font-size="16" fill="#333"><tspan x="32.0" y="10.5" text-anchor="middle">多轮对话</tspan></text></g></g><g class="node default default flowchart-label" id="flowchart-B3-50" data-node="true" data-id="B3" transform="translate(385.5546875, 150)"><rect class="basic label-container" style="" rx="0" ry="0" x="-39.5" y="-18" width="79" height="36"></rect><g class="label" style="" transform="translate(-32, -10.5)"><rect></rect><text x="32.0" y="10.5" text-anchor="middle" dominant-baseline="central" font-family="Microsoft YaHei, SimHei, SimSun, Arial, sans-serif" font-size="16" fill="#333"><tspan x="32.0" y="10.5" text-anchor="middle">问题解决</tspan></text></g></g><g class="node default default flowchart-label" id="flowchart-C1-52" data-node="true" data-id="C1" transform="translate(385.5546875, 216)"><rect class="basic label-container" style="" rx="0" ry="0" x="-55.5" y="-18" width="111" height="36"></rect><g class="label" style="" transform="translate(-48, -10.5)"><rect></rect><text x="48.0" y="10.5" text-anchor="middle" dominant-baseline="central" font-family="Microsoft YaHei, SimHei, SimSun, Arial, sans-serif" font-size="16" fill="#333"><tspan x="48.0" y="10.5" text-anchor="middle">用户画像分析</tspan></text></g></g><g class="node default default flowchart-label" id="flowchart-C2-54" data-node="true" data-id="C2" transform="translate(385.5546875, 282)"><rect class="basic label-container" style="" rx="0" ry="0" x="-47.5" y="-18" width="95" height="36"></rect><g class="label" style="" transform="translate(-40, -10.5)"><rect></rect><text x="40.0" y="10.5" text-anchor="middle" dominant-baseline="central" font-family="Microsoft YaHei, SimHei, SimSun, Arial, sans-serif" font-size="16" fill="#333"><tspan x="40.0" y="10.5" text-anchor="middle">个性化营销</tspan></text></g></g><g class="node default default flowchart-label" id="flowchart-C3-56" data-node="true" data-id="C3" transform="translate(385.5546875, 348)"><rect class="basic label-container" style="" rx="0" ry="0" x="-39.5" y="-18" width="79" height="36"></rect><g class="label" style="" transform="translate(-32, -10.5)"><rect></rect><text x="32.0" y="10.5" text-anchor="middle" dominant-baseline="central" font-family="Microsoft YaHei, SimHei, SimSun, Arial, sans-serif" font-size="16" fill="#333"><tspan x="32.0" y="10.5" text-anchor="middle">内容生成</tspan></text></g></g><g class="node default default flowchart-label" id="flowchart-D1-58" data-node="true" data-id="D1" transform="translate(385.5546875, 414)"><rect class="basic label-container" style="" rx="0" ry="0" x="-39.5" y="-18" width="79" height="36"></rect><g class="label" style="" transform="translate(-32, -10.5)"><rect></rect><text x="32.0" y="10.5" text-anchor="middle" dominant-baseline="central" font-family="Microsoft YaHei, SimHei, SimSun, Arial, sans-serif" font-size="16" fill="#333"><tspan x="32.0" y="10.5" text-anchor="middle">协同过滤</tspan></text></g></g><g class="node default default flowchart-label" id="flowchart-D2-60" data-node="true" data-id="D2" transform="translate(385.5546875, 480)"><rect class="basic label-container" style="" rx="0" ry="0" x="-55.5" y="-18" width="111" height="36"></rect><g class="label" style="" transform="translate(-48, -10.5)"><rect></rect><text x="48.0" y="10.5" text-anchor="middle" dominant-baseline="central" font-family="Microsoft YaHei, SimHei, SimSun, Arial, sans-serif" font-size="16" fill="#333"><tspan x="48.0" y="10.5" text-anchor="middle">深度学习推荐</tspan></text></g></g><g class="node default default flowchart-label" id="flowchart-D3-62" data-node="true" data-id="D3" transform="translate(385.5546875, 546)"><rect class="basic label-container" style="" rx="0" ry="0" x="-39.5" y="-18" width="79" height="36"></rect><g class="label" style="" transform="translate(-32, -10.5)"><rect></rect><text x="32.0" y="10.5" text-anchor="middle" dominant-baseline="central" font-family="Microsoft YaHei, SimHei, SimSun, Arial, sans-serif" font-size="16" fill="#333"><tspan x="32.0" y="10.5" text-anchor="middle">实时推荐</tspan></text></g></g><g class="node default default flowchart-label" id="flowchart-E1-64" data-node="true" data-id="E1" transform="translate(385.5546875, 612)"><rect class="basic label-container" style="" rx="0" ry="0" x="-39.5" y="-18" width="79" height="36"></rect><g class="label" style="" transform="translate(-32, -10.5)"><rect></rect><text x="32.0" y="10.5" text-anchor="middle" dominant-baseline="central" font-family="Microsoft YaHei, SimHei, SimSun, Arial, sans-serif" font-size="16" fill="#333"><tspan x="32.0" y="10.5" text-anchor="middle">需求预测</tspan></text></g></g><g class="node default default flowchart-label" id="flowchart-E2-66" data-node="true" data-id="E2" transform="translate(385.5546875, 678)"><rect class="basic label-container" style="" rx="0" ry="0" x="-39.5" y="-18" width="79" height="36"></rect><g class="label" style="" transform="translate(-32, -10.5)"><rect></rect><text x="32.0" y="10.5" text-anchor="middle" dominant-baseline="central" font-family="Microsoft YaHei, SimHei, SimSun, Arial, sans-serif" font-size="16" fill="#333"><tspan x="32.0" y="10.5" text-anchor="middle">库存优化</tspan></text></g></g><g class="node default default flowchart-label" id="flowchart-E3-68" data-node="true" data-id="E3" transform="translate(385.5546875, 744)"><rect class="basic label-container" style="" rx="0" ry="0" x="-39.5" y="-18" width="79" height="36"></rect><g class="label" style="" transform="translate(-32, -10.5)"><rect></rect><text x="32.0" y="10.5" text-anchor="middle" dominant-baseline="central" font-family="Microsoft YaHei, SimHei, SimSun, Arial, sans-serif" font-size="16" fill="#333"><tspan x="32.0" y="10.5" text-anchor="middle">物流调度</tspan></text></g></g></g></g></g></svg>