<?xml version="1.0" encoding="UTF-8"?>
<svg id="mermaid-1770792675912" width="479.703125" xmlns="http://www.w3.org/2000/svg" xmlns:xlink="http://www.w3.org/1999/xlink" height="802" viewBox="-20 -20 479.703125 802" role="graphics-document document" aria-roledescription="flowchart-v2"><style>#mermaid-1770792675912{font-family:Microsoft YaHei,SimHei,SimSun,Arial,sans-serif;font-size:16px;fill:#333;}#mermaid-1770792675912 .error-icon{fill:#552222;}#mermaid-1770792675912 .error-text{fill:#552222;stroke:#552222;}#mermaid-1770792675912 .edge-thickness-normal{stroke-width:2px;}#mermaid-1770792675912 .edge-thickness-thick{stroke-width:3.5px;}#mermaid-1770792675912 .edge-pattern-solid{stroke-dasharray:0;}#mermaid-1770792675912 .edge-pattern-dashed{stroke-dasharray:3;}#mermaid-1770792675912 .edge-pattern-dotted{stroke-dasharray:2;}#mermaid-1770792675912 .marker{fill:#333333;stroke:#333333;}#mermaid-1770792675912 .marker.cross{stroke:#333333;}#mermaid-1770792675912 svg{font-family:Microsoft YaHei,SimHei,SimSun,Arial,sans-serif;font-size:16px;}#mermaid-1770792675912 .label{font-family:Microsoft YaHei,SimHei,SimSun,Arial,sans-serif;color:#333;}#mermaid-1770792675912 .cluster-label text{fill:#333;}#mermaid-1770792675912 .cluster-label span,#mermaid-1770792675912 p{color:#333;}#mermaid-1770792675912 .label text,#mermaid-1770792675912 span,#mermaid-1770792675912 p{fill:#333;color:#333;}#mermaid-1770792675912 .node rect,#mermaid-1770792675912 .node circle,#mermaid-1770792675912 .node ellipse,#mermaid-1770792675912 .node polygon,#mermaid-1770792675912 .node path{fill:#ECECFF;stroke:#9370DB;stroke-width:1px;}#mermaid-1770792675912 .flowchart-label text{text-anchor:middle;}#mermaid-1770792675912 .node .katex path{fill:#000;stroke:#000;stroke-width:1px;}#mermaid-1770792675912 .node .label{text-align:center;}#mermaid-1770792675912 .node.clickable{cursor:pointer;}#mermaid-1770792675912 .arrowheadPath{fill:#333333;}#mermaid-1770792675912 .edgePath .path{stroke:#333333;stroke-width:2.0px;}#mermaid-1770792675912 .flowchart-link{stroke:#333333;fill:none;}#mermaid-1770792675912 .edgeLabel{background-color:#e8e8e8;text-align:center;}#mermaid-1770792675912 .edgeLabel rect{opacity:0.5;background-color:#e8e8e8;fill:#e8e8e8;}#mermaid-1770792675912 .labelBkg{background-color:rgba(232, 232, 232, 0.5);}#mermaid-1770792675912 .cluster rect{fill:#ffffde;stroke:#aaaa33;stroke-width:1px;}#mermaid-1770792675912 .cluster text{fill:#333;}#mermaid-1770792675912 .cluster span,#mermaid-1770792675912 p{color:#333;}#mermaid-1770792675912 div.mermaidTooltip{position:absolute;text-align:center;max-width:200px;padding:2px;font-family:Microsoft YaHei,SimHei,SimSun,Arial,sans-serif;font-size:12px;background:#F9FFEC;border:1px solid #aaaa33;border-radius:2px;pointer-events:none;z-index:100;}#mermaid-1770792675912 .flowchartTitleText{text-anchor:middle;font-size:18px;fill:#333;}#mermaid-1770792675912 :root{--mermaid-font-family:Microsoft YaHei,SimHei,SimSun,Arial,sans-serif;}</style><g><marker id="mermaid-1770792675912_flowchart-pointEnd" class="marker flowchart" viewBox="0 0 10 10" refX="6" refY="5" markerUnits="userSpaceOnUse" markerWidth="12" markerHeight="12" orient="auto"><path d="M 0 0 L 10 5 L 0 10 z" class="arrowMarkerPath" style="stroke-width: 1; stroke-dasharray: 1, 0;"></path></marker><marker id="mermaid-1770792675912_flowchart-pointStart" class="marker flowchart" viewBox="0 0 10 10" refX="4.5" refY="5" markerUnits="userSpaceOnUse" markerWidth="12" markerHeight="12" orient="auto"><path d="M 0 5 L 10 10 L 10 0 z" class="arrowMarkerPath" style="stroke-width: 1; stroke-dasharray: 1, 0;"></path></marker><marker id="mermaid-1770792675912_flowchart-circleEnd" class="marker flowchart" viewBox="0 0 10 10" refX="11" refY="5" markerUnits="userSpaceOnUse" markerWidth="11" markerHeight="11" orient="auto"><circle cx="5" cy="5" r="5" class="arrowMarkerPath" style="stroke-width: 1; stroke-dasharray: 1, 0;"></circle></marker><marker id="mermaid-1770792675912_flowchart-circleStart" class="marker flowchart" viewBox="0 0 10 10" refX="-1" refY="5" markerUnits="userSpaceOnUse" markerWidth="11" markerHeight="11" orient="auto"><circle cx="5" cy="5" r="5" class="arrowMarkerPath" style="stroke-width: 1; stroke-dasharray: 1, 0;"></circle></marker><marker id="mermaid-1770792675912_flowchart-crossEnd" class="marker cross flowchart" viewBox="0 0 11 11" refX="12" refY="5.2" markerUnits="userSpaceOnUse" markerWidth="11" markerHeight="11" orient="auto"><path d="M 1,1 l 9,9 M 10,1 l -9,9" class="arrowMarkerPath" style="stroke-width: 2; stroke-dasharray: 1, 0;"></path></marker><marker id="mermaid-1770792675912_flowchart-crossStart" class="marker cross flowchart" viewBox="0 0 11 11" refX="-1" refY="5.2" markerUnits="userSpaceOnUse" markerWidth="11" markerHeight="11" orient="auto"><path d="M 1,1 l 9,9 M 10,1 l -9,9" class="arrowMarkerPath" style="stroke-width: 2; stroke-dasharray: 1, 0;"></path></marker><g class="root"><g class="clusters"></g><g class="edgePaths"><path d="M82.721,363L97.885,316.5C113.049,270,143.376,177,160.989,130.5C178.603,84,183.503,84,185.953,84L188.403,84" id="L-A-B-0" class=" edge-thickness-normal edge-pattern-solid flowchart-link LS-A LE-B" style="fill:none;" marker-end="url(#mermaid-1770792675912_flowchart-pointEnd)"></path><path d="M94.461,363L107.668,349.5C120.875,336,147.289,309,162.946,295.5C178.603,282,183.503,282,185.953,282L188.403,282" id="L-A-C-0" class=" edge-thickness-normal edge-pattern-solid flowchart-link LS-A LE-C" style="fill:none;" marker-end="url(#mermaid-1770792675912_flowchart-pointEnd)"></path><path d="M94.461,399L107.668,412.5C120.875,426,147.289,453,162.946,466.5C178.603,480,183.503,480,185.953,480L188.403,480" id="L-A-D-0" class=" edge-thickness-normal edge-pattern-solid flowchart-link LS-A LE-D" style="fill:none;" marker-end="url(#mermaid-1770792675912_flowchart-pointEnd)"></path><path d="M82.721,399L97.885,445.5C113.049,492,143.376,585,160.989,631.5C178.603,678,183.503,678,185.953,678L188.403,678" id="L-A-E-0" class=" edge-thickness-normal edge-pattern-solid flowchart-link LS-A LE-E" style="fill:none;" marker-end="url(#mermaid-1770792675912_flowchart-pointEnd)"></path><path d="M249.43,66L256.643,58C263.855,50,278.279,34,287.941,26C297.603,18,302.503,18,304.953,18L307.403,18" id="L-B-B1-0" class=" edge-thickness-normal edge-pattern-solid flowchart-link LS-B LE-B1" style="fill:none;" marker-end="url(#mermaid-1770792675912_flowchart-pointEnd)"></path><path d="M272.703,84L276.036,84C279.37,84,286.036,84,293.153,84C300.27,84,307.836,84,311.62,84L315.403,84" id="L-B-B2-0" class=" edge-thickness-normal edge-pattern-solid flowchart-link LS-B LE-B2" style="fill:none;" marker-end="url(#mermaid-1770792675912_flowchart-pointEnd)"></path><path d="M249.43,102L256.643,110C263.855,118,278.279,134,291.941,142C305.603,150,318.503,150,324.953,150L331.403,150" id="L-B-B3-0" class=" edge-thickness-normal edge-pattern-solid flowchart-link LS-B LE-B3" style="fill:none;" marker-end="url(#mermaid-1770792675912_flowchart-pointEnd)"></path><path d="M249.43,264L256.643,256C263.855,248,278.279,232,289.274,224C300.27,216,307.836,216,311.62,216L315.403,216" id="L-C-C1-0" class=" edge-thickness-normal edge-pattern-solid flowchart-link LS-C LE-C1" style="fill:none;" marker-end="url(#mermaid-1770792675912_flowchart-pointEnd)"></path><path d="M272.703,282L276.036,282C279.37,282,286.036,282,295.82,282C305.603,282,318.503,282,324.953,282L331.403,282" id="L-C-C2-0" class=" edge-thickness-normal edge-pattern-solid flowchart-link LS-C LE-C2" style="fill:none;" marker-end="url(#mermaid-1770792675912_flowchart-pointEnd)"></path><path d="M249.43,300L256.643,308C263.855,316,278.279,332,291.941,340C305.603,348,318.503,348,324.953,348L331.403,348" id="L-C-C3-0" class=" edge-thickness-normal edge-pattern-solid flowchart-link LS-C LE-C3" style="fill:none;" marker-end="url(#mermaid-1770792675912_flowchart-pointEnd)"></path><path d="M249.43,462L256.643,454C263.855,446,278.279,430,289.274,422C300.27,414,307.836,414,311.62,414L315.403,414" id="L-D-D1-0" class=" edge-thickness-normal edge-pattern-solid flowchart-link LS-D LE-D1" style="fill:none;" marker-end="url(#mermaid-1770792675912_flowchart-pointEnd)"></path><path d="M272.703,480L276.036,480C279.37,480,286.036,480,297.153,480C308.27,480,323.836,480,331.62,480L339.403,480" id="L-D-D2-0" class=" edge-thickness-normal edge-pattern-solid flowchart-link LS-D LE-D2" style="fill:none;" marker-end="url(#mermaid-1770792675912_flowchart-pointEnd)"></path><path d="M249.43,498L256.643,506C263.855,514,278.279,530,291.941,538C305.603,546,318.503,546,324.953,546L331.403,546" id="L-D-D3-0" class=" edge-thickness-normal edge-pattern-solid flowchart-link LS-D LE-D3" style="fill:none;" marker-end="url(#mermaid-1770792675912_flowchart-pointEnd)"></path><path d="M249.43,660L256.643,652C263.855,644,278.279,628,291.941,620C305.603,612,318.503,612,324.953,612L331.403,612" id="L-E-E1-0" class=" edge-thickness-normal edge-pattern-solid flowchart-link LS-E LE-E1" style="fill:none;" marker-end="url(#mermaid-1770792675912_flowchart-pointEnd)"></path><path d="M272.703,678L276.036,678C279.37,678,286.036,678,295.82,678C305.603,678,318.503,678,324.953,678L331.403,678" id="L-E-E2-0" class=" edge-thickness-normal edge-pattern-solid flowchart-link LS-E LE-E2" style="fill:none;" marker-end="url(#mermaid-1770792675912_flowchart-pointEnd)"></path><path d="M249.43,696L256.643,704C263.855,712,278.279,728,291.941,736C305.603,744,318.503,744,324.953,744L331.403,744" id="L-E-E3-0" class=" edge-thickness-normal edge-pattern-solid flowchart-link LS-E LE-E3" style="fill:none;" marker-end="url(#mermaid-1770792675912_flowchart-pointEnd)"></path></g><g class="edgeLabels"><g class="edgeLabel"><g class="label" transform="translate(0, 0)"></g></g><g class="edgeLabel"><g class="label" transform="translate(0, 0)"></g></g><g class="edgeLabel"><g class="label" transform="translate(0, 0)"></g></g><g class="edgeLabel"><g class="label" transform="translate(0, 0)"></g></g><g class="edgeLabel"><g class="label" transform="translate(0, 0)"></g></g><g class="edgeLabel"><g class="label" transform="translate(0, 0)"></g></g><g class="edgeLabel"><g class="label" transform="translate(0, 0)"></g></g><g class="edgeLabel"><g class="label" transform="translate(0, 0)"></g></g><g class="edgeLabel"><g class="label" transform="translate(0, 0)"></g></g><g class="edgeLabel"><g class="label" transform="translate(0, 0)"></g></g><g class="edgeLabel"><g class="label" transform="translate(0, 0)"></g></g><g class="edgeLabel"><g class="label" transform="translate(0, 0)"></g></g><g class="edgeLabel"><g class="label" transform="translate(0, 0)"></g></g><g class="edgeLabel"><g class="label" transform="translate(0, 0)"></g></g><g class="edgeLabel"><g class="label" transform="translate(0, 0)"></g></g><g class="edgeLabel"><g class="label" transform="translate(0, 0)"></g></g></g><g class="nodes"><g class="node default default flowchart-label" id="flowchart-A-111" data-node="true" data-id="A" transform="translate(76.8515625, 381)"><rect class="basic label-container" style="fill:#e1f5ff;" rx="0" ry="0" x="-76.8515625" y="-18" width="153.703125" height="36"></rect><g class="label" style="" transform="translate(-69.3515625, -10.5)"><rect></rect><text x="69.3515625" y="10.5" text-anchor="middle" dominant-baseline="central" font-family="Microsoft YaHei, SimHei, SimSun, Arial, sans-serif" font-size="16" fill="#333"><tspan x="69.3515625" y="10.5" text-anchor="middle">OpenClaw金融应用</tspan></text></g></g><g class="node default default flowchart-label" id="flowchart-B-112" data-node="true" data-id="B" transform="translate(233.203125, 84)"><rect class="basic label-container" style="fill:#ffe1e1;" rx="0" ry="0" x="-39.5" y="-18" width="79" height="36"></rect><g class="label" style="" transform="translate(-32, -10.5)"><rect></rect><text x="32.0" y="10.5" text-anchor="middle" dominant-baseline="central" font-family="Microsoft YaHei, SimHei, SimSun, Arial, sans-serif" font-size="16" fill="#333"><tspan x="32.0" y="10.5" text-anchor="middle">智能投顾</tspan></text></g></g><g class="node default default flowchart-label" id="flowchart-C-114" data-node="true" data-id="C" transform="translate(233.203125, 282)"><rect class="basic label-container" style="fill:#ffe1e1;" rx="0" ry="0" x="-39.5" y="-18" width="79" height="36"></rect><g class="label" style="" transform="translate(-32, -10.5)"><rect></rect><text x="32.0" y="10.5" text-anchor="middle" dominant-baseline="central" font-family="Microsoft YaHei, SimHei, SimSun, Arial, sans-serif" font-size="16" fill="#333"><tspan x="32.0" y="10.5" text-anchor="middle">风险控制</tspan></text></g></g><g class="node default default flowchart-label" id="flowchart-D-116" data-node="true" data-id="D" transform="translate(233.203125, 480)"><rect class="basic label-container" style="fill:#ffe1e1;" rx="0" ry="0" x="-39.5" y="-18" width="79" height="36"></rect><g class="label" style="" transform="translate(-32, -10.5)"><rect></rect><text x="32.0" y="10.5" text-anchor="middle" dominant-baseline="central" font-family="Microsoft YaHei, SimHei, SimSun, Arial, sans-serif" font-size="16" fill="#333"><tspan x="32.0" y="10.5" text-anchor="middle">欺诈检测</tspan></text></g></g><g class="node default default flowchart-label" id="flowchart-E-118" data-node="true" data-id="E" transform="translate(233.203125, 678)"><rect class="basic label-container" style="fill:#ffe1e1;" rx="0" ry="0" x="-39.5" y="-18" width="79" height="36"></rect><g class="label" style="" transform="translate(-32, -10.5)"><rect></rect><text x="32.0" y="10.5" text-anchor="middle" dominant-baseline="central" font-family="Microsoft YaHei, SimHei, SimSun, Arial, sans-serif" font-size="16" fill="#333"><tspan x="32.0" y="10.5" text-anchor="middle">量化交易</tspan></text></g></g><g class="node default default flowchart-label" id="flowchart-B1-120" data-node="true" data-id="B1" transform="translate(376.203125, 18)"><rect class="basic label-container" style="" rx="0" ry="0" x="-63.5" y="-18" width="127" height="36"></rect><g class="label" style="" transform="translate(-56, -10.5)"><rect></rect><text x="56.0" y="10.5" text-anchor="middle" dominant-baseline="central" font-family="Microsoft YaHei, SimHei, SimSun, Arial, sans-serif" font-size="16" fill="#333"><tspan x="56.0" y="10.5" text-anchor="middle">个性化投资建议</tspan></text></g></g><g class="node default default flowchart-label" id="flowchart-B2-122" data-node="true" data-id="B2" transform="translate(376.203125, 84)"><rect class="basic label-container" style="" rx="0" ry="0" x="-55.5" y="-18" width="111" height="36"></rect><g class="label" style="" transform="translate(-48, -10.5)"><rect></rect><text x="48.0" y="10.5" text-anchor="middle" dominant-baseline="central" font-family="Microsoft YaHei, SimHei, SimSun, Arial, sans-serif" font-size="16" fill="#333"><tspan x="48.0" y="10.5" text-anchor="middle">资产配置优化</tspan></text></g></g><g class="node default default flowchart-label" id="flowchart-B3-124" data-node="true" data-id="B3" transform="translate(376.203125, 150)"><rect class="basic label-container" style="" rx="0" ry="0" x="-39.5" y="-18" width="79" height="36"></rect><g class="label" style="" transform="translate(-32, -10.5)"><rect></rect><text x="32.0" y="10.5" text-anchor="middle" dominant-baseline="central" font-family="Microsoft YaHei, SimHei, SimSun, Arial, sans-serif" font-size="16" fill="#333"><tspan x="32.0" y="10.5" text-anchor="middle">理财规划</tspan></text></g></g><g class="node default default flowchart-label" id="flowchart-C1-126" data-node="true" data-id="C1" transform="translate(376.203125, 216)"><rect class="basic label-container" style="" rx="0" ry="0" x="-55.5" y="-18" width="111" height="36"></rect><g class="label" style="" transform="translate(-48, -10.5)"><rect></rect><text x="48.0" y="10.5" text-anchor="middle" dominant-baseline="central" font-family="Microsoft YaHei, SimHei, SimSun, Arial, sans-serif" font-size="16" fill="#333"><tspan x="48.0" y="10.5" text-anchor="middle">实时风险监测</tspan></text></g></g><g class="node default default flowchart-label" id="flowchart-C2-128" data-node="true" data-id="C2" transform="translate(376.203125, 282)"><rect class="basic label-container" style="" rx="0" ry="0" x="-39.5" y="-18" width="79" height="36"></rect><g class="label" style="" transform="translate(-32, -10.5)"><rect></rect><text x="32.0" y="10.5" text-anchor="middle" dominant-baseline="central" font-family="Microsoft YaHei, SimHei, SimSun, Arial, sans-serif" font-size="16" fill="#333"><tspan x="32.0" y="10.5" text-anchor="middle">信用评估</tspan></text></g></g><g class="node default default flowchart-label" id="flowchart-C3-130" data-node="true" data-id="C3" transform="translate(376.203125, 348)"><rect class="basic label-container" style="" rx="0" ry="0" x="-39.5" y="-18" width="79" height="36"></rect><g class="label" style="" transform="translate(-32, -10.5)"><rect></rect><text x="32.0" y="10.5" text-anchor="middle" dominant-baseline="central" font-family="Microsoft YaHei, SimHei, SimSun, Arial, sans-serif" font-size="16" fill="#333"><tspan x="32.0" y="10.5" text-anchor="middle">合规监控</tspan></text></g></g><g class="node default default flowchart-label" id="flowchart-D1-132" data-node="true" data-id="D1" transform="translate(376.203125, 414)"><rect class="basic label-container" style="" rx="0" ry="0" x="-55.5" y="-18" width="111" height="36"></rect><g class="label" style="" transform="translate(-48, -10.5)"><rect></rect><text x="48.0" y="10.5" text-anchor="middle" dominant-baseline="central" font-family="Microsoft YaHei, SimHei, SimSun, Arial, sans-serif" font-size="16" fill="#333"><tspan x="48.0" y="10.5" text-anchor="middle">异常交易识别</tspan></text></g></g><g class="node default default flowchart-label" id="flowchart-D2-134" data-node="true" data-id="D2" transform="translate(376.203125, 480)"><rect class="basic label-container" style="" rx="0" ry="0" x="-31.5" y="-18" width="63" height="36"></rect><g class="label" style="" transform="translate(-24, -10.5)"><rect></rect><text x="24.0" y="10.5" text-anchor="middle" dominant-baseline="central" font-family="Microsoft YaHei, SimHei, SimSun, Arial, sans-serif" font-size="16" fill="#333"><tspan x="24.0" y="10.5" text-anchor="middle">反洗钱</tspan></text></g></g><g class="node default default flowchart-label" id="flowchart-D3-136" data-node="true" data-id="D3" transform="translate(376.203125, 546)"><rect class="basic label-container" style="" rx="0" ry="0" x="-39.5" y="-18" width="79" height="36"></rect><g class="label" style="" transform="translate(-32, -10.5)"><rect></rect><text x="32.0" y="10.5" text-anchor="middle" dominant-baseline="central" font-family="Microsoft YaHei, SimHei, SimSun, Arial, sans-serif" font-size="16" fill="#333"><tspan x="32.0" y="10.5" text-anchor="middle">账户安全</tspan></text></g></g><g class="node default default flowchart-label" id="flowchart-E1-138" data-node="true" data-id="E1" transform="translate(376.203125, 612)"><rect class="basic label-container" style="" rx="0" ry="0" x="-39.5" y="-18" width="79" height="36"></rect><g class="label" style="" transform="translate(-32, -10.5)"><rect></rect><text x="32.0" y="10.5" text-anchor="middle" dominant-baseline="central" font-family="Microsoft YaHei, SimHei, SimSun, Arial, sans-serif" font-size="16" fill="#333"><tspan x="32.0" y="10.5" text-anchor="middle">策略研究</tspan></text></g></g><g class="node default default flowchart-label" id="flowchart-E2-140" data-node="true" data-id="E2" transform="translate(376.203125, 678)"><rect class="basic label-container" style="" rx="0" ry="0" x="-39.5" y="-18" width="79" height="36"></rect><g class="label" style="" transform="translate(-32, -10.5)"><rect></rect><text x="32.0" y="10.5" text-anchor="middle" dominant-baseline="central" font-family="Microsoft YaHei, SimHei, SimSun, Arial, sans-serif" font-size="16" fill="#333"><tspan x="32.0" y="10.5" text-anchor="middle">自动执行</tspan></text></g></g><g class="node default default flowchart-label" id="flowchart-E3-142" data-node="true" data-id="E3" transform="translate(376.203125, 744)"><rect class="basic label-container" style="" rx="0" ry="0" x="-39.5" y="-18" width="79" height="36"></rect><g class="label" style="" transform="translate(-32, -10.5)"><rect></rect><text x="32.0" y="10.5" text-anchor="middle" dominant-baseline="central" font-family="Microsoft YaHei, SimHei, SimSun, Arial, sans-serif" font-size="16" fill="#333"><tspan x="32.0" y="10.5" text-anchor="middle">绩效分析</tspan></text></g></g></g></g></g></svg>