<?xml version="1.0" encoding="UTF-8"?>
<svg id="mermaid-1770792794585" width="524.140625" xmlns="http://www.w3.org/2000/svg" xmlns:xlink="http://www.w3.org/1999/xlink" height="421.25" viewBox="-20 -20 524.140625 421.25" role="graphics-document document" aria-roledescription="flowchart-v2"><style>#mermaid-1770792794585{font-family:Microsoft YaHei,SimHei,SimSun,Arial,sans-serif;font-size:16px;fill:#333;}#mermaid-1770792794585 .error-icon{fill:#552222;}#mermaid-1770792794585 .error-text{fill:#552222;stroke:#552222;}#mermaid-1770792794585 .edge-thickness-normal{stroke-width:2px;}#mermaid-1770792794585 .edge-thickness-thick{stroke-width:3.5px;}#mermaid-1770792794585 .edge-pattern-solid{stroke-dasharray:0;}#mermaid-1770792794585 .edge-pattern-dashed{stroke-dasharray:3;}#mermaid-1770792794585 .edge-pattern-dotted{stroke-dasharray:2;}#mermaid-1770792794585 .marker{fill:#333333;stroke:#333333;}#mermaid-1770792794585 .marker.cross{stroke:#333333;}#mermaid-1770792794585 svg{font-family:Microsoft YaHei,SimHei,SimSun,Arial,sans-serif;font-size:16px;}#mermaid-1770792794585 .label{font-family:Microsoft YaHei,SimHei,SimSun,Arial,sans-serif;color:#333;}#mermaid-1770792794585 .cluster-label text{fill:#333;}#mermaid-1770792794585 .cluster-label span,#mermaid-1770792794585 p{color:#333;}#mermaid-1770792794585 .label text,#mermaid-1770792794585 span,#mermaid-1770792794585 p{fill:#333;color:#333;}#mermaid-1770792794585 .node rect,#mermaid-1770792794585 .node circle,#mermaid-1770792794585 .node ellipse,#mermaid-1770792794585 .node polygon,#mermaid-1770792794585 .node path{fill:#ECECFF;stroke:#9370DB;stroke-width:1px;}#mermaid-1770792794585 .flowchart-label text{text-anchor:middle;}#mermaid-1770792794585 .node .katex path{fill:#000;stroke:#000;stroke-width:1px;}#mermaid-1770792794585 .node .label{text-align:center;}#mermaid-1770792794585 .node.clickable{cursor:pointer;}#mermaid-1770792794585 .arrowheadPath{fill:#333333;}#mermaid-1770792794585 .edgePath .path{stroke:#333333;stroke-width:2.0px;}#mermaid-1770792794585 .flowchart-link{stroke:#333333;fill:none;}#mermaid-1770792794585 .edgeLabel{background-color:#e8e8e8;text-align:center;}#mermaid-1770792794585 .edgeLabel rect{opacity:0.5;background-color:#e8e8e8;fill:#e8e8e8;}#mermaid-1770792794585 .labelBkg{background-color:rgba(232, 232, 232, 0.5);}#mermaid-1770792794585 .cluster rect{fill:#ffffde;stroke:#aaaa33;stroke-width:1px;}#mermaid-1770792794585 .cluster text{fill:#333;}#mermaid-1770792794585 .cluster span,#mermaid-1770792794585 p{color:#333;}#mermaid-1770792794585 div.mermaidTooltip{position:absolute;text-align:center;max-width:200px;padding:2px;font-family:Microsoft YaHei,SimHei,SimSun,Arial,sans-serif;font-size:12px;background:#F9FFEC;border:1px solid #aaaa33;border-radius:2px;pointer-events:none;z-index:100;}#mermaid-1770792794585 .flowchartTitleText{text-anchor:middle;font-size:18px;fill:#333;}#mermaid-1770792794585 :root{--mermaid-font-family:Microsoft YaHei,SimHei,SimSun,Arial,sans-serif;}</style><g><marker id="mermaid-1770792794585_flowchart-pointEnd" class="marker flowchart" viewBox="0 0 10 10" refX="6" refY="5" markerUnits="userSpaceOnUse" markerWidth="12" markerHeight="12" orient="auto"><path d="M 0 0 L 10 5 L 0 10 z" class="arrowMarkerPath" style="stroke-width: 1; stroke-dasharray: 1, 0;"></path></marker><marker id="mermaid-1770792794585_flowchart-pointStart" class="marker flowchart" viewBox="0 0 10 10" refX="4.5" refY="5" markerUnits="userSpaceOnUse" markerWidth="12" markerHeight="12" orient="auto"><path d="M 0 5 L 10 10 L 10 0 z" class="arrowMarkerPath" style="stroke-width: 1; stroke-dasharray: 1, 0;"></path></marker><marker id="mermaid-1770792794585_flowchart-circleEnd" class="marker flowchart" viewBox="0 0 10 10" refX="11" refY="5" markerUnits="userSpaceOnUse" markerWidth="11" markerHeight="11" orient="auto"><circle cx="5" cy="5" r="5" class="arrowMarkerPath" style="stroke-width: 1; stroke-dasharray: 1, 0;"></circle></marker><marker id="mermaid-1770792794585_flowchart-circleStart" class="marker flowchart" viewBox="0 0 10 10" refX="-1" refY="5" markerUnits="userSpaceOnUse" markerWidth="11" markerHeight="11" orient="auto"><circle cx="5" cy="5" r="5" class="arrowMarkerPath" style="stroke-width: 1; stroke-dasharray: 1, 0;"></circle></marker><marker id="mermaid-1770792794585_flowchart-crossEnd" class="marker cross flowchart" viewBox="0 0 11 11" refX="12" refY="5.2" markerUnits="userSpaceOnUse" markerWidth="11" markerHeight="11" orient="auto"><path d="M 1,1 l 9,9 M 10,1 l -9,9" class="arrowMarkerPath" style="stroke-width: 2; stroke-dasharray: 1, 0;"></path></marker><marker id="mermaid-1770792794585_flowchart-crossStart" class="marker cross flowchart" viewBox="0 0 11 11" refX="-1" refY="5.2" markerUnits="userSpaceOnUse" markerWidth="11" markerHeight="11" orient="auto"><path d="M 1,1 l 9,9 M 10,1 l -9,9" class="arrowMarkerPath" style="stroke-width: 2; stroke-dasharray: 1, 0;"></path></marker><g class="root"><g class="clusters"></g><g class="edgePaths"><path d="M65.744,213.25L77.811,180.708C89.877,148.167,114.009,83.083,132.525,50.542C151.041,18,163.941,18,170.391,18L176.841,18" id="L-A-A1-0" class=" edge-thickness-normal edge-pattern-solid flowchart-link LS-A LE-A1" style="fill:none;" marker-end="url(#mermaid-1770792794585_flowchart-pointEnd)"></path><path d="M68.736,213.25L80.303,191.708C91.871,170.167,115.006,127.083,134.357,105.542C153.707,84,169.274,84,177.057,84L184.841,84" id="L-A-A2-0" class=" edge-thickness-normal edge-pattern-solid flowchart-link LS-A LE-A2" style="fill:none;" marker-end="url(#mermaid-1770792794585_flowchart-pointEnd)"></path><path d="M118.141,231.25L121.474,231.25C124.807,231.25,131.474,231.25,137.257,231.25C143.041,231.25,147.941,231.25,150.391,231.25L152.841,231.25" id="L-A-A3-0" class=" edge-thickness-normal edge-pattern-solid flowchart-link LS-A LE-A3" style="fill:none;" marker-end="url(#mermaid-1770792794585_flowchart-pointEnd)"></path><path d="M80.635,249.25L90.219,257.25C99.804,265.25,118.972,281.25,136.34,289.25C153.707,297.25,169.274,297.25,177.057,297.25L184.841,297.25" id="L-A-A4-0" class=" edge-thickness-normal edge-pattern-solid flowchart-link LS-A LE-A4" style="fill:none;" marker-end="url(#mermaid-1770792794585_flowchart-pointEnd)"></path><path d="M69.853,249.25L81.234,268.25C92.615,287.25,115.378,325.25,133.209,344.25C151.041,363.25,163.941,363.25,170.391,363.25L176.841,363.25" id="L-A-A5-0" class=" edge-thickness-normal edge-pattern-solid flowchart-link LS-A LE-A5" style="fill:none;" marker-end="url(#mermaid-1770792794585_flowchart-pointEnd)"></path><path d="M241.548,147.25L257.48,123.167C273.412,99.083,305.277,50.917,329.004,28.133C352.731,5.348,368.322,7.947,376.117,9.246L383.913,10.545" id="L-B-B1-0" class=" edge-thickness-normal edge-pattern-solid flowchart-link LS-B LE-B1" style="fill:none;" marker-end="url(#mermaid-1770792794585_flowchart-pointEnd)"></path><path d="M249.186,147.25L263.845,133.75C278.504,120.25,307.822,93.25,330.281,81.263C352.74,69.276,368.339,72.302,376.138,73.815L383.938,75.328" id="L-B-B2-0" class=" edge-thickness-normal edge-pattern-solid flowchart-link LS-B LE-B2" style="fill:none;" marker-end="url(#mermaid-1770792794585_flowchart-pointEnd)"></path><path d="M290.492,165.25L298.267,165.25C306.042,165.25,321.591,165.25,335.467,167.45C349.342,169.651,361.544,174.051,367.645,176.252L373.746,178.452" id="L-B-B3-0" class=" edge-thickness-normal edge-pattern-solid flowchart-link LS-B LE-B3" style="fill:none;" marker-end="url(#mermaid-1770792794585_flowchart-pointEnd)"></path><path d="M249.186,183.25L263.845,196.75C278.504,210.25,307.822,237.25,327.614,251.746C347.406,266.241,357.672,268.233,362.805,269.229L367.938,270.224" id="L-B-B4-0" class=" edge-thickness-normal edge-pattern-solid flowchart-link LS-B LE-B4" style="fill:none;" marker-end="url(#mermaid-1770792794585_flowchart-pointEnd)"></path><path d="M241.368,183.25L257.33,207.75C273.292,232.25,305.216,281.25,329.014,308.576C352.812,335.902,368.484,341.554,376.319,344.38L384.155,347.206" id="L-B-B5-0" class=" edge-thickness-normal edge-pattern-solid flowchart-link LS-B LE-B5" style="fill:none;" marker-end="url(#mermaid-1770792794585_flowchart-pointEnd)"></path><path d="M277.141,24.738L287.141,26.157C297.141,27.576,317.141,30.413,334.936,30.532C352.731,30.652,368.322,28.053,376.117,26.754L383.913,25.455" id="L-A1-B1-0" class=" edge-thickness-normal edge-pattern-dotted flowchart-link LS-A1 LE-B1" style="fill:none;stroke-width:2px;stroke-dasharray:3;" marker-end="url(#mermaid-1770792794585_flowchart-pointEnd)"></path><path d="M269.141,89.603L280.474,91.211C291.807,92.819,314.474,96.034,333.603,96.343C352.731,96.652,368.322,94.053,376.117,92.754L383.913,91.455" id="L-A2-B2-0" class=" edge-thickness-normal edge-pattern-dotted flowchart-link LS-A2 LE-B2" style="fill:none;stroke-width:2px;stroke-dasharray:3;" marker-end="url(#mermaid-1770792794585_flowchart-pointEnd)"></path><path d="M301.141,231.25L307.141,231.25C313.141,231.25,325.141,231.25,337.241,229.05C349.342,226.849,361.544,222.449,367.645,220.248L373.746,218.048" id="L-A3-B3-0" class=" edge-thickness-normal edge-pattern-dotted flowchart-link LS-A3 LE-B3" style="fill:none;stroke-width:2px;stroke-dasharray:3;" marker-end="url(#mermaid-1770792794585_flowchart-pointEnd)"></path><path d="M269.141,297.25L280.474,297.25C291.807,297.25,314.474,297.25,330.936,296.395C347.398,295.54,357.655,293.831,362.784,292.976L367.913,292.121" id="L-A4-B4-0" class=" edge-thickness-normal edge-pattern-dotted flowchart-link LS-A4 LE-B4" style="fill:none;stroke-width:2px;stroke-dasharray:3;" marker-end="url(#mermaid-1770792794585_flowchart-pointEnd)"></path><path d="M277.141,363.25L287.141,363.25C297.141,363.25,317.141,363.25,334.924,363.25C352.707,363.25,368.274,363.25,376.057,363.25L383.841,363.25" id="L-A5-B5-0" class=" edge-thickness-normal edge-pattern-dotted flowchart-link LS-A5 LE-B5" style="fill:none;stroke-width:2px;stroke-dasharray:3;" marker-end="url(#mermaid-1770792794585_flowchart-pointEnd)"></path></g><g class="edgeLabels"><g class="edgeLabel"><g class="label" transform="translate(0, 0)"></g></g><g class="edgeLabel"><g class="label" transform="translate(0, 0)"></g></g><g class="edgeLabel"><g class="label" transform="translate(0, 0)"></g></g><g class="edgeLabel"><g class="label" transform="translate(0, 0)"></g></g><g class="edgeLabel"><g class="label" transform="translate(0, 0)"></g></g><g class="edgeLabel"><g class="label" transform="translate(0, 0)"></g></g><g class="edgeLabel"><g class="label" transform="translate(0, 0)"></g></g><g class="edgeLabel"><g class="label" transform="translate(0, 0)"></g></g><g class="edgeLabel"><g class="label" transform="translate(0, 0)"></g></g><g class="edgeLabel"><g class="label" transform="translate(0, 0)"></g></g><g class="edgeLabel" transform="translate(337.140625, 33.25)"><g class="label" transform="translate(-16, -10.5)"><text x="16.0" y="10.5" text-anchor="middle" dominant-baseline="central" font-family="Microsoft YaHei, SimHei, SimSun, Arial, sans-serif" font-size="16" fill="#333"><tspan x="16.0" y="10.5" text-anchor="middle">转变</tspan></text></g></g><g class="edgeLabel" transform="translate(337.140625, 99.25)"><g class="label" transform="translate(-16, -10.5)"><text x="16.0" y="10.5" text-anchor="middle" dominant-baseline="central" font-family="Microsoft YaHei, SimHei, SimSun, Arial, sans-serif" font-size="16" fill="#333"><tspan x="16.0" y="10.5" text-anchor="middle">转变</tspan></text></g></g><g class="edgeLabel" transform="translate(337.140625, 231.25)"><g class="label" transform="translate(-16, -10.5)"><text x="16.0" y="10.5" text-anchor="middle" dominant-baseline="central" font-family="Microsoft YaHei, SimHei, SimSun, Arial, sans-serif" font-size="16" fill="#333"><tspan x="16.0" y="10.5" text-anchor="middle">转变</tspan></text></g></g><g class="edgeLabel" transform="translate(337.140625, 297.25)"><g class="label" transform="translate(-16, -10.5)"><text x="16.0" y="10.5" text-anchor="middle" dominant-baseline="central" font-family="Microsoft YaHei, SimHei, SimSun, Arial, sans-serif" font-size="16" fill="#333"><tspan x="16.0" y="10.5" text-anchor="middle">转变</tspan></text></g></g><g class="edgeLabel" transform="translate(337.140625, 363.25)"><g class="label" transform="translate(-16, -10.5)"><text x="16.0" y="10.5" text-anchor="middle" dominant-baseline="central" font-family="Microsoft YaHei, SimHei, SimSun, Arial, sans-serif" font-size="16" fill="#333"><tspan x="16.0" y="10.5" text-anchor="middle">转变</tspan></text></g></g></g><g class="nodes"><g class="node default default flowchart-label" id="flowchart-A-0" data-node="true" data-id="A" transform="translate(59.0703125, 231.25)"><rect class="basic label-container" style="fill:#ffe1e1;" rx="0" ry="0" x="-59.0703125" y="-18" width="118.140625" height="36"></rect><g class="label" style="" transform="translate(-51.5703125, -10.5)"><rect></rect><text x="51.5703125" y="10.5" text-anchor="middle" dominant-baseline="central" font-family="Microsoft YaHei, SimHei, SimSun, Arial, sans-serif" font-size="16" fill="#333"><tspan x="51.5703125" y="10.5" text-anchor="middle">传统SaaS模式</tspan></text></g></g><g class="node default default flowchart-label" id="flowchart-A1-1" data-node="true" data-id="A1" transform="translate(229.640625, 18)"><rect class="basic label-container" style="fill:#fff4e1;" rx="0" ry="0" x="-47.5" y="-18" width="95" height="36"></rect><g class="label" style="" transform="translate(-40, -10.5)"><rect></rect><text x="40.0" y="10.5" text-anchor="middle" dominant-baseline="central" font-family="Microsoft YaHei, SimHei, SimSun, Arial, sans-serif" font-size="16" fill="#333"><tspan x="40.0" y="10.5" text-anchor="middle">订阅制收费</tspan></text></g></g><g class="node default default flowchart-label" id="flowchart-A2-3" data-node="true" data-id="A2" transform="translate(229.640625, 84)"><rect class="basic label-container" style="" rx="0" ry="0" x="-39.5" y="-18" width="79" height="36"></rect><g class="label" style="" transform="translate(-32, -10.5)"><rect></rect><text x="32.0" y="10.5" text-anchor="middle" dominant-baseline="central" font-family="Microsoft YaHei, SimHei, SimSun, Arial, sans-serif" font-size="16" fill="#333"><tspan x="32.0" y="10.5" text-anchor="middle">云端部署</tspan></text></g></g><g class="node default default flowchart-label" id="flowchart-A3-5" data-node="true" data-id="A3" transform="translate(229.640625, 231.25)"><rect class="basic label-container" style="" rx="0" ry="0" x="-71.5" y="-18" width="143" height="36"></rect><g class="label" style="" transform="translate(-64, -10.5)"><rect></rect><text x="64.0" y="10.5" text-anchor="middle" dominant-baseline="central" font-family="Microsoft YaHei, SimHei, SimSun, Arial, sans-serif" font-size="16" fill="#333"><tspan x="64.0" y="10.5" text-anchor="middle">数据存储在服务商</tspan></text></g></g><g class="node default default flowchart-label" id="flowchart-A4-7" data-node="true" data-id="A4" transform="translate(229.640625, 297.25)"><rect class="basic label-container" style="" rx="0" ry="0" x="-39.5" y="-18" width="79" height="36"></rect><g class="label" style="" transform="translate(-32, -10.5)"><rect></rect><text x="32.0" y="10.5" text-anchor="middle" dominant-baseline="central" font-family="Microsoft YaHei, SimHei, SimSun, Arial, sans-serif" font-size="16" fill="#333"><tspan x="32.0" y="10.5" text-anchor="middle">封闭创新</tspan></text></g></g><g class="node default default flowchart-label" id="flowchart-A5-9" data-node="true" data-id="A5" transform="translate(229.640625, 363.25)"><rect class="basic label-container" style="" rx="0" ry="0" x="-47.5" y="-18" width="95" height="36"></rect><g class="label" style="" transform="translate(-40, -10.5)"><rect></rect><text x="40.0" y="10.5" text-anchor="middle" dominant-baseline="central" font-family="Microsoft YaHei, SimHei, SimSun, Arial, sans-serif" font-size="16" fill="#333"><tspan x="40.0" y="10.5" text-anchor="middle">标准化服务</tspan></text></g></g><g class="node default default flowchart-label" id="flowchart-B-10" data-node="true" data-id="B" transform="translate(229.640625, 165.25)"><rect class="basic label-container" style="fill:#e1ffe1;" rx="0" ry="0" x="-60.8515625" y="-18" width="121.703125" height="36"></rect><g class="label" style="" transform="translate(-53.3515625, -10.5)"><rect></rect><text x="53.3515625" y="10.5" text-anchor="middle" dominant-baseline="central" font-family="Microsoft YaHei, SimHei, SimSun, Arial, sans-serif" font-size="16" fill="#333"><tspan x="53.3515625" y="10.5" text-anchor="middle">OpenClaw模式</tspan></text></g></g><g class="node default default flowchart-label" id="flowchart-B1-11" data-node="true" data-id="B1" transform="translate(428.640625, 18)"><rect class="basic label-container" style="fill:#e1f5ff;" rx="0" ry="0" x="-39.5" y="-18" width="79" height="36"></rect><g class="label" style="" transform="translate(-32, -10.5)"><rect></rect><text x="32.0" y="10.5" text-anchor="middle" dominant-baseline="central" font-family="Microsoft YaHei, SimHei, SimSun, Arial, sans-serif" font-size="16" fill="#333"><tspan x="32.0" y="10.5" text-anchor="middle">开源免费</tspan></text></g></g><g class="node default default flowchart-label" id="flowchart-B2-13" data-node="true" data-id="B2" transform="translate(428.640625, 84)"><rect class="basic label-container" style="" rx="0" ry="0" x="-39.5" y="-18" width="79" height="36"></rect><g class="label" style="" transform="translate(-32, -10.5)"><rect></rect><text x="32.0" y="10.5" text-anchor="middle" dominant-baseline="central" font-family="Microsoft YaHei, SimHei, SimSun, Arial, sans-serif" font-size="16" fill="#333"><tspan x="32.0" y="10.5" text-anchor="middle">本地部署</tspan></text></g></g><g class="node default default flowchart-label" id="flowchart-B3-15" data-node="true" data-id="B3" transform="translate(428.640625, 198.25)"><rect class="basic label-container" style="" rx="0" ry="0" x="-55.5" y="-18" width="111" height="36"></rect><g class="label" style="" transform="translate(-48, -10.5)"><rect></rect><text x="48.0" y="10.5" text-anchor="middle" dominant-baseline="central" font-family="Microsoft YaHei, SimHei, SimSun, Arial, sans-serif" font-size="16" fill="#333"><tspan x="48.0" y="10.5" text-anchor="middle">用户控制数据</tspan></text></g></g><g class="node default default flowchart-label" id="flowchart-B4-17" data-node="true" data-id="B4" transform="translate(428.640625, 282)"><rect class="basic label-container" style="" rx="0" ry="0" x="-55.5" y="-18" width="111" height="36"></rect><g class="label" style="" transform="translate(-48, -10.5)"><rect></rect><text x="48.0" y="10.5" text-anchor="middle" dominant-baseline="central" font-family="Microsoft YaHei, SimHei, SimSun, Arial, sans-serif" font-size="16" fill="#333"><tspan x="48.0" y="10.5" text-anchor="middle">社区驱动创新</tspan></text></g></g><g class="node default default flowchart-label" id="flowchart-B5-19" data-node="true" data-id="B5" transform="translate(428.640625, 363.25)"><rect class="basic label-container" style="" rx="0" ry="0" x="-39.5" y="-18" width="79" height="36"></rect><g class="label" style="" transform="translate(-32, -10.5)"><rect></rect><text x="32.0" y="10.5" text-anchor="middle" dominant-baseline="central" font-family="Microsoft YaHei, SimHei, SimSun, Arial, sans-serif" font-size="16" fill="#333"><tspan x="32.0" y="10.5" text-anchor="middle">可定制化</tspan></text></g></g></g></g></g></svg>