<?xml version="1.0" encoding="UTF-8"?>
<svg id="mermaid-1770792675490" width="1366" xmlns="http://www.w3.org/2000/svg" xmlns:xlink="http://www.w3.org/1999/xlink" height="228" viewBox="-20 -20 1366 228" role="graphics-document document" aria-roledescription="flowchart-v2"><style>#mermaid-1770792675490{font-family:Microsoft YaHei,SimHei,SimSun,Arial,sans-serif;font-size:16px;fill:#333;}#mermaid-1770792675490 .error-icon{fill:#552222;}#mermaid-1770792675490 .error-text{fill:#552222;stroke:#552222;}#mermaid-1770792675490 .edge-thickness-normal{stroke-width:2px;}#mermaid-1770792675490 .edge-thickness-thick{stroke-width:3.5px;}#mermaid-1770792675490 .edge-pattern-solid{stroke-dasharray:0;}#mermaid-1770792675490 .edge-pattern-dashed{stroke-dasharray:3;}#mermaid-1770792675490 .edge-pattern-dotted{stroke-dasharray:2;}#mermaid-1770792675490 .marker{fill:#333333;stroke:#333333;}#mermaid-1770792675490 .marker.cross{stroke:#333333;}#mermaid-1770792675490 svg{font-family:Microsoft YaHei,SimHei,SimSun,Arial,sans-serif;font-size:16px;}#mermaid-1770792675490 .label{font-family:Microsoft YaHei,SimHei,SimSun,Arial,sans-serif;color:#333;}#mermaid-1770792675490 .cluster-label text{fill:#333;}#mermaid-1770792675490 .cluster-label span,#mermaid-1770792675490 p{color:#333;}#mermaid-1770792675490 .label text,#mermaid-1770792675490 span,#mermaid-1770792675490 p{fill:#333;color:#333;}#mermaid-1770792675490 .node rect,#mermaid-1770792675490 .node circle,#mermaid-1770792675490 .node ellipse,#mermaid-1770792675490 .node polygon,#mermaid-1770792675490 .node path{fill:#ECECFF;stroke:#9370DB;stroke-width:1px;}#mermaid-1770792675490 .flowchart-label text{text-anchor:middle;}#mermaid-1770792675490 .node .katex path{fill:#000;stroke:#000;stroke-width:1px;}#mermaid-1770792675490 .node .label{text-align:center;}#mermaid-1770792675490 .node.clickable{cursor:pointer;}#mermaid-1770792675490 .arrowheadPath{fill:#333333;}#mermaid-1770792675490 .edgePath .path{stroke:#333333;stroke-width:2.0px;}#mermaid-1770792675490 .flowchart-link{stroke:#333333;fill:none;}#mermaid-1770792675490 .edgeLabel{background-color:#e8e8e8;text-align:center;}#mermaid-1770792675490 .edgeLabel rect{opacity:0.5;background-color:#e8e8e8;fill:#e8e8e8;}#mermaid-1770792675490 .labelBkg{background-color:rgba(232, 232, 232, 0.5);}#mermaid-1770792675490 .cluster rect{fill:#ffffde;stroke:#aaaa33;stroke-width:1px;}#mermaid-1770792675490 .cluster text{fill:#333;}#mermaid-1770792675490 .cluster span,#mermaid-1770792675490 p{color:#333;}#mermaid-1770792675490 div.mermaidTooltip{position:absolute;text-align:center;max-width:200px;padding:2px;font-family:Microsoft YaHei,SimHei,SimSun,Arial,sans-serif;font-size:12px;background:#F9FFEC;border:1px solid #aaaa33;border-radius:2px;pointer-events:none;z-index:100;}#mermaid-1770792675490 .flowchartTitleText{text-anchor:middle;font-size:18px;fill:#333;}#mermaid-1770792675490 :root{--mermaid-font-family:Microsoft YaHei,SimHei,SimSun,Arial,sans-serif;}</style><g><marker id="mermaid-1770792675490_flowchart-pointEnd" class="marker flowchart" viewBox="0 0 10 10" refX="6" refY="5" markerUnits="userSpaceOnUse" markerWidth="12" markerHeight="12" orient="auto"><path d="M 0 0 L 10 5 L 0 10 z" class="arrowMarkerPath" style="stroke-width: 1; stroke-dasharray: 1, 0;"></path></marker><marker id="mermaid-1770792675490_flowchart-pointStart" class="marker flowchart" viewBox="0 0 10 10" refX="4.5" refY="5" markerUnits="userSpaceOnUse" markerWidth="12" markerHeight="12" orient="auto"><path d="M 0 5 L 10 10 L 10 0 z" class="arrowMarkerPath" style="stroke-width: 1; stroke-dasharray: 1, 0;"></path></marker><marker id="mermaid-1770792675490_flowchart-circleEnd" class="marker flowchart" viewBox="0 0 10 10" refX="11" refY="5" markerUnits="userSpaceOnUse" markerWidth="11" markerHeight="11" orient="auto"><circle cx="5" cy="5" r="5" class="arrowMarkerPath" style="stroke-width: 1; stroke-dasharray: 1, 0;"></circle></marker><marker id="mermaid-1770792675490_flowchart-circleStart" class="marker flowchart" viewBox="0 0 10 10" refX="-1" refY="5" markerUnits="userSpaceOnUse" markerWidth="11" markerHeight="11" orient="auto"><circle cx="5" cy="5" r="5" class="arrowMarkerPath" style="stroke-width: 1; stroke-dasharray: 1, 0;"></circle></marker><marker id="mermaid-1770792675490_flowchart-crossEnd" class="marker cross flowchart" viewBox="0 0 11 11" refX="12" refY="5.2" markerUnits="userSpaceOnUse" markerWidth="11" markerHeight="11" orient="auto"><path d="M 1,1 l 9,9 M 10,1 l -9,9" class="arrowMarkerPath" style="stroke-width: 2; stroke-dasharray: 1, 0;"></path></marker><marker id="mermaid-1770792675490_flowchart-crossStart" class="marker cross flowchart" viewBox="0 0 11 11" refX="-1" refY="5.2" markerUnits="userSpaceOnUse" markerWidth="11" markerHeight="11" orient="auto"><path d="M 1,1 l 9,9 M 10,1 l -9,9" class="arrowMarkerPath" style="stroke-width: 2; stroke-dasharray: 1, 0;"></path></marker><g class="root"><g class="clusters"></g><g class="edgePaths"><path d="M586.148,24.171L513.207,29.476C440.266,34.781,294.383,45.39,221.441,53.145C148.5,60.9,148.5,65.8,148.5,68.25L148.5,70.7" id="L-A-B-0" class=" edge-thickness-normal edge-pattern-solid flowchart-link LS-A LE-B" style="fill:none;" marker-end="url(#mermaid-1770792675490_flowchart-pointEnd)"></path><path d="M593.553,36L579.211,39.333C564.868,42.667,536.184,49.333,521.842,55.117C507.5,60.9,507.5,65.8,507.5,68.25L507.5,70.7" id="L-A-C-0" class=" edge-thickness-normal edge-pattern-solid flowchart-link LS-A LE-C" style="fill:none;" marker-end="url(#mermaid-1770792675490_flowchart-pointEnd)"></path><path d="M748.447,36L762.789,39.333C777.132,42.667,805.816,49.333,820.158,55.117C834.5,60.9,834.5,65.8,834.5,68.25L834.5,70.7" id="L-A-D-0" class=" edge-thickness-normal edge-pattern-solid flowchart-link LS-A LE-D" style="fill:none;" marker-end="url(#mermaid-1770792675490_flowchart-pointEnd)"></path><path d="M755.852,24.366L826.126,29.638C896.401,34.911,1036.951,45.455,1107.225,53.178C1177.5,60.9,1177.5,65.8,1177.5,68.25L1177.5,70.7" id="L-A-E-0" class=" edge-thickness-normal edge-pattern-solid flowchart-link LS-A LE-E" style="fill:none;" marker-end="url(#mermaid-1770792675490_flowchart-pointEnd)"></path><path d="M96.868,112L87.307,115.333C77.746,118.667,58.623,125.333,49.061,131.117C39.5,136.9,39.5,141.8,39.5,144.25L39.5,146.7" id="L-B-B1-0" class=" edge-thickness-normal edge-pattern-solid flowchart-link LS-B LE-B1" style="fill:none;" marker-end="url(#mermaid-1770792675490_flowchart-pointEnd)"></path><path d="M148.5,112L148.5,115.333C148.5,118.667,148.5,125.333,148.5,131.117C148.5,136.9,148.5,141.8,148.5,144.25L148.5,146.7" id="L-B-B2-0" class=" edge-thickness-normal edge-pattern-solid flowchart-link LS-B LE-B2" style="fill:none;" marker-end="url(#mermaid-1770792675490_flowchart-pointEnd)"></path><path d="M200.132,112L209.693,115.333C219.254,118.667,238.377,125.333,247.939,131.117C257.5,136.9,257.5,141.8,257.5,144.25L257.5,146.7" id="L-B-B3-0" class=" edge-thickness-normal edge-pattern-solid flowchart-link LS-B LE-B3" style="fill:none;" marker-end="url(#mermaid-1770792675490_flowchart-pointEnd)"></path><path d="M468,106.008L453.75,110.34C439.5,114.672,411,123.336,396.75,130.118C382.5,136.9,382.5,141.8,382.5,144.25L382.5,146.7" id="L-C-C1-0" class=" edge-thickness-normal edge-pattern-solid flowchart-link LS-C LE-C1" style="fill:none;" marker-end="url(#mermaid-1770792675490_flowchart-pointEnd)"></path><path d="M507.5,112L507.5,115.333C507.5,118.667,507.5,125.333,507.5,131.117C507.5,136.9,507.5,141.8,507.5,144.25L507.5,146.7" id="L-C-C2-0" class=" edge-thickness-normal edge-pattern-solid flowchart-link LS-C LE-C2" style="fill:none;" marker-end="url(#mermaid-1770792675490_flowchart-pointEnd)"></path><path d="M547,107.771L558.583,111.809C570.167,115.847,593.333,123.924,604.917,130.412C616.5,136.9,616.5,141.8,616.5,144.25L616.5,146.7" id="L-C-C3-0" class=" edge-thickness-normal edge-pattern-solid flowchart-link LS-C LE-C3" style="fill:none;" marker-end="url(#mermaid-1770792675490_flowchart-pointEnd)"></path><path d="M795,107.771L783.417,111.809C771.833,115.847,748.667,123.924,737.083,130.412C725.5,136.9,725.5,141.8,725.5,144.25L725.5,146.7" id="L-D-D1-0" class=" edge-thickness-normal edge-pattern-solid flowchart-link LS-D LE-D1" style="fill:none;" marker-end="url(#mermaid-1770792675490_flowchart-pointEnd)"></path><path d="M834.5,112L834.5,115.333C834.5,118.667,834.5,125.333,834.5,131.117C834.5,136.9,834.5,141.8,834.5,144.25L834.5,146.7" id="L-D-D2-0" class=" edge-thickness-normal edge-pattern-solid flowchart-link LS-D LE-D2" style="fill:none;" marker-end="url(#mermaid-1770792675490_flowchart-pointEnd)"></path><path d="M874,106.829L886.917,111.024C899.833,115.219,925.667,123.61,938.583,130.255C951.5,136.9,951.5,141.8,951.5,144.25L951.5,146.7" id="L-D-D3-0" class=" edge-thickness-normal edge-pattern-solid flowchart-link LS-D LE-D3" style="fill:none;" marker-end="url(#mermaid-1770792675490_flowchart-pointEnd)"></path><path d="M1130,110.56L1119.75,114.133C1109.5,117.706,1089,124.853,1078.75,130.877C1068.5,136.9,1068.5,141.8,1068.5,144.25L1068.5,146.7" id="L-E-E1-0" class=" edge-thickness-normal edge-pattern-solid flowchart-link LS-E LE-E1" style="fill:none;" marker-end="url(#mermaid-1770792675490_flowchart-pointEnd)"></path><path d="M1177.5,112L1177.5,115.333C1177.5,118.667,1177.5,125.333,1177.5,131.117C1177.5,136.9,1177.5,141.8,1177.5,144.25L1177.5,146.7" id="L-E-E2-0" class=" edge-thickness-normal edge-pattern-solid flowchart-link LS-E LE-E2" style="fill:none;" marker-end="url(#mermaid-1770792675490_flowchart-pointEnd)"></path><path d="M1225,110.56L1235.25,114.133C1245.5,117.706,1266,124.853,1276.25,130.877C1286.5,136.9,1286.5,141.8,1286.5,144.25L1286.5,146.7" id="L-E-E3-0" class=" edge-thickness-normal edge-pattern-solid flowchart-link LS-E LE-E3" style="fill:none;" marker-end="url(#mermaid-1770792675490_flowchart-pointEnd)"></path></g><g class="edgeLabels"><g class="edgeLabel"><g class="label" transform="translate(0, 0)"></g></g><g class="edgeLabel"><g class="label" transform="translate(0, 0)"></g></g><g class="edgeLabel"><g class="label" transform="translate(0, 0)"></g></g><g class="edgeLabel"><g class="label" transform="translate(0, 0)"></g></g><g class="edgeLabel"><g class="label" transform="translate(0, 0)"></g></g><g class="edgeLabel"><g class="label" transform="translate(0, 0)"></g></g><g class="edgeLabel"><g class="label" transform="translate(0, 0)"></g></g><g class="edgeLabel"><g class="label" transform="translate(0, 0)"></g></g><g class="edgeLabel"><g class="label" transform="translate(0, 0)"></g></g><g class="edgeLabel"><g class="label" transform="translate(0, 0)"></g></g><g class="edgeLabel"><g class="label" transform="translate(0, 0)"></g></g><g class="edgeLabel"><g class="label" transform="translate(0, 0)"></g></g><g class="edgeLabel"><g class="label" transform="translate(0, 0)"></g></g><g class="edgeLabel"><g class="label" transform="translate(0, 0)"></g></g><g class="edgeLabel"><g class="label" transform="translate(0, 0)"></g></g><g class="edgeLabel"><g class="label" transform="translate(0, 0)"></g></g></g><g class="nodes"><g class="node default default flowchart-label" id="flowchart-A-0" data-node="true" data-id="A" transform="translate(671, 18)"><rect class="basic label-container" style="fill:#e1f5ff;" rx="0" ry="0" x="-84.8515625" y="-18" width="169.703125" height="36"></rect><g class="label" style="" transform="translate(-77.3515625, -10.5)"><rect></rect><text x="77.3515625" y="10.5" text-anchor="middle" dominant-baseline="central" font-family="Microsoft YaHei, SimHei, SimSun, Arial, sans-serif" font-size="16" fill="#333"><tspan x="77.3515625" y="10.5" text-anchor="middle">OpenClaw制造业应用</tspan></text></g></g><g class="node default default flowchart-label" id="flowchart-B-1" data-node="true" data-id="B" transform="translate(148.5, 94)"><rect class="basic label-container" style="fill:#ffe1e1;" rx="0" ry="0" x="-55.5" y="-18" width="111" height="36"></rect><g class="label" style="" transform="translate(-48, -10.5)"><rect></rect><text x="48.0" y="10.5" text-anchor="middle" dominant-baseline="central" font-family="Microsoft YaHei, SimHei, SimSun, Arial, sans-serif" font-size="16" fill="#333"><tspan x="48.0" y="10.5" text-anchor="middle">生产调度优化</tspan></text></g></g><g class="node default default flowchart-label" id="flowchart-C-3" data-node="true" data-id="C" transform="translate(507.5, 94)"><rect class="basic label-container" style="fill:#ffe1e1;" rx="0" ry="0" x="-39.5" y="-18" width="79" height="36"></rect><g class="label" style="" transform="translate(-32, -10.5)"><rect></rect><text x="32.0" y="10.5" text-anchor="middle" dominant-baseline="central" font-family="Microsoft YaHei, SimHei, SimSun, Arial, sans-serif" font-size="16" fill="#333"><tspan x="32.0" y="10.5" text-anchor="middle">质量控制</tspan></text></g></g><g class="node default default flowchart-label" id="flowchart-D-5" data-node="true" data-id="D" transform="translate(834.5, 94)"><rect class="basic label-container" style="fill:#ffe1e1;" rx="0" ry="0" x="-39.5" y="-18" width="79" height="36"></rect><g class="label" style="" transform="translate(-32, -10.5)"><rect></rect><text x="32.0" y="10.5" text-anchor="middle" dominant-baseline="central" font-family="Microsoft YaHei, SimHei, SimSun, Arial, sans-serif" font-size="16" fill="#333"><tspan x="32.0" y="10.5" text-anchor="middle">设备维护</tspan></text></g></g><g class="node default default flowchart-label" id="flowchart-E-7" data-node="true" data-id="E" transform="translate(1177.5, 94)"><rect class="basic label-container" style="fill:#ffe1e1;" rx="0" ry="0" x="-47.5" y="-18" width="95" height="36"></rect><g class="label" style="" transform="translate(-40, -10.5)"><rect></rect><text x="40.0" y="10.5" text-anchor="middle" dominant-baseline="central" font-family="Microsoft YaHei, SimHei, SimSun, Arial, sans-serif" font-size="16" fill="#333"><tspan x="40.0" y="10.5" text-anchor="middle">供应链协同</tspan></text></g></g><g class="node default default flowchart-label" id="flowchart-B1-9" data-node="true" data-id="B1" transform="translate(39.5, 170)"><rect class="basic label-container" style="" rx="0" ry="0" x="-39.5" y="-18" width="79" height="36"></rect><g class="label" style="" transform="translate(-32, -10.5)"><rect></rect><text x="32.0" y="10.5" text-anchor="middle" dominant-baseline="central" font-family="Microsoft YaHei, SimHei, SimSun, Arial, sans-serif" font-size="16" fill="#333"><tspan x="32.0" y="10.5" text-anchor="middle">智能排产</tspan></text></g></g><g class="node default default flowchart-label" id="flowchart-B2-11" data-node="true" data-id="B2" transform="translate(148.5, 170)"><rect class="basic label-container" style="" rx="0" ry="0" x="-39.5" y="-18" width="79" height="36"></rect><g class="label" style="" transform="translate(-32, -10.5)"><rect></rect><text x="32.0" y="10.5" text-anchor="middle" dominant-baseline="central" font-family="Microsoft YaHei, SimHei, SimSun, Arial, sans-serif" font-size="16" fill="#333"><tspan x="32.0" y="10.5" text-anchor="middle">动态调整</tspan></text></g></g><g class="node default default flowchart-label" id="flowchart-B3-13" data-node="true" data-id="B3" transform="translate(257.5, 170)"><rect class="basic label-container" style="" rx="0" ry="0" x="-39.5" y="-18" width="79" height="36"></rect><g class="label" style="" transform="translate(-32, -10.5)"><rect></rect><text x="32.0" y="10.5" text-anchor="middle" dominant-baseline="central" font-family="Microsoft YaHei, SimHei, SimSun, Arial, sans-serif" font-size="16" fill="#333"><tspan x="32.0" y="10.5" text-anchor="middle">资源优化</tspan></text></g></g><g class="node default default flowchart-label" id="flowchart-C1-15" data-node="true" data-id="C1" transform="translate(382.5, 170)"><rect class="basic label-container" style="" rx="0" ry="0" x="-55.5" y="-18" width="111" height="36"></rect><g class="label" style="" transform="translate(-48, -10.5)"><rect></rect><text x="48.0" y="10.5" text-anchor="middle" dominant-baseline="central" font-family="Microsoft YaHei, SimHei, SimSun, Arial, sans-serif" font-size="16" fill="#333"><tspan x="48.0" y="10.5" text-anchor="middle">机器视觉检测</tspan></text></g></g><g class="node default default flowchart-label" id="flowchart-C2-17" data-node="true" data-id="C2" transform="translate(507.5, 170)"><rect class="basic label-container" style="" rx="0" ry="0" x="-39.5" y="-18" width="79" height="36"></rect><g class="label" style="" transform="translate(-32, -10.5)"><rect></rect><text x="32.0" y="10.5" text-anchor="middle" dominant-baseline="central" font-family="Microsoft YaHei, SimHei, SimSun, Arial, sans-serif" font-size="16" fill="#333"><tspan x="32.0" y="10.5" text-anchor="middle">缺陷识别</tspan></text></g></g><g class="node default default flowchart-label" id="flowchart-C3-19" data-node="true" data-id="C3" transform="translate(616.5, 170)"><rect class="basic label-container" style="" rx="0" ry="0" x="-39.5" y="-18" width="79" height="36"></rect><g class="label" style="" transform="translate(-32, -10.5)"><rect></rect><text x="32.0" y="10.5" text-anchor="middle" dominant-baseline="central" font-family="Microsoft YaHei, SimHei, SimSun, Arial, sans-serif" font-size="16" fill="#333"><tspan x="32.0" y="10.5" text-anchor="middle">工艺改进</tspan></text></g></g><g class="node default default flowchart-label" id="flowchart-D1-21" data-node="true" data-id="D1" transform="translate(725.5, 170)"><rect class="basic label-container" style="" rx="0" ry="0" x="-39.5" y="-18" width="79" height="36"></rect><g class="label" style="" transform="translate(-32, -10.5)"><rect></rect><text x="32.0" y="10.5" text-anchor="middle" dominant-baseline="central" font-family="Microsoft YaHei, SimHei, SimSun, Arial, sans-serif" font-size="16" fill="#333"><tspan x="32.0" y="10.5" text-anchor="middle">状态监测</tspan></text></g></g><g class="node default default flowchart-label" id="flowchart-D2-23" data-node="true" data-id="D2" transform="translate(834.5, 170)"><rect class="basic label-container" style="" rx="0" ry="0" x="-39.5" y="-18" width="79" height="36"></rect><g class="label" style="" transform="translate(-32, -10.5)"><rect></rect><text x="32.0" y="10.5" text-anchor="middle" dominant-baseline="central" font-family="Microsoft YaHei, SimHei, SimSun, Arial, sans-serif" font-size="16" fill="#333"><tspan x="32.0" y="10.5" text-anchor="middle">故障预测</tspan></text></g></g><g class="node default default flowchart-label" id="flowchart-D3-25" data-node="true" data-id="D3" transform="translate(951.5, 170)"><rect class="basic label-container" style="" rx="0" ry="0" x="-47.5" y="-18" width="95" height="36"></rect><g class="label" style="" transform="translate(-40, -10.5)"><rect></rect><text x="40.0" y="10.5" text-anchor="middle" dominant-baseline="central" font-family="Microsoft YaHei, SimHei, SimSun, Arial, sans-serif" font-size="16" fill="#333"><tspan x="40.0" y="10.5" text-anchor="middle">预防性维护</tspan></text></g></g><g class="node default default flowchart-label" id="flowchart-E1-27" data-node="true" data-id="E1" transform="translate(1068.5, 170)"><rect class="basic label-container" style="" rx="0" ry="0" x="-39.5" y="-18" width="79" height="36"></rect><g class="label" style="" transform="translate(-32, -10.5)"><rect></rect><text x="32.0" y="10.5" text-anchor="middle" dominant-baseline="central" font-family="Microsoft YaHei, SimHei, SimSun, Arial, sans-serif" font-size="16" fill="#333"><tspan x="32.0" y="10.5" text-anchor="middle">需求预测</tspan></text></g></g><g class="node default default flowchart-label" id="flowchart-E2-29" data-node="true" data-id="E2" transform="translate(1177.5, 170)"><rect class="basic label-container" style="" rx="0" ry="0" x="-39.5" y="-18" width="79" height="36"></rect><g class="label" style="" transform="translate(-32, -10.5)"><rect></rect><text x="32.0" y="10.5" text-anchor="middle" dominant-baseline="central" font-family="Microsoft YaHei, SimHei, SimSun, Arial, sans-serif" font-size="16" fill="#333"><tspan x="32.0" y="10.5" text-anchor="middle">库存优化</tspan></text></g></g><g class="node default default flowchart-label" id="flowchart-E3-31" data-node="true" data-id="E3" transform="translate(1286.5, 170)"><rect class="basic label-container" style="" rx="0" ry="0" x="-39.5" y="-18" width="79" height="36"></rect><g class="label" style="" transform="translate(-32, -10.5)"><rect></rect><text x="32.0" y="10.5" text-anchor="middle" dominant-baseline="central" font-family="Microsoft YaHei, SimHei, SimSun, Arial, sans-serif" font-size="16" fill="#333"><tspan x="32.0" y="10.5" text-anchor="middle">物流协同</tspan></text></g></g></g></g></g></svg>